%TF.GenerationSoftware,KiCad,Pcbnew,7.0.2*%
%TF.CreationDate,2023-08-23T23:39:57+05:30*%
%TF.ProjectId,esp32_dev_board,65737033-325f-4646-9576-5f626f617264,rev?*%
%TF.SameCoordinates,Original*%
%TF.FileFunction,Copper,L2,Bot*%
%TF.FilePolarity,Positive*%
%FSLAX46Y46*%
G04 Gerber Fmt 4.6, Leading zero omitted, Abs format (unit mm)*
G04 Created by KiCad (PCBNEW 7.0.2) date 2023-08-23 23:39:57*
%MOMM*%
%LPD*%
G01*
G04 APERTURE LIST*
G04 Aperture macros list*
%AMRoundRect*
0 Rectangle with rounded corners*
0 $1 Rounding radius*
0 $2 $3 $4 $5 $6 $7 $8 $9 X,Y pos of 4 corners*
0 Add a 4 corners polygon primitive as box body*
4,1,4,$2,$3,$4,$5,$6,$7,$8,$9,$2,$3,0*
0 Add four circle primitives for the rounded corners*
1,1,$1+$1,$2,$3*
1,1,$1+$1,$4,$5*
1,1,$1+$1,$6,$7*
1,1,$1+$1,$8,$9*
0 Add four rect primitives between the rounded corners*
20,1,$1+$1,$2,$3,$4,$5,0*
20,1,$1+$1,$4,$5,$6,$7,0*
20,1,$1+$1,$6,$7,$8,$9,0*
20,1,$1+$1,$8,$9,$2,$3,0*%
G04 Aperture macros list end*
%TA.AperFunction,HeatsinkPad*%
%ADD10C,0.600000*%
%TD*%
%TA.AperFunction,SMDPad,CuDef*%
%ADD11RoundRect,0.250000X0.475000X-0.337500X0.475000X0.337500X-0.475000X0.337500X-0.475000X-0.337500X0*%
%TD*%
%TA.AperFunction,ComponentPad*%
%ADD12R,1.700000X1.700000*%
%TD*%
%TA.AperFunction,ComponentPad*%
%ADD13O,1.700000X1.700000*%
%TD*%
%TA.AperFunction,SMDPad,CuDef*%
%ADD14RoundRect,0.150000X0.150000X-0.825000X0.150000X0.825000X-0.150000X0.825000X-0.150000X-0.825000X0*%
%TD*%
%TA.AperFunction,ViaPad*%
%ADD15C,0.800000*%
%TD*%
%TA.AperFunction,Conductor*%
%ADD16C,0.300000*%
%TD*%
%TA.AperFunction,Conductor*%
%ADD17C,0.500000*%
%TD*%
G04 APERTURE END LIST*
D10*
%TO.P,U3,39,GND*%
%TO.N,GND*%
X109235000Y-76760000D03*
X109235000Y-78160000D03*
X109935000Y-76060000D03*
X109935000Y-77460000D03*
X109935000Y-78860000D03*
X110635000Y-76760000D03*
X110635000Y-78160000D03*
X111335000Y-76060000D03*
X111335000Y-77460000D03*
X111335000Y-78860000D03*
X112035000Y-76760000D03*
X112035000Y-78160000D03*
%TD*%
D11*
%TO.P,C5,1*%
%TO.N,Net-(U3-V3)*%
X103800000Y-113600000D03*
%TO.P,C5,2*%
%TO.N,GND*%
X103800000Y-111525000D03*
%TD*%
D12*
%TO.P,J1,1,Pin_1*%
%TO.N,SENSRO2*%
X98800000Y-78575000D03*
D13*
%TO.P,J1,2,Pin_2*%
%TO.N,SENSRO1*%
X98800000Y-81115000D03*
%TO.P,J1,3,Pin_3*%
%TO.N,IO35*%
X98800000Y-83655000D03*
%TO.P,J1,4,Pin_4*%
%TO.N,IO32*%
X98800000Y-86195000D03*
%TO.P,J1,5,Pin_5*%
%TO.N,IO33*%
X98800000Y-88735000D03*
%TO.P,J1,6,Pin_6*%
%TO.N,IO25*%
X98800000Y-91275000D03*
%TO.P,J1,7,Pin_7*%
%TO.N,IO26*%
X98800000Y-93815000D03*
%TD*%
D14*
%TO.P,U3,1,GND*%
%TO.N,GND*%
X116045000Y-113075000D03*
%TO.P,U3,2,TXD*%
%TO.N,TX_MCU*%
X114775000Y-113075000D03*
%TO.P,U3,3,RXD*%
%TO.N,RX_MCU*%
X113505000Y-113075000D03*
%TO.P,U3,4,V3*%
%TO.N,Net-(U3-V3)*%
X112235000Y-113075000D03*
%TO.P,U3,5,UD+*%
%TO.N,USB_M*%
X110965000Y-113075000D03*
%TO.P,U3,6,UD-*%
%TO.N,USB_P*%
X109695000Y-113075000D03*
%TO.P,U3,7,NC*%
%TO.N,unconnected-(U3-NC-Pad7)*%
X108425000Y-113075000D03*
%TO.P,U3,8,NC*%
%TO.N,unconnected-(U3-NC-Pad8)*%
X107155000Y-113075000D03*
%TO.P,U3,9,~{CTS}*%
%TO.N,unconnected-(U3-~{CTS}-Pad9)*%
X107155000Y-108125000D03*
%TO.P,U3,10,~{DSR}*%
%TO.N,unconnected-(U3-~{DSR}-Pad10)*%
X108425000Y-108125000D03*
%TO.P,U3,11,~{RI}*%
%TO.N,unconnected-(U3-~{RI}-Pad11)*%
X109695000Y-108125000D03*
%TO.P,U3,12,~{DCD}*%
%TO.N,unconnected-(U3-~{DCD}-Pad12)*%
X110965000Y-108125000D03*
%TO.P,U3,13,~{DTR}*%
%TO.N,unconnected-(U3-~{DTR}-Pad13)*%
X112235000Y-108125000D03*
%TO.P,U3,14,~{RTS}*%
%TO.N,unconnected-(U3-~{RTS}-Pad14)*%
X113505000Y-108125000D03*
%TO.P,U3,15,R232*%
%TO.N,unconnected-(U3-R232-Pad15)*%
X114775000Y-108125000D03*
%TO.P,U3,16,VCC*%
%TO.N,3.3v*%
X116045000Y-108125000D03*
%TD*%
D12*
%TO.P,J4,1,Pin_1*%
%TO.N,VBUS*%
X98600000Y-117000000D03*
%TD*%
%TO.P,J7,1,Pin_1*%
%TO.N,IO5*%
X124500000Y-105420000D03*
D13*
%TO.P,J7,2,Pin_2*%
%TO.N,IO17*%
X124500000Y-107960000D03*
%TO.P,J7,3,Pin_3*%
%TO.N,IO16*%
X124500000Y-110500000D03*
%TO.P,J7,4,Pin_4*%
%TO.N,IO4*%
X124500000Y-113040000D03*
%TO.P,J7,5,Pin_5*%
%TO.N,IO0*%
X124500000Y-115580000D03*
%TO.P,J7,6,Pin_6*%
%TO.N,IO2*%
X124500000Y-118120000D03*
%TO.P,J7,7,Pin_7*%
%TO.N,IO15*%
X124500000Y-120660000D03*
%TD*%
D12*
%TO.P,J9,1,Pin_1*%
%TO.N,GND*%
X98600000Y-120800000D03*
%TD*%
%TO.P,J8,1,Pin_1*%
%TO.N,SDI*%
X124500000Y-82000000D03*
%TD*%
%TO.P,J2,1,Pin_1*%
%TO.N,CLK*%
X124520000Y-78200000D03*
%TD*%
%TO.P,J6,1,Pin_1*%
%TO.N,IO23*%
X124500000Y-86300000D03*
D13*
%TO.P,J6,2,Pin_2*%
%TO.N,IO22*%
X124500000Y-88840000D03*
%TO.P,J6,3,Pin_3*%
%TO.N,TX_MCU*%
X124500000Y-91380000D03*
%TO.P,J6,4,Pin_4*%
%TO.N,RX_MCU*%
X124500000Y-93920000D03*
%TO.P,J6,5,Pin_5*%
%TO.N,IO21*%
X124500000Y-96460000D03*
%TO.P,J6,6,Pin_6*%
%TO.N,IO19*%
X124500000Y-99000000D03*
%TO.P,J6,7,Pin_7*%
%TO.N,IO18*%
X124500000Y-101540000D03*
%TD*%
D12*
%TO.P,J5,1,Pin_1*%
%TO.N,IO27*%
X98800000Y-97720000D03*
D13*
%TO.P,J5,2,Pin_2*%
%TO.N,IO12*%
X98800000Y-100260000D03*
%TO.P,J5,3,Pin_3*%
%TO.N,IO14*%
X98800000Y-102800000D03*
%TO.P,J5,4,Pin_4*%
%TO.N,IO13*%
X98800000Y-105340000D03*
%TO.P,J5,5,Pin_5*%
%TO.N,SDI*%
X98800000Y-107880000D03*
%TO.P,J5,6,Pin_6*%
%TO.N,SDO*%
X98800000Y-110420000D03*
%TO.P,J5,7,Pin_7*%
%TO.N,CMD*%
X98800000Y-112960000D03*
%TD*%
D15*
%TO.N,3.3v*%
X117800000Y-109000000D03*
X107400000Y-81000000D03*
X107400000Y-84400000D03*
X108200000Y-93800000D03*
X107400000Y-76600000D03*
%TO.N,GND*%
X104000000Y-111400000D03*
X105650000Y-105500000D03*
X112817152Y-111423591D03*
X111600000Y-86000000D03*
X106449500Y-87500000D03*
X114337500Y-118625000D03*
X111415688Y-89615688D03*
X112550000Y-98600000D03*
%TO.N,IO25*%
X103385000Y-81325000D03*
%TO.N,IO26*%
X103385000Y-82595000D03*
%TO.N,CLK*%
X112800000Y-85400000D03*
%TO.N,USB_M*%
X111600688Y-116000688D03*
%TO.N,USB_P*%
X111949500Y-117100000D03*
%TO.N,IO27*%
X103385000Y-83865000D03*
%TO.N,IO12*%
X103385000Y-86405000D03*
%TO.N,IO14*%
X104734502Y-86000000D03*
%TO.N,IO13*%
X102200000Y-101400000D03*
%TO.N,SDI*%
X117600000Y-71200000D03*
%TO.N,SDO*%
X113000000Y-89200000D03*
%TO.N,CMD*%
X105600000Y-100400000D03*
X109400000Y-91000000D03*
%TO.N,IO23*%
X120885000Y-71165000D03*
%TO.N,IO22*%
X120885000Y-72435000D03*
%TO.N,TX_MCU*%
X120010228Y-117371603D03*
X108800000Y-89000000D03*
X120750500Y-73705000D03*
X122200000Y-115600000D03*
X117400000Y-75200000D03*
%TO.N,RX_MCU*%
X117600000Y-76800000D03*
X110600000Y-92400000D03*
X121324500Y-118685875D03*
%TO.N,IO19*%
X119000000Y-79000000D03*
%TO.N,IO18*%
X118600000Y-80200000D03*
%TO.N,IO5*%
X117750500Y-81400000D03*
%TO.N,IO17*%
X116800000Y-82800000D03*
%TO.N,IO16*%
X115950500Y-84000000D03*
%TO.N,IO4*%
X115101000Y-85000000D03*
%TO.N,IO2*%
X114200000Y-90800000D03*
%TO.N,IO15*%
X113306250Y-90352544D03*
%TD*%
D16*
%TO.N,3.3v*%
X116925000Y-108125000D02*
X117800000Y-109000000D01*
D17*
X107800000Y-93400000D02*
X108200000Y-93800000D01*
X107400000Y-76600000D02*
X107400000Y-79000000D01*
X107800000Y-84800000D02*
X107800000Y-93400000D01*
X107400000Y-84400000D02*
X107800000Y-84800000D01*
D16*
X116045000Y-108125000D02*
X116925000Y-108125000D01*
D17*
X107400000Y-79000000D02*
X107400000Y-81000000D01*
D16*
%TO.N,GND*%
X115223591Y-111423591D02*
X112817152Y-111423591D01*
D17*
X111600000Y-86000000D02*
X111600000Y-89431376D01*
D16*
X116045000Y-112245000D02*
X115223591Y-111423591D01*
D17*
X112550000Y-98600000D02*
X105650000Y-105500000D01*
D16*
X116045000Y-113075000D02*
X116045000Y-112245000D01*
D17*
X111600000Y-89431376D02*
X111415688Y-89615688D01*
%TO.N,IO25*%
X98800000Y-91275000D02*
X100400000Y-89675000D01*
X102475000Y-81325000D02*
X103385000Y-81325000D01*
X100400000Y-83400000D02*
X102475000Y-81325000D01*
X100400000Y-89675000D02*
X100400000Y-83400000D01*
%TO.N,IO26*%
X101400000Y-83800000D02*
X102605000Y-82595000D01*
X101400000Y-91215000D02*
X101400000Y-83800000D01*
X102605000Y-82595000D02*
X103385000Y-82595000D01*
X98800000Y-93815000D02*
X101400000Y-91215000D01*
%TO.N,CLK*%
X121122082Y-70200000D02*
X120000000Y-70200000D01*
X123200000Y-72277918D02*
X121361041Y-70438959D01*
X121361041Y-70438959D02*
X121122082Y-70200000D01*
X123200000Y-72400000D02*
X123200000Y-72277918D01*
X118600000Y-77800000D02*
X116000000Y-80400000D01*
X124520000Y-78200000D02*
X124520000Y-73720000D01*
X112800000Y-83600000D02*
X112800000Y-85400000D01*
X116000000Y-80400000D02*
X112800000Y-83600000D01*
X120000000Y-70200000D02*
X118600000Y-71600000D01*
X118600000Y-73200000D02*
X118600000Y-77800000D01*
X124520000Y-73720000D02*
X123200000Y-72400000D01*
X118600000Y-71600000D02*
X118600000Y-73200000D01*
D16*
%TO.N,USB_M*%
X111000000Y-114800000D02*
X111000000Y-113110000D01*
X111600688Y-116000688D02*
X111600688Y-115400688D01*
X111600688Y-115400688D02*
X111000000Y-114800000D01*
X111000000Y-113110000D02*
X110965000Y-113075000D01*
%TO.N,USB_P*%
X110750688Y-116750688D02*
X109695000Y-115695000D01*
X109695000Y-115695000D02*
X109695000Y-113075000D01*
X111949500Y-117100000D02*
X111600188Y-116750688D01*
X111600188Y-116750688D02*
X110750688Y-116750688D01*
D17*
%TO.N,IO27*%
X98800000Y-97720000D02*
X102400000Y-94120000D01*
X102400000Y-84850000D02*
X103385000Y-83865000D01*
X102400000Y-94120000D02*
X102400000Y-84850000D01*
%TO.N,IO12*%
X98800000Y-100260000D02*
X103385000Y-95675000D01*
X103385000Y-95675000D02*
X103385000Y-86405000D01*
%TO.N,IO14*%
X104734502Y-86000000D02*
X104600000Y-86134502D01*
X104600000Y-97000000D02*
X98800000Y-102800000D01*
X104600000Y-86134502D02*
X104600000Y-97000000D01*
%TO.N,IO13*%
X102200000Y-101940000D02*
X102200000Y-101400000D01*
X98800000Y-105340000D02*
X102200000Y-101940000D01*
%TO.N,SDI*%
X121800000Y-69400000D02*
X126400000Y-74000000D01*
X112785000Y-76215000D02*
X117600000Y-71400000D01*
X126400000Y-80100000D02*
X124500000Y-82000000D01*
X105600000Y-97800000D02*
X105600000Y-84600000D01*
X104000000Y-102200000D02*
X104000000Y-99400000D01*
X98800000Y-107400000D02*
X104000000Y-102200000D01*
X117600000Y-71400000D02*
X117600000Y-71200000D01*
X104000000Y-99400000D02*
X105600000Y-97800000D01*
X110800000Y-81200000D02*
X112785000Y-79215000D01*
X109000000Y-81200000D02*
X110800000Y-81200000D01*
X112785000Y-79215000D02*
X112785000Y-76215000D01*
X98800000Y-107880000D02*
X98800000Y-107400000D01*
X117600000Y-71200000D02*
X119400000Y-69400000D01*
X119400000Y-69400000D02*
X121800000Y-69400000D01*
X105600000Y-84600000D02*
X109000000Y-81200000D01*
X126400000Y-74000000D02*
X126400000Y-80100000D01*
%TO.N,SDO*%
X112200000Y-90000000D02*
X112200000Y-91600000D01*
X111600000Y-92200000D02*
X111600000Y-97620000D01*
X113000000Y-89200000D02*
X112200000Y-90000000D01*
X112200000Y-91600000D02*
X111600000Y-92200000D01*
X111600000Y-97620000D02*
X98800000Y-110420000D01*
%TO.N,CMD*%
X109400000Y-96600000D02*
X105600000Y-100400000D01*
X109400000Y-91000000D02*
X109400000Y-96600000D01*
%TO.N,IO23*%
X122400000Y-72680000D02*
X120885000Y-71165000D01*
X122400000Y-84200000D02*
X122400000Y-72680000D01*
X124500000Y-86300000D02*
X122400000Y-84200000D01*
%TO.N,IO22*%
X124500000Y-88840000D02*
X121600000Y-85940000D01*
X121600000Y-85940000D02*
X121600000Y-73150000D01*
X121600000Y-73150000D02*
X120885000Y-72435000D01*
%TO.N,TX_MCU*%
X113485000Y-79115000D02*
X117400000Y-75200000D01*
X110000000Y-86000000D02*
X110000000Y-83400000D01*
X124500000Y-91380000D02*
X120800000Y-87680000D01*
D16*
X125780000Y-91380000D02*
X124500000Y-91380000D01*
X118000000Y-117600000D02*
X114775000Y-114375000D01*
X126200000Y-113200000D02*
X126200000Y-91800000D01*
X120010228Y-117371603D02*
X119781831Y-117600000D01*
X125020000Y-114380000D02*
X126200000Y-113200000D01*
X122200000Y-115600000D02*
X123420000Y-114380000D01*
X123420000Y-114380000D02*
X125020000Y-114380000D01*
D17*
X120800000Y-87680000D02*
X120800000Y-73754500D01*
X120800000Y-73754500D02*
X120750500Y-73705000D01*
X108800000Y-87200000D02*
X110000000Y-86000000D01*
X108800000Y-89000000D02*
X108800000Y-87200000D01*
D16*
X126200000Y-91800000D02*
X125780000Y-91380000D01*
X119781831Y-117600000D02*
X118000000Y-117600000D01*
D17*
X113485000Y-79915000D02*
X113485000Y-79115000D01*
X110000000Y-83400000D02*
X113485000Y-79915000D01*
D16*
X114775000Y-114375000D02*
X114775000Y-113075000D01*
D17*
%TO.N,RX_MCU*%
X110600000Y-90402082D02*
X110200000Y-90002082D01*
D16*
X121324500Y-118685875D02*
X121210375Y-118800000D01*
X121210375Y-118800000D02*
X117400000Y-118800000D01*
D17*
X110700000Y-87489950D02*
X110700000Y-83700000D01*
D16*
X113505000Y-114905000D02*
X113505000Y-113075000D01*
D17*
X110200000Y-87989950D02*
X110700000Y-87489950D01*
X110600000Y-92400000D02*
X110600000Y-90402082D01*
X110200000Y-90002082D02*
X110200000Y-87989950D01*
D16*
X117400000Y-118800000D02*
X113505000Y-114905000D01*
D17*
X110700000Y-83700000D02*
X117600000Y-76800000D01*
%TO.N,IO19*%
X119600000Y-88200000D02*
X119600000Y-86600000D01*
X119600000Y-79600000D02*
X119000000Y-79000000D01*
X119600000Y-86600000D02*
X119600000Y-79600000D01*
X124500000Y-99000000D02*
X122600000Y-97100000D01*
X122600000Y-97100000D02*
X122600000Y-91200000D01*
X122600000Y-91200000D02*
X119600000Y-88200000D01*
%TO.N,IO18*%
X121400000Y-91800000D02*
X118600000Y-89000000D01*
X124500000Y-101540000D02*
X121400000Y-98440000D01*
X118600000Y-89000000D02*
X118600000Y-80200000D01*
X121400000Y-98440000D02*
X121400000Y-91800000D01*
%TO.N,IO5*%
X124500000Y-105420000D02*
X124500000Y-103500000D01*
X124500000Y-103500000D02*
X122600000Y-101600000D01*
X120200000Y-92800000D02*
X117750500Y-90350500D01*
X122600000Y-101600000D02*
X120200000Y-99200000D01*
X117750500Y-90350500D02*
X117750500Y-81400000D01*
X120200000Y-99200000D02*
X120200000Y-92800000D01*
%TO.N,IO17*%
X124500000Y-107960000D02*
X124440000Y-107960000D01*
X119200000Y-93600000D02*
X116800000Y-91200000D01*
X122600000Y-106120000D02*
X122600000Y-103800000D01*
X120000000Y-100400000D02*
X119200000Y-99600000D01*
X116800000Y-91200000D02*
X116800000Y-82800000D01*
X119200000Y-99600000D02*
X119200000Y-93600000D01*
X122600000Y-103800000D02*
X122600000Y-103000000D01*
X122600000Y-103000000D02*
X120000000Y-100400000D01*
X124440000Y-107960000D02*
X122600000Y-106120000D01*
%TO.N,IO16*%
X121400000Y-103800000D02*
X118400000Y-100800000D01*
X118400000Y-100800000D02*
X118400000Y-95600000D01*
X116800000Y-92400000D02*
X115950500Y-91550500D01*
X124500000Y-110500000D02*
X121400000Y-107400000D01*
X118400000Y-95600000D02*
X118400000Y-94000000D01*
X121400000Y-107400000D02*
X121400000Y-103800000D01*
X118400000Y-94000000D02*
X116800000Y-92400000D01*
X115950500Y-91550500D02*
X115950500Y-84000000D01*
%TO.N,IO4*%
X115200000Y-85099000D02*
X115101000Y-85000000D01*
X117600000Y-101600000D02*
X117600000Y-95200000D01*
X120400000Y-108940000D02*
X120400000Y-104400000D01*
X124500000Y-113040000D02*
X120400000Y-108940000D01*
X117600000Y-95200000D02*
X115200000Y-92800000D01*
X118400000Y-102400000D02*
X117600000Y-101600000D01*
X115200000Y-92800000D02*
X115200000Y-91600000D01*
X115200000Y-91600000D02*
X115200000Y-85099000D01*
X120400000Y-104400000D02*
X118400000Y-102400000D01*
%TO.N,IO2*%
X119600000Y-110800000D02*
X119600000Y-104600000D01*
X114200000Y-93200000D02*
X114200000Y-90800000D01*
X116600000Y-101600000D02*
X116600000Y-96000000D01*
X114600000Y-93600000D02*
X114200000Y-93200000D01*
X123120000Y-118120000D02*
X121100000Y-116100000D01*
X116600000Y-96000000D02*
X114600000Y-94000000D01*
X121100000Y-112300000D02*
X119600000Y-110800000D01*
X124500000Y-118120000D02*
X123120000Y-118120000D01*
X114600000Y-94000000D02*
X114600000Y-93600000D01*
X121100000Y-116100000D02*
X121100000Y-112300000D01*
X119600000Y-104600000D02*
X116600000Y-101600000D01*
%TO.N,IO15*%
X113000000Y-94800000D02*
X115600000Y-97400000D01*
X115800000Y-102400000D02*
X118900000Y-105500000D01*
X113000000Y-90658794D02*
X113000000Y-94800000D01*
X115800000Y-100400000D02*
X115800000Y-102400000D01*
X118900000Y-115060000D02*
X124500000Y-120660000D01*
X115600000Y-97400000D02*
X115600000Y-100200000D01*
X118900000Y-105500000D02*
X118900000Y-115060000D01*
X113306250Y-90352544D02*
X113000000Y-90658794D01*
X115600000Y-100200000D02*
X115800000Y-100400000D01*
D16*
%TO.N,Net-(U3-V3)*%
X106000000Y-112200000D02*
X107200000Y-111000000D01*
X111339339Y-111000000D02*
X112235000Y-111895661D01*
X107200000Y-111000000D02*
X111339339Y-111000000D01*
X112235000Y-111895661D02*
X112235000Y-113075000D01*
X105200000Y-112200000D02*
X106000000Y-112200000D01*
X103800000Y-113600000D02*
X105200000Y-112200000D01*
%TD*%
%TA.AperFunction,Conductor*%
%TO.N,GND*%
G36*
X126942539Y-67020185D02*
G01*
X126988294Y-67072989D01*
X126999500Y-67124500D01*
X126999500Y-73238770D01*
X126979815Y-73305809D01*
X126927011Y-73351564D01*
X126857853Y-73361508D01*
X126794297Y-73332483D01*
X126787819Y-73326451D01*
X122375728Y-68914360D01*
X122363946Y-68900727D01*
X122349609Y-68881469D01*
X122311666Y-68849631D01*
X122303691Y-68842323D01*
X122302329Y-68840961D01*
X122299777Y-68838409D01*
X122277975Y-68821170D01*
X122275444Y-68819169D01*
X122272647Y-68816890D01*
X122214251Y-68767890D01*
X122197821Y-68757422D01*
X122128691Y-68725186D01*
X122125447Y-68723615D01*
X122057306Y-68689394D01*
X122038903Y-68682997D01*
X121964211Y-68667574D01*
X121960692Y-68666794D01*
X121886490Y-68649208D01*
X121867121Y-68647229D01*
X121790869Y-68649448D01*
X121787263Y-68649500D01*
X119463706Y-68649500D01*
X119445736Y-68648191D01*
X119431853Y-68646157D01*
X119421977Y-68644711D01*
X119421976Y-68644711D01*
X119372634Y-68649028D01*
X119361827Y-68649500D01*
X119356291Y-68649500D01*
X119352730Y-68649916D01*
X119352715Y-68649917D01*
X119325484Y-68653100D01*
X119321900Y-68653466D01*
X119245950Y-68660111D01*
X119226922Y-68664329D01*
X119155270Y-68690407D01*
X119151869Y-68691589D01*
X119079480Y-68715578D01*
X119061927Y-68724076D01*
X118998236Y-68765965D01*
X118995198Y-68767901D01*
X118930278Y-68807946D01*
X118915162Y-68820259D01*
X118862814Y-68875742D01*
X118860304Y-68878326D01*
X117447228Y-70291402D01*
X117385905Y-70324887D01*
X117385330Y-70325011D01*
X117320197Y-70338856D01*
X117147267Y-70415849D01*
X116994129Y-70527110D01*
X116867466Y-70667783D01*
X116772820Y-70831715D01*
X116714326Y-71011742D01*
X116693951Y-71205600D01*
X116667366Y-71270214D01*
X116658311Y-71280319D01*
X112299358Y-75639272D01*
X112285727Y-75651053D01*
X112266467Y-75665392D01*
X112241738Y-75694862D01*
X112183566Y-75733564D01*
X112113705Y-75734671D01*
X112054336Y-75697833D01*
X112053808Y-75697132D01*
X112051661Y-75696890D01*
X111688553Y-76059999D01*
X111998181Y-76369627D01*
X112031666Y-76430950D01*
X112034500Y-76457308D01*
X112034500Y-76660000D01*
X112019162Y-76660000D01*
X111973197Y-76674935D01*
X111935000Y-76727508D01*
X111935000Y-76792492D01*
X111973197Y-76845065D01*
X112019162Y-76860000D01*
X112034500Y-76860000D01*
X112034500Y-77062691D01*
X112014815Y-77129730D01*
X111998181Y-77150372D01*
X111688553Y-77460000D01*
X111998181Y-77769628D01*
X112031666Y-77830951D01*
X112034500Y-77857309D01*
X112034500Y-78060000D01*
X112019162Y-78060000D01*
X111973197Y-78074935D01*
X111935000Y-78127508D01*
X111935000Y-78192492D01*
X111973197Y-78245065D01*
X112019162Y-78260000D01*
X112034500Y-78260000D01*
X112034500Y-78462690D01*
X112014815Y-78529729D01*
X111998181Y-78550371D01*
X111617807Y-78930746D01*
X111335000Y-79213553D01*
X110971891Y-79576660D01*
X110985696Y-79585335D01*
X111071738Y-79615442D01*
X111128514Y-79656163D01*
X111154262Y-79721116D01*
X111140806Y-79789678D01*
X111118465Y-79820165D01*
X110525451Y-80413181D01*
X110464128Y-80446666D01*
X110437770Y-80449500D01*
X109063706Y-80449500D01*
X109045736Y-80448191D01*
X109031853Y-80446157D01*
X109021977Y-80444711D01*
X109021976Y-80444711D01*
X108972634Y-80449028D01*
X108961827Y-80449500D01*
X108956291Y-80449500D01*
X108952717Y-80449917D01*
X108952711Y-80449918D01*
X108925487Y-80453099D01*
X108921906Y-80453465D01*
X108845952Y-80460111D01*
X108826923Y-80464329D01*
X108755271Y-80490408D01*
X108751868Y-80491591D01*
X108679479Y-80515579D01*
X108661927Y-80524076D01*
X108598228Y-80565970D01*
X108595190Y-80567905D01*
X108530281Y-80607943D01*
X108515164Y-80620256D01*
X108462848Y-80675708D01*
X108460336Y-80678294D01*
X108438863Y-80699767D01*
X108377540Y-80733252D01*
X108307848Y-80728268D01*
X108251915Y-80686396D01*
X108233250Y-80650402D01*
X108233072Y-80649854D01*
X108227179Y-80631716D01*
X108196344Y-80578308D01*
X108167113Y-80527677D01*
X108150500Y-80465677D01*
X108150500Y-79576660D01*
X109571891Y-79576660D01*
X109585696Y-79585335D01*
X109755859Y-79644877D01*
X109935000Y-79665062D01*
X110114140Y-79644877D01*
X110284303Y-79585335D01*
X110298107Y-79576661D01*
X110298107Y-79576660D01*
X109935001Y-79213553D01*
X109935000Y-79213553D01*
X109571891Y-79576660D01*
X108150500Y-79576660D01*
X108150500Y-78876660D01*
X108871891Y-78876660D01*
X108885696Y-78885335D01*
X109069044Y-78949491D01*
X109067489Y-78953932D01*
X109106702Y-78970398D01*
X109144999Y-79026134D01*
X109145509Y-79025956D01*
X109146164Y-79027828D01*
X109146271Y-79027984D01*
X109146358Y-79028383D01*
X109209665Y-79209304D01*
X109218338Y-79223108D01*
X109548955Y-78892492D01*
X109835000Y-78892492D01*
X109873197Y-78945065D01*
X109919162Y-78960000D01*
X109950838Y-78960000D01*
X109996803Y-78945065D01*
X110035000Y-78892492D01*
X110035000Y-78860000D01*
X110288552Y-78860000D01*
X110635000Y-79206447D01*
X110635001Y-79206447D01*
X110948955Y-78892492D01*
X111235000Y-78892492D01*
X111273197Y-78945065D01*
X111319162Y-78960000D01*
X111350838Y-78960000D01*
X111396803Y-78945065D01*
X111435000Y-78892492D01*
X111435000Y-78827508D01*
X111396803Y-78774935D01*
X111350838Y-78760000D01*
X111319162Y-78760000D01*
X111273197Y-78774935D01*
X111235000Y-78827508D01*
X111235000Y-78892492D01*
X110948955Y-78892492D01*
X110981447Y-78860000D01*
X110981447Y-78859999D01*
X110635001Y-78513553D01*
X110635000Y-78513553D01*
X110288552Y-78859999D01*
X110288552Y-78860000D01*
X110035000Y-78860000D01*
X110035000Y-78827508D01*
X109996803Y-78774935D01*
X109950838Y-78760000D01*
X109919162Y-78760000D01*
X109873197Y-78774935D01*
X109835000Y-78827508D01*
X109835000Y-78892492D01*
X109548955Y-78892492D01*
X109581447Y-78860000D01*
X109581447Y-78859999D01*
X109235001Y-78513553D01*
X109235000Y-78513553D01*
X108871891Y-78876660D01*
X108150500Y-78876660D01*
X108150500Y-78160000D01*
X108429937Y-78160000D01*
X108450122Y-78339140D01*
X108509665Y-78509304D01*
X108518338Y-78523108D01*
X108848954Y-78192492D01*
X109135000Y-78192492D01*
X109173197Y-78245065D01*
X109219162Y-78260000D01*
X109250838Y-78260000D01*
X109296803Y-78245065D01*
X109335000Y-78192492D01*
X109335000Y-78159998D01*
X109588552Y-78159998D01*
X109588553Y-78159999D01*
X109934999Y-78506447D01*
X109935000Y-78506447D01*
X110248955Y-78192492D01*
X110535000Y-78192492D01*
X110573197Y-78245065D01*
X110619162Y-78260000D01*
X110650838Y-78260000D01*
X110696803Y-78245065D01*
X110735000Y-78192492D01*
X110735000Y-78159999D01*
X110988553Y-78159999D01*
X111334999Y-78506447D01*
X111335000Y-78506447D01*
X111681447Y-78159999D01*
X111335001Y-77813553D01*
X111335000Y-77813553D01*
X110988553Y-78159998D01*
X110988553Y-78159999D01*
X110735000Y-78159999D01*
X110735000Y-78127508D01*
X110696803Y-78074935D01*
X110650838Y-78060000D01*
X110619162Y-78060000D01*
X110573197Y-78074935D01*
X110535000Y-78127508D01*
X110535000Y-78192492D01*
X110248955Y-78192492D01*
X110281447Y-78160000D01*
X110281447Y-78159999D01*
X109935001Y-77813553D01*
X109935000Y-77813553D01*
X109588552Y-78159998D01*
X109335000Y-78159998D01*
X109335000Y-78127508D01*
X109296803Y-78074935D01*
X109250838Y-78060000D01*
X109219162Y-78060000D01*
X109173197Y-78074935D01*
X109135000Y-78127508D01*
X109135000Y-78192492D01*
X108848954Y-78192492D01*
X108881447Y-78159999D01*
X108881447Y-78159998D01*
X108518339Y-77796890D01*
X108518338Y-77796891D01*
X108509664Y-77810696D01*
X108450122Y-77980859D01*
X108429937Y-78160000D01*
X108150500Y-78160000D01*
X108150500Y-77460000D01*
X108888552Y-77460000D01*
X109234998Y-77806447D01*
X109234999Y-77806447D01*
X109548955Y-77492492D01*
X109835000Y-77492492D01*
X109873197Y-77545065D01*
X109919162Y-77560000D01*
X109950838Y-77560000D01*
X109996803Y-77545065D01*
X110035000Y-77492492D01*
X110035000Y-77460000D01*
X110288553Y-77460000D01*
X110635000Y-77806447D01*
X110948955Y-77492492D01*
X111235000Y-77492492D01*
X111273197Y-77545065D01*
X111319162Y-77560000D01*
X111350838Y-77560000D01*
X111396803Y-77545065D01*
X111435000Y-77492492D01*
X111435000Y-77427508D01*
X111396803Y-77374935D01*
X111350838Y-77360000D01*
X111319162Y-77360000D01*
X111273197Y-77374935D01*
X111235000Y-77427508D01*
X111235000Y-77492492D01*
X110948955Y-77492492D01*
X110981447Y-77460000D01*
X110635000Y-77113553D01*
X110288553Y-77460000D01*
X110035000Y-77460000D01*
X110035000Y-77427508D01*
X109996803Y-77374935D01*
X109950838Y-77360000D01*
X109919162Y-77360000D01*
X109873197Y-77374935D01*
X109835000Y-77427508D01*
X109835000Y-77492492D01*
X109548955Y-77492492D01*
X109581447Y-77460000D01*
X109235000Y-77113553D01*
X108888552Y-77460000D01*
X108150500Y-77460000D01*
X108150500Y-77134321D01*
X108167113Y-77072321D01*
X108233696Y-76956997D01*
X108235607Y-76958100D01*
X108265286Y-76914693D01*
X108329644Y-76887492D01*
X108398491Y-76899403D01*
X108449969Y-76946645D01*
X108460826Y-76969729D01*
X108509665Y-77109304D01*
X108518338Y-77123108D01*
X108848955Y-76792492D01*
X109135000Y-76792492D01*
X109173197Y-76845065D01*
X109219162Y-76860000D01*
X109250838Y-76860000D01*
X109296803Y-76845065D01*
X109335000Y-76792492D01*
X109335000Y-76760000D01*
X109588552Y-76760000D01*
X109935000Y-77106446D01*
X109935001Y-77106446D01*
X110248955Y-76792492D01*
X110535000Y-76792492D01*
X110573197Y-76845065D01*
X110619162Y-76860000D01*
X110650838Y-76860000D01*
X110696803Y-76845065D01*
X110735000Y-76792492D01*
X110735000Y-76760000D01*
X110988553Y-76760000D01*
X111335000Y-77106447D01*
X111681447Y-76760000D01*
X111335000Y-76413553D01*
X110988553Y-76760000D01*
X110735000Y-76760000D01*
X110735000Y-76727508D01*
X110696803Y-76674935D01*
X110650838Y-76660000D01*
X110619162Y-76660000D01*
X110573197Y-76674935D01*
X110535000Y-76727508D01*
X110535000Y-76792492D01*
X110248955Y-76792492D01*
X110281446Y-76760001D01*
X110281446Y-76759999D01*
X109935001Y-76413553D01*
X109935000Y-76413553D01*
X109588552Y-76760000D01*
X109335000Y-76760000D01*
X109335000Y-76727508D01*
X109296803Y-76674935D01*
X109250838Y-76660000D01*
X109219162Y-76660000D01*
X109173197Y-76674935D01*
X109135000Y-76727508D01*
X109135000Y-76792492D01*
X108848955Y-76792492D01*
X108881447Y-76760000D01*
X108881447Y-76759999D01*
X108518338Y-76396890D01*
X108518338Y-76396891D01*
X108502818Y-76421594D01*
X108450485Y-76467887D01*
X108381432Y-76478538D01*
X108317582Y-76450166D01*
X108279890Y-76393944D01*
X108227179Y-76231715D01*
X108132533Y-76067783D01*
X108110523Y-76043338D01*
X108871890Y-76043338D01*
X109235000Y-76406446D01*
X109548955Y-76092492D01*
X109835000Y-76092492D01*
X109873197Y-76145065D01*
X109919162Y-76160000D01*
X109950838Y-76160000D01*
X109996803Y-76145065D01*
X110035000Y-76092492D01*
X110035000Y-76060000D01*
X110288553Y-76060000D01*
X110635000Y-76406446D01*
X110635001Y-76406446D01*
X110948954Y-76092492D01*
X111235000Y-76092492D01*
X111273197Y-76145065D01*
X111319162Y-76160000D01*
X111350838Y-76160000D01*
X111396803Y-76145065D01*
X111435000Y-76092492D01*
X111435000Y-76027508D01*
X111396803Y-75974935D01*
X111350838Y-75960000D01*
X111319162Y-75960000D01*
X111273197Y-75974935D01*
X111235000Y-76027508D01*
X111235000Y-76092492D01*
X110948954Y-76092492D01*
X110981446Y-76060000D01*
X110981446Y-76059999D01*
X110635001Y-75713553D01*
X110635000Y-75713553D01*
X110288553Y-76059999D01*
X110288553Y-76060000D01*
X110035000Y-76060000D01*
X110035000Y-76027508D01*
X109996803Y-75974935D01*
X109950838Y-75960000D01*
X109919162Y-75960000D01*
X109873197Y-75974935D01*
X109835000Y-76027508D01*
X109835000Y-76092492D01*
X109548955Y-76092492D01*
X109581447Y-76060000D01*
X109581446Y-76059999D01*
X109218338Y-75696890D01*
X109218338Y-75696891D01*
X109209664Y-75710696D01*
X109145509Y-75894044D01*
X109141088Y-75892497D01*
X109124372Y-75931983D01*
X109068833Y-75969906D01*
X109069044Y-75970509D01*
X109066802Y-75971293D01*
X109066671Y-75971383D01*
X109066341Y-75971454D01*
X108885696Y-76034664D01*
X108871891Y-76043338D01*
X108871890Y-76043338D01*
X108110523Y-76043338D01*
X108005870Y-75927110D01*
X107852730Y-75815848D01*
X107679802Y-75738855D01*
X107494648Y-75699500D01*
X107494646Y-75699500D01*
X107305354Y-75699500D01*
X107305352Y-75699500D01*
X107120197Y-75738855D01*
X106947269Y-75815848D01*
X106794129Y-75927110D01*
X106667466Y-76067783D01*
X106572820Y-76231715D01*
X106514326Y-76411742D01*
X106494540Y-76599999D01*
X106514326Y-76788257D01*
X106572820Y-76968284D01*
X106632887Y-77072321D01*
X106649500Y-77134321D01*
X106649500Y-80465677D01*
X106632887Y-80527677D01*
X106572820Y-80631715D01*
X106514326Y-80811742D01*
X106494540Y-81000000D01*
X106514326Y-81188257D01*
X106572820Y-81368284D01*
X106667466Y-81532216D01*
X106794129Y-81672889D01*
X106947267Y-81784150D01*
X106966756Y-81792827D01*
X107064209Y-81836216D01*
X107117445Y-81881465D01*
X107137767Y-81948314D01*
X107118722Y-82015538D01*
X107101454Y-82037176D01*
X105114358Y-84024272D01*
X105100727Y-84036053D01*
X105081468Y-84050391D01*
X105049635Y-84088328D01*
X105042338Y-84096292D01*
X105040972Y-84097657D01*
X105040950Y-84097681D01*
X105038409Y-84100223D01*
X105036173Y-84103050D01*
X105036171Y-84103053D01*
X105019176Y-84124546D01*
X105016902Y-84127337D01*
X104967894Y-84185744D01*
X104957418Y-84202187D01*
X104925192Y-84271294D01*
X104923622Y-84274536D01*
X104889393Y-84342692D01*
X104882996Y-84361098D01*
X104867574Y-84435787D01*
X104866794Y-84439306D01*
X104849210Y-84513499D01*
X104847229Y-84532889D01*
X104849448Y-84609129D01*
X104849500Y-84612735D01*
X104849500Y-84975500D01*
X104829815Y-85042539D01*
X104777011Y-85088294D01*
X104725500Y-85099500D01*
X104639854Y-85099500D01*
X104454699Y-85138855D01*
X104281771Y-85215848D01*
X104128631Y-85327110D01*
X104001968Y-85467784D01*
X103953908Y-85551027D01*
X103903341Y-85599243D01*
X103834734Y-85612466D01*
X103796086Y-85602307D01*
X103664800Y-85543854D01*
X103479648Y-85504500D01*
X103479646Y-85504500D01*
X103290354Y-85504500D01*
X103277321Y-85504500D01*
X103277321Y-85500640D01*
X103230589Y-85497064D01*
X103174865Y-85454915D01*
X103150773Y-85389330D01*
X103150500Y-85381099D01*
X103150500Y-85212228D01*
X103170185Y-85145189D01*
X103186815Y-85124551D01*
X103537770Y-84773595D01*
X103599091Y-84740112D01*
X103599464Y-84740031D01*
X103664803Y-84726144D01*
X103664804Y-84726143D01*
X103664806Y-84726143D01*
X103837730Y-84649151D01*
X103990870Y-84537889D01*
X104003985Y-84523324D01*
X104117533Y-84397216D01*
X104212179Y-84233284D01*
X104270674Y-84053256D01*
X104290460Y-83865000D01*
X104270674Y-83676744D01*
X104212179Y-83496716D01*
X104212179Y-83496715D01*
X104117535Y-83332787D01*
X104117534Y-83332786D01*
X104117533Y-83332784D01*
X104099694Y-83312972D01*
X104069465Y-83249982D01*
X104078089Y-83180647D01*
X104099692Y-83147029D01*
X104117533Y-83127216D01*
X104212179Y-82963284D01*
X104270674Y-82783256D01*
X104290460Y-82595000D01*
X104270674Y-82406744D01*
X104212179Y-82226716D01*
X104212179Y-82226715D01*
X104117533Y-82062783D01*
X104099694Y-82042971D01*
X104069464Y-81979979D01*
X104078089Y-81910644D01*
X104099695Y-81877026D01*
X104117533Y-81857216D01*
X104212179Y-81693284D01*
X104270674Y-81513256D01*
X104290460Y-81325000D01*
X104270674Y-81136744D01*
X104227193Y-81002924D01*
X104212179Y-80956715D01*
X104117533Y-80792783D01*
X103990870Y-80652110D01*
X103837730Y-80540848D01*
X103664802Y-80463855D01*
X103479648Y-80424500D01*
X103479646Y-80424500D01*
X103290354Y-80424500D01*
X103290352Y-80424500D01*
X103105197Y-80463855D01*
X102932271Y-80540847D01*
X102918550Y-80550817D01*
X102852744Y-80574298D01*
X102845663Y-80574500D01*
X102538706Y-80574500D01*
X102520736Y-80573191D01*
X102506853Y-80571157D01*
X102496977Y-80569711D01*
X102496976Y-80569711D01*
X102447634Y-80574028D01*
X102436827Y-80574500D01*
X102431291Y-80574500D01*
X102427717Y-80574917D01*
X102427711Y-80574918D01*
X102400487Y-80578099D01*
X102396906Y-80578465D01*
X102320952Y-80585111D01*
X102301923Y-80589329D01*
X102230271Y-80615408D01*
X102226868Y-80616591D01*
X102154479Y-80640579D01*
X102136927Y-80649076D01*
X102073228Y-80690970D01*
X102070190Y-80692905D01*
X102005281Y-80732943D01*
X101990164Y-80745256D01*
X101937848Y-80800708D01*
X101935336Y-80803294D01*
X99984444Y-82754186D01*
X99923121Y-82787671D01*
X99853429Y-82782687D01*
X99809082Y-82754186D01*
X99671401Y-82616505D01*
X99640689Y-82595000D01*
X99485839Y-82486573D01*
X99442216Y-82431998D01*
X99435022Y-82362500D01*
X99466545Y-82300145D01*
X99485837Y-82283428D01*
X99671401Y-82153495D01*
X99838495Y-81986401D01*
X99974035Y-81792830D01*
X100073903Y-81578663D01*
X100135063Y-81350408D01*
X100155659Y-81115000D01*
X100135063Y-80879592D01*
X100073903Y-80651337D01*
X99974035Y-80437171D01*
X99838495Y-80243599D01*
X99716569Y-80121672D01*
X99683084Y-80060350D01*
X99688068Y-79990658D01*
X99729940Y-79934725D01*
X99760915Y-79917810D01*
X99892331Y-79868796D01*
X100007546Y-79782546D01*
X100093796Y-79667331D01*
X100144091Y-79532483D01*
X100150500Y-79472873D01*
X100150499Y-77677128D01*
X100144091Y-77617517D01*
X100093796Y-77482669D01*
X100007546Y-77367454D01*
X99892331Y-77281204D01*
X99757483Y-77230909D01*
X99697873Y-77224500D01*
X99694550Y-77224500D01*
X97905439Y-77224500D01*
X97905420Y-77224500D01*
X97902128Y-77224501D01*
X97898848Y-77224853D01*
X97898840Y-77224854D01*
X97842515Y-77230909D01*
X97707669Y-77281204D01*
X97592454Y-77367454D01*
X97506204Y-77482668D01*
X97455910Y-77617515D01*
X97455909Y-77617517D01*
X97449500Y-77677127D01*
X97449500Y-77680448D01*
X97449500Y-77680449D01*
X97449500Y-79469560D01*
X97449500Y-79469578D01*
X97449501Y-79472872D01*
X97449853Y-79476152D01*
X97449854Y-79476159D01*
X97455909Y-79532484D01*
X97481056Y-79599906D01*
X97506204Y-79667331D01*
X97592454Y-79782546D01*
X97707669Y-79868796D01*
X97819907Y-79910658D01*
X97839082Y-79917810D01*
X97895016Y-79959681D01*
X97919433Y-80025146D01*
X97904581Y-80093419D01*
X97883431Y-80121673D01*
X97761503Y-80243601D01*
X97625965Y-80437170D01*
X97526097Y-80651336D01*
X97464936Y-80879592D01*
X97444340Y-81114999D01*
X97464936Y-81350407D01*
X97508571Y-81513256D01*
X97526097Y-81578663D01*
X97625965Y-81792830D01*
X97761505Y-81986401D01*
X97928599Y-82153495D01*
X98114160Y-82283426D01*
X98157783Y-82338002D01*
X98164976Y-82407501D01*
X98133454Y-82469855D01*
X98114158Y-82486575D01*
X97935399Y-82611744D01*
X97928595Y-82616508D01*
X97761505Y-82783598D01*
X97625965Y-82977170D01*
X97526097Y-83191336D01*
X97464936Y-83419592D01*
X97444340Y-83654999D01*
X97464936Y-83890407D01*
X97507804Y-84050391D01*
X97526097Y-84118663D01*
X97625965Y-84332830D01*
X97761505Y-84526401D01*
X97928599Y-84693495D01*
X98114160Y-84823426D01*
X98157783Y-84878002D01*
X98164976Y-84947501D01*
X98133454Y-85009855D01*
X98114158Y-85026575D01*
X97953805Y-85138856D01*
X97928595Y-85156508D01*
X97761505Y-85323598D01*
X97625965Y-85517170D01*
X97526097Y-85731336D01*
X97464936Y-85959592D01*
X97444340Y-86195000D01*
X97464936Y-86430407D01*
X97509709Y-86597501D01*
X97526097Y-86658663D01*
X97625965Y-86872830D01*
X97761505Y-87066401D01*
X97928599Y-87233495D01*
X98114160Y-87363426D01*
X98157783Y-87418002D01*
X98164976Y-87487501D01*
X98133454Y-87549855D01*
X98114159Y-87566575D01*
X97928595Y-87696508D01*
X97761505Y-87863598D01*
X97625965Y-88057170D01*
X97526097Y-88271336D01*
X97464936Y-88499592D01*
X97444340Y-88735000D01*
X97464936Y-88970407D01*
X97486639Y-89051402D01*
X97526097Y-89198663D01*
X97625965Y-89412830D01*
X97761505Y-89606401D01*
X97928599Y-89773495D01*
X98114160Y-89903426D01*
X98157783Y-89958002D01*
X98164976Y-90027501D01*
X98133454Y-90089855D01*
X98114158Y-90106575D01*
X97958101Y-90215848D01*
X97928595Y-90236508D01*
X97761505Y-90403598D01*
X97625965Y-90597170D01*
X97526097Y-90811336D01*
X97464936Y-91039592D01*
X97444340Y-91275000D01*
X97464936Y-91510407D01*
X97498841Y-91636942D01*
X97526097Y-91738663D01*
X97625965Y-91952830D01*
X97761505Y-92146401D01*
X97928599Y-92313495D01*
X98114160Y-92443426D01*
X98157783Y-92498002D01*
X98164976Y-92567501D01*
X98133454Y-92629855D01*
X98114159Y-92646575D01*
X97928595Y-92776508D01*
X97761505Y-92943598D01*
X97625965Y-93137170D01*
X97526097Y-93351336D01*
X97464936Y-93579592D01*
X97444340Y-93814999D01*
X97464936Y-94050407D01*
X97498121Y-94174255D01*
X97526097Y-94278663D01*
X97625965Y-94492830D01*
X97761505Y-94686401D01*
X97928599Y-94853495D01*
X98122170Y-94989035D01*
X98336337Y-95088903D01*
X98564592Y-95150063D01*
X98800000Y-95170659D01*
X99035408Y-95150063D01*
X99263663Y-95088903D01*
X99477830Y-94989035D01*
X99671401Y-94853495D01*
X99838495Y-94686401D01*
X99974035Y-94492830D01*
X100073903Y-94278663D01*
X100135063Y-94050408D01*
X100155659Y-93815000D01*
X100137022Y-93601985D01*
X100150788Y-93533486D01*
X100172866Y-93503500D01*
X101437820Y-92238545D01*
X101499141Y-92205062D01*
X101568833Y-92210046D01*
X101624766Y-92251918D01*
X101649183Y-92317382D01*
X101649499Y-92326228D01*
X101649499Y-93757770D01*
X101629814Y-93824809D01*
X101613180Y-93845451D01*
X99125449Y-96333181D01*
X99064126Y-96366666D01*
X99037768Y-96369500D01*
X97905439Y-96369500D01*
X97905420Y-96369500D01*
X97902128Y-96369501D01*
X97898848Y-96369853D01*
X97898840Y-96369854D01*
X97842515Y-96375909D01*
X97707669Y-96426204D01*
X97592454Y-96512454D01*
X97506204Y-96627668D01*
X97456602Y-96760660D01*
X97455909Y-96762517D01*
X97449500Y-96822127D01*
X97449500Y-96825448D01*
X97449500Y-96825449D01*
X97449500Y-98614560D01*
X97449500Y-98614578D01*
X97449501Y-98617872D01*
X97455909Y-98677483D01*
X97506204Y-98812331D01*
X97592454Y-98927546D01*
X97707669Y-99013796D01*
X97819907Y-99055658D01*
X97839082Y-99062810D01*
X97895016Y-99104681D01*
X97919433Y-99170146D01*
X97904581Y-99238419D01*
X97883431Y-99266673D01*
X97761503Y-99388601D01*
X97625965Y-99582170D01*
X97526097Y-99796336D01*
X97464936Y-100024592D01*
X97444340Y-100260000D01*
X97464936Y-100495407D01*
X97509709Y-100662501D01*
X97526097Y-100723663D01*
X97625965Y-100937830D01*
X97761505Y-101131401D01*
X97928599Y-101298495D01*
X98114160Y-101428426D01*
X98157783Y-101483002D01*
X98164976Y-101552501D01*
X98133454Y-101614855D01*
X98114159Y-101631575D01*
X97928595Y-101761508D01*
X97761505Y-101928598D01*
X97625965Y-102122170D01*
X97526097Y-102336336D01*
X97464936Y-102564592D01*
X97444340Y-102799999D01*
X97464936Y-103035407D01*
X97503536Y-103179464D01*
X97526097Y-103263663D01*
X97625965Y-103477830D01*
X97761505Y-103671401D01*
X97928599Y-103838495D01*
X98114160Y-103968426D01*
X98157783Y-104023002D01*
X98164976Y-104092501D01*
X98133454Y-104154855D01*
X98114159Y-104171575D01*
X97928595Y-104301508D01*
X97761505Y-104468598D01*
X97625965Y-104662170D01*
X97526097Y-104876336D01*
X97464936Y-105104592D01*
X97444340Y-105340000D01*
X97464936Y-105575407D01*
X97509709Y-105742501D01*
X97526097Y-105803663D01*
X97625965Y-106017830D01*
X97761505Y-106211401D01*
X97928599Y-106378495D01*
X98114160Y-106508426D01*
X98157783Y-106563002D01*
X98164976Y-106632501D01*
X98133454Y-106694855D01*
X98114159Y-106711575D01*
X97928595Y-106841508D01*
X97761505Y-107008598D01*
X97625965Y-107202170D01*
X97526097Y-107416336D01*
X97464936Y-107644592D01*
X97444340Y-107879999D01*
X97464936Y-108115407D01*
X97479534Y-108169887D01*
X97526097Y-108343663D01*
X97625965Y-108557830D01*
X97761505Y-108751401D01*
X97928599Y-108918495D01*
X98114160Y-109048426D01*
X98157783Y-109103002D01*
X98164976Y-109172501D01*
X98133454Y-109234855D01*
X98114158Y-109251575D01*
X97970930Y-109351865D01*
X97928595Y-109381508D01*
X97761505Y-109548598D01*
X97625965Y-109742170D01*
X97526097Y-109956336D01*
X97464936Y-110184592D01*
X97444340Y-110420000D01*
X97464936Y-110655407D01*
X97482017Y-110719154D01*
X97526097Y-110883663D01*
X97625965Y-111097830D01*
X97761505Y-111291401D01*
X97928599Y-111458495D01*
X98114160Y-111588426D01*
X98157783Y-111643002D01*
X98164976Y-111712501D01*
X98133454Y-111774855D01*
X98114159Y-111791575D01*
X98099026Y-111802171D01*
X97966150Y-111895212D01*
X97928595Y-111921508D01*
X97761505Y-112088598D01*
X97625965Y-112282170D01*
X97526097Y-112496336D01*
X97464936Y-112724592D01*
X97444340Y-112960000D01*
X97464936Y-113195407D01*
X97501554Y-113332065D01*
X97526097Y-113423663D01*
X97625965Y-113637830D01*
X97761505Y-113831401D01*
X97928599Y-113998495D01*
X98122170Y-114134035D01*
X98336337Y-114233903D01*
X98564592Y-114295063D01*
X98800000Y-114315659D01*
X99035408Y-114295063D01*
X99263663Y-114233903D01*
X99477830Y-114134035D01*
X99671401Y-113998495D01*
X99838495Y-113831401D01*
X99974035Y-113637830D01*
X100073903Y-113423663D01*
X100135063Y-113195408D01*
X100155659Y-112960000D01*
X100135063Y-112724592D01*
X100073903Y-112496337D01*
X99974035Y-112282171D01*
X99838495Y-112088599D01*
X99671401Y-111921505D01*
X99485839Y-111791573D01*
X99442215Y-111736997D01*
X99435023Y-111667498D01*
X99466545Y-111605144D01*
X99485831Y-111588432D01*
X99671401Y-111458495D01*
X99838495Y-111291401D01*
X99849979Y-111275000D01*
X102575000Y-111275000D01*
X103550000Y-111275000D01*
X103550000Y-110437500D01*
X103278171Y-110437500D01*
X103271888Y-110437821D01*
X103172304Y-110447993D01*
X103005877Y-110503142D01*
X102856654Y-110595183D01*
X102732683Y-110719154D01*
X102640642Y-110868377D01*
X102585493Y-111034803D01*
X102575319Y-111134390D01*
X102575000Y-111140668D01*
X102575000Y-111275000D01*
X99849979Y-111275000D01*
X99974035Y-111097830D01*
X100073903Y-110883663D01*
X100135063Y-110655408D01*
X100155659Y-110420000D01*
X100137022Y-110206985D01*
X100150788Y-110138486D01*
X100172866Y-110108500D01*
X112085638Y-98195727D01*
X112099256Y-98183957D01*
X112118530Y-98169610D01*
X112150372Y-98131661D01*
X112157686Y-98123681D01*
X112158264Y-98123102D01*
X112161591Y-98119776D01*
X112180853Y-98095413D01*
X112183076Y-98092686D01*
X112231302Y-98035214D01*
X112231303Y-98035211D01*
X112232115Y-98034244D01*
X112242573Y-98017828D01*
X112243107Y-98016680D01*
X112243111Y-98016677D01*
X112274845Y-97948621D01*
X112276371Y-97945470D01*
X112310040Y-97878433D01*
X112310040Y-97878431D01*
X112310609Y-97877299D01*
X112317002Y-97858906D01*
X112332431Y-97784184D01*
X112333212Y-97780660D01*
X112350791Y-97706493D01*
X112352770Y-97687121D01*
X112352733Y-97685858D01*
X112352734Y-97685855D01*
X112350550Y-97610800D01*
X112350500Y-97607331D01*
X112350500Y-95511226D01*
X112370184Y-95444191D01*
X112422988Y-95398436D01*
X112492146Y-95388492D01*
X112555702Y-95417517D01*
X112562180Y-95423549D01*
X114813180Y-97674548D01*
X114846665Y-97735871D01*
X114849499Y-97762229D01*
X114849499Y-100136294D01*
X114848190Y-100154261D01*
X114844710Y-100178019D01*
X114849028Y-100227368D01*
X114849500Y-100238175D01*
X114849500Y-100243709D01*
X114849916Y-100247272D01*
X114849917Y-100247282D01*
X114853098Y-100274496D01*
X114853464Y-100278082D01*
X114860109Y-100354041D01*
X114864329Y-100373071D01*
X114864758Y-100374251D01*
X114864759Y-100374255D01*
X114890413Y-100444742D01*
X114891582Y-100448107D01*
X114915580Y-100520524D01*
X114924075Y-100538072D01*
X114965979Y-100601784D01*
X114967889Y-100604782D01*
X115007253Y-100668599D01*
X115007952Y-100669732D01*
X115022054Y-100687042D01*
X115029092Y-100697740D01*
X115049493Y-100764565D01*
X115049500Y-100765891D01*
X115049500Y-102336294D01*
X115048191Y-102354264D01*
X115044711Y-102378023D01*
X115049028Y-102427368D01*
X115049500Y-102438175D01*
X115049500Y-102443709D01*
X115049916Y-102447272D01*
X115049917Y-102447282D01*
X115053098Y-102474496D01*
X115053464Y-102478082D01*
X115060109Y-102554041D01*
X115064329Y-102573071D01*
X115064758Y-102574251D01*
X115064759Y-102574255D01*
X115090413Y-102644742D01*
X115091582Y-102648107D01*
X115115580Y-102720524D01*
X115124075Y-102738072D01*
X115165979Y-102801784D01*
X115167889Y-102804782D01*
X115207288Y-102868656D01*
X115207952Y-102869732D01*
X115220253Y-102884830D01*
X115221168Y-102885693D01*
X115221170Y-102885696D01*
X115273178Y-102934763D01*
X115275708Y-102937150D01*
X115278295Y-102939663D01*
X118113181Y-105774549D01*
X118146666Y-105835872D01*
X118149500Y-105862230D01*
X118149500Y-108000543D01*
X118129815Y-108067582D01*
X118077011Y-108113337D01*
X118007853Y-108123281D01*
X117999720Y-108121833D01*
X117894649Y-108099500D01*
X117894646Y-108099500D01*
X117870808Y-108099500D01*
X117803769Y-108079815D01*
X117783127Y-108063181D01*
X117445434Y-107725488D01*
X117432091Y-107708833D01*
X117379166Y-107659134D01*
X117376369Y-107656423D01*
X117358789Y-107638843D01*
X117356035Y-107636089D01*
X117352956Y-107633701D01*
X117352951Y-107633696D01*
X117352548Y-107633383D01*
X117343669Y-107625800D01*
X117310392Y-107594551D01*
X117291793Y-107584326D01*
X117275532Y-107573645D01*
X117258764Y-107560638D01*
X117216870Y-107542508D01*
X117206379Y-107537369D01*
X117166367Y-107515372D01*
X117145800Y-107510091D01*
X117127398Y-107503791D01*
X117107924Y-107495364D01*
X117062837Y-107488223D01*
X117051398Y-107485854D01*
X117007178Y-107474500D01*
X117007177Y-107474500D01*
X116985955Y-107474500D01*
X116966551Y-107472972D01*
X116950096Y-107470365D01*
X116886963Y-107440433D01*
X116850035Y-107381120D01*
X116845500Y-107347893D01*
X116845500Y-107236751D01*
X116845500Y-107234306D01*
X116842598Y-107197431D01*
X116796744Y-107039602D01*
X116713081Y-106898135D01*
X116596865Y-106781919D01*
X116577555Y-106770499D01*
X116455397Y-106698255D01*
X116297572Y-106652402D01*
X116263128Y-106649691D01*
X116263114Y-106649690D01*
X116260694Y-106649500D01*
X115829306Y-106649500D01*
X115826886Y-106649690D01*
X115826871Y-106649691D01*
X115792427Y-106652402D01*
X115634602Y-106698255D01*
X115479652Y-106789893D01*
X115478456Y-106787870D01*
X115436358Y-106810858D01*
X115366666Y-106805874D01*
X115340747Y-106789216D01*
X115340348Y-106789893D01*
X115185397Y-106698255D01*
X115027572Y-106652402D01*
X114993128Y-106649691D01*
X114993114Y-106649690D01*
X114990694Y-106649500D01*
X114559306Y-106649500D01*
X114556886Y-106649690D01*
X114556871Y-106649691D01*
X114522427Y-106652402D01*
X114364602Y-106698255D01*
X114209652Y-106789893D01*
X114208456Y-106787870D01*
X114166358Y-106810858D01*
X114096666Y-106805874D01*
X114070747Y-106789216D01*
X114070348Y-106789893D01*
X113915397Y-106698255D01*
X113757572Y-106652402D01*
X113723128Y-106649691D01*
X113723114Y-106649690D01*
X113720694Y-106649500D01*
X113289306Y-106649500D01*
X113286886Y-106649690D01*
X113286871Y-106649691D01*
X113252427Y-106652402D01*
X113094602Y-106698255D01*
X112939652Y-106789893D01*
X112938456Y-106787870D01*
X112896358Y-106810858D01*
X112826666Y-106805874D01*
X112800747Y-106789216D01*
X112800348Y-106789893D01*
X112645397Y-106698255D01*
X112487572Y-106652402D01*
X112453128Y-106649691D01*
X112453114Y-106649690D01*
X112450694Y-106649500D01*
X112019306Y-106649500D01*
X112016886Y-106649690D01*
X112016871Y-106649691D01*
X111982427Y-106652402D01*
X111824602Y-106698255D01*
X111669652Y-106789893D01*
X111668456Y-106787870D01*
X111626358Y-106810858D01*
X111556666Y-106805874D01*
X111530747Y-106789216D01*
X111530348Y-106789893D01*
X111375397Y-106698255D01*
X111217572Y-106652402D01*
X111183128Y-106649691D01*
X111183114Y-106649690D01*
X111180694Y-106649500D01*
X110749306Y-106649500D01*
X110746886Y-106649690D01*
X110746871Y-106649691D01*
X110712427Y-106652402D01*
X110554602Y-106698255D01*
X110399652Y-106789893D01*
X110398456Y-106787870D01*
X110356358Y-106810858D01*
X110286666Y-106805874D01*
X110260747Y-106789216D01*
X110260348Y-106789893D01*
X110105397Y-106698255D01*
X109947572Y-106652402D01*
X109913128Y-106649691D01*
X109913114Y-106649690D01*
X109910694Y-106649500D01*
X109479306Y-106649500D01*
X109476886Y-106649690D01*
X109476871Y-106649691D01*
X109442427Y-106652402D01*
X109284602Y-106698255D01*
X109129652Y-106789893D01*
X109128456Y-106787870D01*
X109086358Y-106810858D01*
X109016666Y-106805874D01*
X108990747Y-106789216D01*
X108990348Y-106789893D01*
X108835397Y-106698255D01*
X108677572Y-106652402D01*
X108643128Y-106649691D01*
X108643114Y-106649690D01*
X108640694Y-106649500D01*
X108209306Y-106649500D01*
X108206886Y-106649690D01*
X108206871Y-106649691D01*
X108172427Y-106652402D01*
X108014602Y-106698255D01*
X107859652Y-106789893D01*
X107858456Y-106787870D01*
X107816358Y-106810858D01*
X107746666Y-106805874D01*
X107720747Y-106789216D01*
X107720348Y-106789893D01*
X107565397Y-106698255D01*
X107407572Y-106652402D01*
X107373128Y-106649691D01*
X107373114Y-106649690D01*
X107370694Y-106649500D01*
X106939306Y-106649500D01*
X106936886Y-106649690D01*
X106936871Y-106649691D01*
X106902427Y-106652402D01*
X106744602Y-106698255D01*
X106603134Y-106781919D01*
X106486919Y-106898134D01*
X106403255Y-107039602D01*
X106357402Y-107197427D01*
X106354691Y-107231871D01*
X106354690Y-107231886D01*
X106354500Y-107234306D01*
X106354500Y-109015694D01*
X106354690Y-109018114D01*
X106354691Y-109018128D01*
X106357402Y-109052572D01*
X106403255Y-109210397D01*
X106427608Y-109251575D01*
X106486919Y-109351865D01*
X106603135Y-109468081D01*
X106711582Y-109532216D01*
X106744602Y-109551744D01*
X106902427Y-109597597D01*
X106902431Y-109597598D01*
X106939306Y-109600500D01*
X106941751Y-109600500D01*
X107368249Y-109600500D01*
X107370694Y-109600500D01*
X107407569Y-109597598D01*
X107565398Y-109551744D01*
X107702357Y-109470747D01*
X107720349Y-109460107D01*
X107721545Y-109462129D01*
X107763633Y-109439144D01*
X107833325Y-109444123D01*
X107859250Y-109460784D01*
X107859651Y-109460107D01*
X108014602Y-109551744D01*
X108172427Y-109597597D01*
X108172431Y-109597598D01*
X108209306Y-109600500D01*
X108211751Y-109600500D01*
X108638249Y-109600500D01*
X108640694Y-109600500D01*
X108677569Y-109597598D01*
X108835398Y-109551744D01*
X108972357Y-109470747D01*
X108990349Y-109460107D01*
X108991545Y-109462129D01*
X109033633Y-109439144D01*
X109103325Y-109444123D01*
X109129250Y-109460784D01*
X109129651Y-109460107D01*
X109284602Y-109551744D01*
X109442427Y-109597597D01*
X109442431Y-109597598D01*
X109479306Y-109600500D01*
X109481751Y-109600500D01*
X109908249Y-109600500D01*
X109910694Y-109600500D01*
X109947569Y-109597598D01*
X110105398Y-109551744D01*
X110242357Y-109470747D01*
X110260349Y-109460107D01*
X110261545Y-109462129D01*
X110303633Y-109439144D01*
X110373325Y-109444123D01*
X110399250Y-109460784D01*
X110399651Y-109460107D01*
X110554602Y-109551744D01*
X110712427Y-109597597D01*
X110712431Y-109597598D01*
X110749306Y-109600500D01*
X110751751Y-109600500D01*
X111178249Y-109600500D01*
X111180694Y-109600500D01*
X111217569Y-109597598D01*
X111375398Y-109551744D01*
X111512357Y-109470747D01*
X111530349Y-109460107D01*
X111531545Y-109462129D01*
X111573633Y-109439144D01*
X111643325Y-109444123D01*
X111669250Y-109460784D01*
X111669651Y-109460107D01*
X111824602Y-109551744D01*
X111982427Y-109597597D01*
X111982431Y-109597598D01*
X112019306Y-109600500D01*
X112021751Y-109600500D01*
X112448249Y-109600500D01*
X112450694Y-109600500D01*
X112487569Y-109597598D01*
X112645398Y-109551744D01*
X112782357Y-109470747D01*
X112800349Y-109460107D01*
X112801545Y-109462129D01*
X112843633Y-109439144D01*
X112913325Y-109444123D01*
X112939250Y-109460784D01*
X112939651Y-109460107D01*
X113094602Y-109551744D01*
X113252427Y-109597597D01*
X113252431Y-109597598D01*
X113289306Y-109600500D01*
X113291751Y-109600500D01*
X113718249Y-109600500D01*
X113720694Y-109600500D01*
X113757569Y-109597598D01*
X113915398Y-109551744D01*
X114052357Y-109470747D01*
X114070349Y-109460107D01*
X114071545Y-109462129D01*
X114113633Y-109439144D01*
X114183325Y-109444123D01*
X114209250Y-109460784D01*
X114209651Y-109460107D01*
X114364602Y-109551744D01*
X114522427Y-109597597D01*
X114522431Y-109597598D01*
X114559306Y-109600500D01*
X114561751Y-109600500D01*
X114988249Y-109600500D01*
X114990694Y-109600500D01*
X115027569Y-109597598D01*
X115185398Y-109551744D01*
X115322357Y-109470747D01*
X115340349Y-109460107D01*
X115341545Y-109462129D01*
X115383633Y-109439144D01*
X115453325Y-109444123D01*
X115479250Y-109460784D01*
X115479651Y-109460107D01*
X115634602Y-109551744D01*
X115792427Y-109597597D01*
X115792431Y-109597598D01*
X115829306Y-109600500D01*
X115831751Y-109600500D01*
X116258249Y-109600500D01*
X116260694Y-109600500D01*
X116297569Y-109597598D01*
X116455398Y-109551744D01*
X116596865Y-109468081D01*
X116713081Y-109351865D01*
X116737478Y-109310610D01*
X116788544Y-109262928D01*
X116857286Y-109250423D01*
X116921875Y-109277068D01*
X116961807Y-109334403D01*
X116962140Y-109335413D01*
X116972821Y-109368285D01*
X117067466Y-109532216D01*
X117194129Y-109672889D01*
X117347269Y-109784151D01*
X117520197Y-109861144D01*
X117705352Y-109900500D01*
X117705354Y-109900500D01*
X117894647Y-109900500D01*
X117944585Y-109889885D01*
X117999719Y-109878166D01*
X118069386Y-109883482D01*
X118125119Y-109925619D01*
X118149225Y-109991198D01*
X118149500Y-109999456D01*
X118149500Y-114996294D01*
X118148191Y-115014264D01*
X118144711Y-115038023D01*
X118146668Y-115060398D01*
X118149028Y-115087368D01*
X118149500Y-115098175D01*
X118149500Y-115103709D01*
X118149916Y-115107272D01*
X118149917Y-115107282D01*
X118153098Y-115134496D01*
X118153464Y-115138082D01*
X118160109Y-115214041D01*
X118164329Y-115233071D01*
X118164758Y-115234251D01*
X118164759Y-115234255D01*
X118190413Y-115304742D01*
X118191582Y-115308107D01*
X118215580Y-115380524D01*
X118224075Y-115398072D01*
X118265979Y-115461784D01*
X118267889Y-115464782D01*
X118307288Y-115528656D01*
X118307952Y-115529732D01*
X118320253Y-115544830D01*
X118321168Y-115545693D01*
X118321170Y-115545696D01*
X118357530Y-115580000D01*
X118375708Y-115597150D01*
X118378295Y-115599663D01*
X119355733Y-116577101D01*
X119389218Y-116638424D01*
X119384234Y-116708116D01*
X119360203Y-116747751D01*
X119288398Y-116827500D01*
X119277694Y-116839388D01*
X119265945Y-116859738D01*
X119249916Y-116887500D01*
X119199351Y-116935715D01*
X119142530Y-116949500D01*
X118320808Y-116949500D01*
X118253769Y-116929815D01*
X118233127Y-116913181D01*
X116081627Y-114761681D01*
X116048142Y-114700358D01*
X116053126Y-114630666D01*
X116094998Y-114574733D01*
X116160462Y-114550316D01*
X116169308Y-114550000D01*
X116258197Y-114550000D01*
X116263076Y-114549808D01*
X116297493Y-114547099D01*
X116455197Y-114501282D01*
X116596557Y-114417682D01*
X116712682Y-114301557D01*
X116796282Y-114160197D01*
X116842099Y-114002493D01*
X116844808Y-113968076D01*
X116845000Y-113963196D01*
X116845000Y-113325000D01*
X115919000Y-113325000D01*
X115851961Y-113305315D01*
X115806206Y-113252511D01*
X115795000Y-113201000D01*
X115795000Y-111602703D01*
X116295000Y-111602703D01*
X116295000Y-112825000D01*
X116845000Y-112825000D01*
X116845000Y-112186803D01*
X116844808Y-112181923D01*
X116842099Y-112147506D01*
X116796282Y-111989802D01*
X116712682Y-111848442D01*
X116596557Y-111732317D01*
X116455200Y-111648719D01*
X116297487Y-111602900D01*
X116295000Y-111602703D01*
X115795000Y-111602703D01*
X115792512Y-111602900D01*
X115634799Y-111648719D01*
X115479961Y-111740291D01*
X115478756Y-111738253D01*
X115436702Y-111761213D01*
X115367010Y-111756223D01*
X115340693Y-111739308D01*
X115340348Y-111739893D01*
X115185397Y-111648255D01*
X115027572Y-111602402D01*
X114993128Y-111599691D01*
X114993114Y-111599690D01*
X114990694Y-111599500D01*
X114559306Y-111599500D01*
X114556886Y-111599690D01*
X114556871Y-111599691D01*
X114522427Y-111602402D01*
X114364602Y-111648255D01*
X114209652Y-111739893D01*
X114208456Y-111737870D01*
X114166358Y-111760858D01*
X114096666Y-111755874D01*
X114070747Y-111739216D01*
X114070348Y-111739893D01*
X113915397Y-111648255D01*
X113757572Y-111602402D01*
X113723128Y-111599691D01*
X113723114Y-111599690D01*
X113720694Y-111599500D01*
X113289306Y-111599500D01*
X113286886Y-111599690D01*
X113286871Y-111599691D01*
X113252427Y-111602402D01*
X113094600Y-111648255D01*
X113015370Y-111695112D01*
X112947646Y-111712295D01*
X112881384Y-111690135D01*
X112847031Y-111647380D01*
X112844719Y-111648748D01*
X112836744Y-111635263D01*
X112825937Y-111616990D01*
X112817382Y-111599527D01*
X112809568Y-111579790D01*
X112782733Y-111542854D01*
X112776325Y-111533097D01*
X112753084Y-111493799D01*
X112753081Y-111493796D01*
X112738068Y-111478783D01*
X112725435Y-111463991D01*
X112712963Y-111446824D01*
X112677779Y-111417717D01*
X112669140Y-111409855D01*
X111859773Y-110600488D01*
X111846430Y-110583833D01*
X111793505Y-110534134D01*
X111790708Y-110531423D01*
X111773128Y-110513843D01*
X111770374Y-110511089D01*
X111767295Y-110508701D01*
X111767290Y-110508696D01*
X111766887Y-110508383D01*
X111758008Y-110500800D01*
X111724731Y-110469551D01*
X111706132Y-110459326D01*
X111689871Y-110448645D01*
X111673103Y-110435638D01*
X111649516Y-110425431D01*
X111631208Y-110417508D01*
X111620718Y-110412369D01*
X111580706Y-110390372D01*
X111560139Y-110385091D01*
X111541737Y-110378791D01*
X111522263Y-110370364D01*
X111477176Y-110363223D01*
X111465737Y-110360854D01*
X111421517Y-110349500D01*
X111421516Y-110349500D01*
X111400294Y-110349500D01*
X111380895Y-110347973D01*
X111359935Y-110344653D01*
X111359934Y-110344653D01*
X111337897Y-110346736D01*
X111314478Y-110348950D01*
X111302809Y-110349500D01*
X107285504Y-110349500D01*
X107264294Y-110347158D01*
X107191737Y-110349439D01*
X107187842Y-110349500D01*
X107159075Y-110349500D01*
X107155213Y-110349987D01*
X107155192Y-110349989D01*
X107154681Y-110350054D01*
X107143059Y-110350968D01*
X107097430Y-110352402D01*
X107077051Y-110358323D01*
X107058007Y-110362267D01*
X107043639Y-110364082D01*
X107036941Y-110364929D01*
X106994490Y-110381736D01*
X106983443Y-110385518D01*
X106939598Y-110398256D01*
X106921330Y-110409060D01*
X106903864Y-110417617D01*
X106884129Y-110425431D01*
X106847202Y-110452260D01*
X106837442Y-110458671D01*
X106798136Y-110481917D01*
X106783125Y-110496928D01*
X106768336Y-110509558D01*
X106751164Y-110522034D01*
X106722057Y-110557218D01*
X106714196Y-110565856D01*
X105766873Y-111513181D01*
X105705550Y-111546666D01*
X105679192Y-111549500D01*
X105285505Y-111549500D01*
X105264295Y-111547158D01*
X105191738Y-111549439D01*
X105187843Y-111549500D01*
X105159075Y-111549500D01*
X105156495Y-111549825D01*
X105088632Y-111534446D01*
X105039656Y-111484615D01*
X105024999Y-111426133D01*
X105024998Y-111140670D01*
X105024678Y-111134388D01*
X105014506Y-111034804D01*
X104959357Y-110868377D01*
X104867316Y-110719154D01*
X104743345Y-110595183D01*
X104594122Y-110503142D01*
X104427696Y-110447993D01*
X104328109Y-110437819D01*
X104321832Y-110437500D01*
X104050000Y-110437500D01*
X104050000Y-111651000D01*
X104030315Y-111718039D01*
X103977511Y-111763794D01*
X103926000Y-111775000D01*
X102575001Y-111775000D01*
X102575001Y-111909329D01*
X102575321Y-111915611D01*
X102585493Y-112015195D01*
X102640642Y-112181622D01*
X102732683Y-112330845D01*
X102856654Y-112454816D01*
X102859656Y-112456668D01*
X102906380Y-112508617D01*
X102917601Y-112577579D01*
X102889757Y-112641661D01*
X102859659Y-112667742D01*
X102856344Y-112669786D01*
X102732288Y-112793842D01*
X102640186Y-112943165D01*
X102585000Y-113109702D01*
X102574819Y-113209358D01*
X102574817Y-113209378D01*
X102574500Y-113212491D01*
X102574500Y-113215638D01*
X102574500Y-113215639D01*
X102574500Y-113984358D01*
X102574500Y-113984377D01*
X102574501Y-113987508D01*
X102574820Y-113990640D01*
X102574821Y-113990641D01*
X102585000Y-114090296D01*
X102640186Y-114256834D01*
X102732288Y-114406157D01*
X102856342Y-114530211D01*
X102888925Y-114550308D01*
X103005666Y-114622314D01*
X103117016Y-114659212D01*
X103172202Y-114677499D01*
X103271858Y-114687680D01*
X103271859Y-114687680D01*
X103274991Y-114688000D01*
X104325008Y-114687999D01*
X104427797Y-114677499D01*
X104594334Y-114622314D01*
X104743656Y-114530212D01*
X104867712Y-114406156D01*
X104959814Y-114256834D01*
X105014999Y-114090297D01*
X105025500Y-113987509D01*
X105025499Y-113345807D01*
X105045183Y-113278769D01*
X105061818Y-113258127D01*
X105433127Y-112886819D01*
X105494450Y-112853334D01*
X105520808Y-112850500D01*
X105914495Y-112850500D01*
X105935704Y-112852841D01*
X105938294Y-112852759D01*
X105938296Y-112852760D01*
X106008262Y-112850560D01*
X106012157Y-112850500D01*
X106037025Y-112850500D01*
X106040925Y-112850500D01*
X106045294Y-112849947D01*
X106056939Y-112849030D01*
X106102569Y-112847597D01*
X106122949Y-112841675D01*
X106141989Y-112837732D01*
X106163058Y-112835071D01*
X106184852Y-112826441D01*
X106254428Y-112820063D01*
X106316409Y-112852314D01*
X106351114Y-112912955D01*
X106354500Y-112941733D01*
X106354500Y-113965694D01*
X106354690Y-113968114D01*
X106354691Y-113968128D01*
X106357402Y-114002572D01*
X106403255Y-114160397D01*
X106460288Y-114256834D01*
X106486919Y-114301865D01*
X106603135Y-114418081D01*
X106731032Y-114493719D01*
X106744602Y-114501744D01*
X106902427Y-114547597D01*
X106902431Y-114547598D01*
X106939306Y-114550500D01*
X106941751Y-114550500D01*
X107368249Y-114550500D01*
X107370694Y-114550500D01*
X107407569Y-114547598D01*
X107565398Y-114501744D01*
X107659543Y-114446066D01*
X107720349Y-114410107D01*
X107721545Y-114412129D01*
X107763633Y-114389144D01*
X107833325Y-114394123D01*
X107859250Y-114410784D01*
X107859651Y-114410107D01*
X108014602Y-114501744D01*
X108172427Y-114547597D01*
X108172431Y-114547598D01*
X108209306Y-114550500D01*
X108211751Y-114550500D01*
X108638249Y-114550500D01*
X108640694Y-114550500D01*
X108677569Y-114547598D01*
X108835398Y-114501744D01*
X108857377Y-114488745D01*
X108925099Y-114471561D01*
X108991362Y-114493719D01*
X109035126Y-114548184D01*
X109044499Y-114595476D01*
X109044500Y-115609494D01*
X109042158Y-115630702D01*
X109044439Y-115703262D01*
X109044500Y-115707157D01*
X109044500Y-115735925D01*
X109044987Y-115739785D01*
X109044989Y-115739808D01*
X109045054Y-115740320D01*
X109045968Y-115751942D01*
X109047402Y-115797569D01*
X109053323Y-115817950D01*
X109057267Y-115836995D01*
X109059928Y-115858059D01*
X109076737Y-115900515D01*
X109080520Y-115911563D01*
X109093256Y-115955400D01*
X109104061Y-115973670D01*
X109112621Y-115991143D01*
X109120431Y-116010869D01*
X109147267Y-116047808D01*
X109153673Y-116057560D01*
X109176919Y-116096865D01*
X109176920Y-116096867D01*
X109176921Y-116096867D01*
X109191925Y-116111871D01*
X109204562Y-116126667D01*
X109208594Y-116132216D01*
X109217037Y-116143837D01*
X109252212Y-116172936D01*
X109260854Y-116180800D01*
X110230252Y-117150198D01*
X110243599Y-117166857D01*
X110296520Y-117216552D01*
X110299317Y-117219263D01*
X110319653Y-117239599D01*
X110322724Y-117241981D01*
X110323125Y-117242292D01*
X110332011Y-117249880D01*
X110365295Y-117281136D01*
X110375939Y-117286987D01*
X110383892Y-117291360D01*
X110400152Y-117302040D01*
X110416924Y-117315050D01*
X110458828Y-117333183D01*
X110469308Y-117338317D01*
X110509320Y-117360315D01*
X110529883Y-117365594D01*
X110548286Y-117371895D01*
X110567761Y-117380323D01*
X110612863Y-117387466D01*
X110624258Y-117389825D01*
X110668511Y-117401188D01*
X110689739Y-117401188D01*
X110709137Y-117402714D01*
X110730093Y-117406034D01*
X110775539Y-117401738D01*
X110787209Y-117401188D01*
X111011991Y-117401188D01*
X111079030Y-117420873D01*
X111119378Y-117463188D01*
X111216966Y-117632215D01*
X111343629Y-117772889D01*
X111496769Y-117884151D01*
X111669697Y-117961144D01*
X111854852Y-118000500D01*
X111854854Y-118000500D01*
X112044148Y-118000500D01*
X112167583Y-117974262D01*
X112229303Y-117961144D01*
X112402230Y-117884151D01*
X112555371Y-117772888D01*
X112682033Y-117632216D01*
X112776679Y-117468284D01*
X112835174Y-117288256D01*
X112854960Y-117100000D01*
X112835174Y-116911744D01*
X112782108Y-116748425D01*
X112776679Y-116731715D01*
X112682033Y-116567783D01*
X112555370Y-116427111D01*
X112509820Y-116394017D01*
X112467154Y-116338688D01*
X112461175Y-116269074D01*
X112464768Y-116255402D01*
X112486362Y-116188944D01*
X112506148Y-116000688D01*
X112486362Y-115812432D01*
X112439475Y-115668130D01*
X112427867Y-115632403D01*
X112333221Y-115468471D01*
X112281123Y-115410611D01*
X112250893Y-115347620D01*
X112249335Y-115331541D01*
X112248285Y-115298119D01*
X112242363Y-115277736D01*
X112238420Y-115258699D01*
X112235759Y-115237630D01*
X112218952Y-115195180D01*
X112215171Y-115184136D01*
X112202433Y-115140292D01*
X112202432Y-115140291D01*
X112202432Y-115140289D01*
X112191622Y-115122010D01*
X112183068Y-115104550D01*
X112175256Y-115084817D01*
X112148411Y-115047868D01*
X112142020Y-115038139D01*
X112118769Y-114998823D01*
X112103756Y-114983810D01*
X112091123Y-114969018D01*
X112078651Y-114951851D01*
X112043467Y-114922744D01*
X112034828Y-114914882D01*
X111878315Y-114758369D01*
X111844830Y-114697046D01*
X111849814Y-114627354D01*
X111891686Y-114571421D01*
X111957150Y-114547004D01*
X111975725Y-114547070D01*
X111982429Y-114547597D01*
X111982431Y-114547598D01*
X112019306Y-114550500D01*
X112021751Y-114550500D01*
X112448249Y-114550500D01*
X112450694Y-114550500D01*
X112487569Y-114547598D01*
X112645398Y-114501744D01*
X112667379Y-114488744D01*
X112735101Y-114471561D01*
X112801364Y-114493720D01*
X112845128Y-114548185D01*
X112854500Y-114595477D01*
X112854499Y-114819495D01*
X112852158Y-114840701D01*
X112854439Y-114913262D01*
X112854500Y-114917157D01*
X112854500Y-114945925D01*
X112854987Y-114949785D01*
X112854989Y-114949808D01*
X112855054Y-114950320D01*
X112855968Y-114961942D01*
X112857402Y-115007569D01*
X112863323Y-115027950D01*
X112867267Y-115046995D01*
X112869928Y-115068059D01*
X112886737Y-115110515D01*
X112890520Y-115121563D01*
X112903256Y-115165400D01*
X112914061Y-115183670D01*
X112922621Y-115201143D01*
X112930432Y-115220871D01*
X112939296Y-115233071D01*
X112957267Y-115257808D01*
X112963673Y-115267560D01*
X112986919Y-115306865D01*
X112986921Y-115306867D01*
X113001925Y-115321871D01*
X113014564Y-115336669D01*
X113027037Y-115353837D01*
X113062212Y-115382936D01*
X113070854Y-115390800D01*
X114976115Y-117296061D01*
X116879564Y-119199509D01*
X116892909Y-119216167D01*
X116945848Y-119265879D01*
X116948645Y-119268590D01*
X116968966Y-119288911D01*
X116972442Y-119291607D01*
X116981322Y-119299191D01*
X117014607Y-119330448D01*
X117033212Y-119340676D01*
X117049466Y-119351353D01*
X117066237Y-119364363D01*
X117108144Y-119382497D01*
X117118618Y-119387628D01*
X117158632Y-119409627D01*
X117179197Y-119414906D01*
X117197593Y-119421205D01*
X117217074Y-119429636D01*
X117262178Y-119436779D01*
X117273597Y-119439144D01*
X117317823Y-119450500D01*
X117339045Y-119450500D01*
X117358443Y-119452026D01*
X117379405Y-119455347D01*
X117421319Y-119451384D01*
X117424861Y-119451050D01*
X117436530Y-119450500D01*
X120804605Y-119450500D01*
X120859076Y-119466494D01*
X120859864Y-119464725D01*
X121044697Y-119547019D01*
X121229852Y-119586375D01*
X121229854Y-119586375D01*
X121419148Y-119586375D01*
X121542583Y-119560137D01*
X121604303Y-119547019D01*
X121777230Y-119470026D01*
X121930371Y-119358763D01*
X121941023Y-119346932D01*
X122000504Y-119310284D01*
X122070361Y-119311611D01*
X122120854Y-119342222D01*
X123127130Y-120348498D01*
X123160615Y-120409821D01*
X123162977Y-120446986D01*
X123144340Y-120659999D01*
X123164936Y-120895407D01*
X123206359Y-121050000D01*
X123226097Y-121123663D01*
X123325965Y-121337830D01*
X123461505Y-121531401D01*
X123628599Y-121698495D01*
X123822170Y-121834035D01*
X124036337Y-121933903D01*
X124264592Y-121995062D01*
X124264592Y-121995063D01*
X124499999Y-122015659D01*
X124499999Y-122015658D01*
X124500000Y-122015659D01*
X124735408Y-121995063D01*
X124963663Y-121933903D01*
X125177830Y-121834035D01*
X125371401Y-121698495D01*
X125538495Y-121531401D01*
X125674035Y-121337830D01*
X125773903Y-121123663D01*
X125835063Y-120895408D01*
X125855659Y-120660000D01*
X125835063Y-120424592D01*
X125773903Y-120196337D01*
X125674035Y-119982171D01*
X125538495Y-119788599D01*
X125371401Y-119621505D01*
X125185839Y-119491573D01*
X125142217Y-119436998D01*
X125135024Y-119367499D01*
X125166546Y-119305145D01*
X125185837Y-119288428D01*
X125371401Y-119158495D01*
X125538495Y-118991401D01*
X125674035Y-118797830D01*
X125773903Y-118583663D01*
X125835063Y-118355408D01*
X125855659Y-118120000D01*
X125835063Y-117884592D01*
X125773903Y-117656337D01*
X125674035Y-117442171D01*
X125538495Y-117248599D01*
X125371401Y-117081505D01*
X125185839Y-116951573D01*
X125142216Y-116896998D01*
X125135022Y-116827500D01*
X125166545Y-116765145D01*
X125185837Y-116748428D01*
X125371401Y-116618495D01*
X125538495Y-116451401D01*
X125674035Y-116257830D01*
X125773903Y-116043663D01*
X125835063Y-115815408D01*
X125855659Y-115580000D01*
X125835063Y-115344592D01*
X125773903Y-115116337D01*
X125674035Y-114902171D01*
X125628174Y-114836674D01*
X125605849Y-114770473D01*
X125622859Y-114702705D01*
X125642066Y-114677878D01*
X126599513Y-113720431D01*
X126616162Y-113707094D01*
X126617936Y-113705204D01*
X126617940Y-113705202D01*
X126665897Y-113654131D01*
X126668515Y-113651429D01*
X126688911Y-113631035D01*
X126691610Y-113627554D01*
X126699184Y-113618685D01*
X126730448Y-113585393D01*
X126740675Y-113566787D01*
X126751348Y-113550539D01*
X126764362Y-113533764D01*
X126764362Y-113533762D01*
X126773967Y-113521382D01*
X126775884Y-113522869D01*
X126806384Y-113486213D01*
X126873016Y-113465190D01*
X126940436Y-113483528D01*
X126987240Y-113535404D01*
X126999500Y-113589165D01*
X126999500Y-122875500D01*
X126979815Y-122942539D01*
X126927011Y-122988294D01*
X126875500Y-122999500D01*
X96624500Y-122999500D01*
X96557461Y-122979815D01*
X96511706Y-122927011D01*
X96500500Y-122875500D01*
X96500500Y-121694518D01*
X97250000Y-121694518D01*
X97250354Y-121701132D01*
X97256400Y-121757371D01*
X97306647Y-121892089D01*
X97392811Y-122007188D01*
X97507910Y-122093352D01*
X97642628Y-122143599D01*
X97698867Y-122149645D01*
X97705482Y-122150000D01*
X98350000Y-122150000D01*
X98350000Y-121235501D01*
X98457685Y-121284680D01*
X98564237Y-121300000D01*
X98635763Y-121300000D01*
X98742315Y-121284680D01*
X98850000Y-121235501D01*
X98850000Y-122150000D01*
X99494518Y-122150000D01*
X99501132Y-122149645D01*
X99557371Y-122143599D01*
X99692089Y-122093352D01*
X99807188Y-122007188D01*
X99893352Y-121892089D01*
X99943599Y-121757371D01*
X99949645Y-121701132D01*
X99950000Y-121694518D01*
X99950000Y-121050000D01*
X99033686Y-121050000D01*
X99059493Y-121009844D01*
X99100000Y-120871889D01*
X99100000Y-120728111D01*
X99059493Y-120590156D01*
X99033686Y-120550000D01*
X99949999Y-120550000D01*
X99950000Y-119905481D01*
X99949645Y-119898867D01*
X99943599Y-119842628D01*
X99893352Y-119707910D01*
X99807188Y-119592811D01*
X99692089Y-119506647D01*
X99557371Y-119456400D01*
X99501132Y-119450354D01*
X99494518Y-119450000D01*
X98850000Y-119450000D01*
X98850000Y-120364498D01*
X98742315Y-120315320D01*
X98635763Y-120300000D01*
X98564237Y-120300000D01*
X98457685Y-120315320D01*
X98350000Y-120364498D01*
X98350000Y-119450000D01*
X97705482Y-119450000D01*
X97698867Y-119450354D01*
X97642628Y-119456400D01*
X97507910Y-119506647D01*
X97392811Y-119592811D01*
X97306647Y-119707910D01*
X97256400Y-119842628D01*
X97250354Y-119898867D01*
X97250000Y-119905481D01*
X97250000Y-120550000D01*
X98166314Y-120550000D01*
X98140507Y-120590156D01*
X98100000Y-120728111D01*
X98100000Y-120871889D01*
X98140507Y-121009844D01*
X98166314Y-121050000D01*
X97250000Y-121050000D01*
X97250000Y-121694518D01*
X96500500Y-121694518D01*
X96500500Y-117894578D01*
X97249500Y-117894578D01*
X97249501Y-117897872D01*
X97249853Y-117901152D01*
X97249854Y-117901159D01*
X97255909Y-117957484D01*
X97271953Y-118000500D01*
X97306204Y-118092331D01*
X97392454Y-118207546D01*
X97507669Y-118293796D01*
X97642517Y-118344091D01*
X97702127Y-118350500D01*
X99497872Y-118350499D01*
X99557483Y-118344091D01*
X99692331Y-118293796D01*
X99807546Y-118207546D01*
X99893796Y-118092331D01*
X99944091Y-117957483D01*
X99950500Y-117897873D01*
X99950499Y-116102128D01*
X99944091Y-116042517D01*
X99893796Y-115907669D01*
X99807546Y-115792454D01*
X99692331Y-115706204D01*
X99557483Y-115655909D01*
X99497873Y-115649500D01*
X99494550Y-115649500D01*
X97705439Y-115649500D01*
X97705420Y-115649500D01*
X97702128Y-115649501D01*
X97698848Y-115649853D01*
X97698840Y-115649854D01*
X97642515Y-115655909D01*
X97507669Y-115706204D01*
X97392454Y-115792454D01*
X97306204Y-115907668D01*
X97255909Y-116042516D01*
X97250066Y-116096867D01*
X97249500Y-116102127D01*
X97249500Y-116105448D01*
X97249500Y-116105449D01*
X97249500Y-117894560D01*
X97249500Y-117894578D01*
X96500500Y-117894578D01*
X96500500Y-75343338D01*
X109571890Y-75343338D01*
X109935000Y-75706447D01*
X109935001Y-75706447D01*
X110298108Y-75343338D01*
X110971890Y-75343338D01*
X111335000Y-75706447D01*
X111335001Y-75706447D01*
X111698108Y-75343338D01*
X111684304Y-75334665D01*
X111514140Y-75275122D01*
X111335000Y-75254937D01*
X111155859Y-75275122D01*
X110985696Y-75334664D01*
X110971891Y-75343338D01*
X110971890Y-75343338D01*
X110298108Y-75343338D01*
X110284304Y-75334665D01*
X110114140Y-75275122D01*
X109935000Y-75254937D01*
X109755859Y-75275122D01*
X109585696Y-75334664D01*
X109571891Y-75343338D01*
X109571890Y-75343338D01*
X96500500Y-75343338D01*
X96500500Y-67124500D01*
X96520185Y-67057461D01*
X96572989Y-67011706D01*
X96624500Y-67000500D01*
X126875500Y-67000500D01*
X126942539Y-67020185D01*
G37*
%TD.AperFunction*%
%TA.AperFunction,Conductor*%
G36*
X106560381Y-84803499D02*
G01*
X106616314Y-84845371D01*
X106624434Y-84857681D01*
X106667466Y-84932216D01*
X106794129Y-85072889D01*
X106947269Y-85184151D01*
X106975933Y-85196913D01*
X107029171Y-85242162D01*
X107049494Y-85309010D01*
X107049500Y-85310193D01*
X107049500Y-93336294D01*
X107048191Y-93354264D01*
X107044711Y-93378023D01*
X107049028Y-93427368D01*
X107049500Y-93438175D01*
X107049500Y-93443709D01*
X107049916Y-93447272D01*
X107049917Y-93447282D01*
X107053098Y-93474496D01*
X107053464Y-93478082D01*
X107060109Y-93554041D01*
X107064329Y-93573071D01*
X107064758Y-93574251D01*
X107064759Y-93574255D01*
X107090413Y-93644742D01*
X107091582Y-93648107D01*
X107115580Y-93720524D01*
X107124075Y-93738072D01*
X107165979Y-93801784D01*
X107167889Y-93804782D01*
X107180243Y-93824809D01*
X107207952Y-93869732D01*
X107220253Y-93884831D01*
X107275711Y-93937153D01*
X107278298Y-93939666D01*
X107287228Y-93948596D01*
X107317478Y-93997958D01*
X107372821Y-94168285D01*
X107467466Y-94332216D01*
X107594129Y-94472889D01*
X107747269Y-94584151D01*
X107920197Y-94661144D01*
X108105352Y-94700500D01*
X108105354Y-94700500D01*
X108294648Y-94700500D01*
X108492551Y-94658435D01*
X108493062Y-94660841D01*
X108544306Y-94653967D01*
X108607585Y-94683592D01*
X108644802Y-94742724D01*
X108649500Y-94776533D01*
X108649500Y-96237769D01*
X108629815Y-96304808D01*
X108613181Y-96325450D01*
X105447228Y-99491402D01*
X105385905Y-99524887D01*
X105385330Y-99525011D01*
X105320197Y-99538856D01*
X105214550Y-99585893D01*
X105145300Y-99595177D01*
X105082023Y-99565548D01*
X105044811Y-99506413D01*
X105045476Y-99436547D01*
X105076432Y-99384933D01*
X106085638Y-98375727D01*
X106099256Y-98363957D01*
X106118530Y-98349610D01*
X106150372Y-98311661D01*
X106157686Y-98303681D01*
X106158264Y-98303102D01*
X106161591Y-98299776D01*
X106180853Y-98275413D01*
X106183076Y-98272686D01*
X106231302Y-98215214D01*
X106231303Y-98215211D01*
X106232115Y-98214244D01*
X106242573Y-98197827D01*
X106243106Y-98196682D01*
X106243111Y-98196677D01*
X106274833Y-98128646D01*
X106276362Y-98125488D01*
X106310040Y-98058433D01*
X106310040Y-98058432D01*
X106310612Y-98057294D01*
X106317000Y-98038915D01*
X106317255Y-98037675D01*
X106317257Y-98037673D01*
X106332435Y-97964157D01*
X106333200Y-97960708D01*
X106350500Y-97887721D01*
X106350500Y-97887718D01*
X106350791Y-97886491D01*
X106352770Y-97867121D01*
X106352733Y-97865858D01*
X106352734Y-97865855D01*
X106350550Y-97790800D01*
X106350499Y-97787331D01*
X106350499Y-84962228D01*
X106370184Y-84895190D01*
X106386818Y-84874548D01*
X106429366Y-84832000D01*
X106490689Y-84798515D01*
X106560381Y-84803499D01*
G37*
%TD.AperFunction*%
%TA.AperFunction,Conductor*%
G36*
X117628825Y-79935054D02*
G01*
X117684759Y-79976925D01*
X117709176Y-80042390D01*
X117708813Y-80064197D01*
X117694540Y-80199999D01*
X117694540Y-80200000D01*
X117712814Y-80373874D01*
X117700246Y-80442602D01*
X117652513Y-80493626D01*
X117615275Y-80508124D01*
X117470697Y-80538855D01*
X117297769Y-80615848D01*
X117144629Y-80727110D01*
X117017966Y-80867783D01*
X116923320Y-81031715D01*
X116864826Y-81211742D01*
X116845040Y-81400000D01*
X116864826Y-81588257D01*
X116913215Y-81737182D01*
X116915210Y-81807023D01*
X116879129Y-81866856D01*
X116816428Y-81897684D01*
X116795284Y-81899500D01*
X116705352Y-81899500D01*
X116520197Y-81938855D01*
X116347269Y-82015848D01*
X116194129Y-82127110D01*
X116067466Y-82267783D01*
X115972820Y-82431715D01*
X115914326Y-82611742D01*
X115913825Y-82616508D01*
X115894540Y-82800000D01*
X115912814Y-82973874D01*
X115900246Y-83042602D01*
X115852513Y-83093626D01*
X115815275Y-83108124D01*
X115670697Y-83138855D01*
X115497769Y-83215848D01*
X115344629Y-83327110D01*
X115217966Y-83467783D01*
X115123320Y-83631715D01*
X115064826Y-83811742D01*
X115044644Y-84003765D01*
X115018059Y-84068379D01*
X114960762Y-84108364D01*
X114947104Y-84112093D01*
X114821197Y-84138855D01*
X114648269Y-84215848D01*
X114495129Y-84327110D01*
X114368466Y-84467783D01*
X114273820Y-84631715D01*
X114215326Y-84811742D01*
X114200810Y-84949854D01*
X114195540Y-85000000D01*
X114198333Y-85026575D01*
X114215326Y-85188257D01*
X114273820Y-85368284D01*
X114368466Y-85532216D01*
X114417649Y-85586838D01*
X114447879Y-85649830D01*
X114449500Y-85669811D01*
X114449500Y-89779288D01*
X114429815Y-89846327D01*
X114377011Y-89892082D01*
X114307853Y-89902026D01*
X114299735Y-89900581D01*
X114294646Y-89899500D01*
X114156085Y-89899500D01*
X114089046Y-89879815D01*
X114048698Y-89837501D01*
X114038782Y-89820326D01*
X113912120Y-89679655D01*
X113887009Y-89661410D01*
X113844344Y-89606079D01*
X113838366Y-89536466D01*
X113841959Y-89522793D01*
X113885674Y-89388256D01*
X113905460Y-89200000D01*
X113885674Y-89011744D01*
X113829871Y-88840000D01*
X113827179Y-88831715D01*
X113732533Y-88667783D01*
X113605870Y-88527110D01*
X113452730Y-88415848D01*
X113279802Y-88338855D01*
X113094648Y-88299500D01*
X113094646Y-88299500D01*
X112905354Y-88299500D01*
X112905352Y-88299500D01*
X112720197Y-88338855D01*
X112547269Y-88415848D01*
X112394129Y-88527110D01*
X112267466Y-88667783D01*
X112172821Y-88831714D01*
X112117478Y-89002040D01*
X112087228Y-89051402D01*
X111714358Y-89424272D01*
X111700727Y-89436053D01*
X111681468Y-89450391D01*
X111649635Y-89488328D01*
X111642338Y-89496292D01*
X111640972Y-89497657D01*
X111640950Y-89497681D01*
X111638409Y-89500223D01*
X111636173Y-89503050D01*
X111636171Y-89503053D01*
X111619176Y-89524546D01*
X111616902Y-89527337D01*
X111567894Y-89585744D01*
X111557418Y-89602187D01*
X111525192Y-89671294D01*
X111523622Y-89674536D01*
X111489393Y-89742692D01*
X111482996Y-89761098D01*
X111467573Y-89835788D01*
X111466793Y-89839305D01*
X111449208Y-89913508D01*
X111446935Y-89935746D01*
X111446648Y-89937135D01*
X111413805Y-89998805D01*
X111352835Y-90032928D01*
X111283095Y-90028672D01*
X111226727Y-89987387D01*
X111219674Y-89977140D01*
X111192047Y-89932349D01*
X111179748Y-89917252D01*
X111124274Y-89864915D01*
X111121720Y-89862435D01*
X110986817Y-89727531D01*
X110953334Y-89666210D01*
X110950500Y-89639852D01*
X110950500Y-88352179D01*
X110970185Y-88285140D01*
X110986815Y-88264502D01*
X111185642Y-88065674D01*
X111199260Y-88053904D01*
X111218530Y-88039560D01*
X111250366Y-88001617D01*
X111257680Y-87993638D01*
X111258264Y-87993053D01*
X111261591Y-87989727D01*
X111280833Y-87965389D01*
X111283090Y-87962620D01*
X111297853Y-87945025D01*
X111331302Y-87905164D01*
X111331303Y-87905161D01*
X111332115Y-87904194D01*
X111342573Y-87887777D01*
X111343106Y-87886632D01*
X111343111Y-87886627D01*
X111374833Y-87818596D01*
X111376362Y-87815438D01*
X111410040Y-87748383D01*
X111410040Y-87748382D01*
X111410612Y-87747244D01*
X111417000Y-87728864D01*
X111417255Y-87727625D01*
X111417257Y-87727623D01*
X111432447Y-87654053D01*
X111433186Y-87650720D01*
X111450500Y-87577671D01*
X111450500Y-87577666D01*
X111450791Y-87576439D01*
X111452770Y-87557071D01*
X111452733Y-87555809D01*
X111452734Y-87555806D01*
X111450552Y-87480818D01*
X111450500Y-87477212D01*
X111450500Y-84062229D01*
X111470185Y-83995190D01*
X111486819Y-83974548D01*
X111649625Y-83811742D01*
X111837820Y-83623546D01*
X111899141Y-83590063D01*
X111968832Y-83595047D01*
X112024766Y-83636918D01*
X112049183Y-83702383D01*
X112049499Y-83711229D01*
X112049499Y-84865677D01*
X112032887Y-84927676D01*
X111972820Y-85031716D01*
X111914326Y-85211742D01*
X111894540Y-85399999D01*
X111914326Y-85588257D01*
X111972820Y-85768284D01*
X112067466Y-85932216D01*
X112194129Y-86072889D01*
X112347269Y-86184151D01*
X112520197Y-86261144D01*
X112705352Y-86300500D01*
X112705354Y-86300500D01*
X112894648Y-86300500D01*
X113018083Y-86274262D01*
X113079803Y-86261144D01*
X113252730Y-86184151D01*
X113405871Y-86072888D01*
X113532533Y-85932216D01*
X113627179Y-85768284D01*
X113685674Y-85588256D01*
X113705460Y-85400000D01*
X113685674Y-85211744D01*
X113650609Y-85103825D01*
X113627179Y-85031715D01*
X113567113Y-84927677D01*
X113550500Y-84865677D01*
X113550500Y-83962228D01*
X113570185Y-83895189D01*
X113586814Y-83874552D01*
X116458446Y-81002919D01*
X116458451Y-81002916D01*
X116468654Y-80992712D01*
X116468656Y-80992712D01*
X117497814Y-79963553D01*
X117559134Y-79930070D01*
X117628825Y-79935054D01*
G37*
%TD.AperFunction*%
%TD*%
M02*
