%TF.GenerationSoftware,KiCad,Pcbnew,7.0.2*%
%TF.CreationDate,2023-08-23T23:39:57+05:30*%
%TF.ProjectId,esp32_dev_board,65737033-325f-4646-9576-5f626f617264,rev?*%
%TF.SameCoordinates,Original*%
%TF.FileFunction,Copper,L1,Top*%
%TF.FilePolarity,Positive*%
%FSLAX46Y46*%
G04 Gerber Fmt 4.6, Leading zero omitted, Abs format (unit mm)*
G04 Created by KiCad (PCBNEW 7.0.2) date 2023-08-23 23:39:57*
%MOMM*%
%LPD*%
G01*
G04 APERTURE LIST*
G04 Aperture macros list*
%AMRoundRect*
0 Rectangle with rounded corners*
0 $1 Rounding radius*
0 $2 $3 $4 $5 $6 $7 $8 $9 X,Y pos of 4 corners*
0 Add a 4 corners polygon primitive as box body*
4,1,4,$2,$3,$4,$5,$6,$7,$8,$9,$2,$3,0*
0 Add four circle primitives for the rounded corners*
1,1,$1+$1,$2,$3*
1,1,$1+$1,$4,$5*
1,1,$1+$1,$6,$7*
1,1,$1+$1,$8,$9*
0 Add four rect primitives between the rounded corners*
20,1,$1+$1,$2,$3,$4,$5,0*
20,1,$1+$1,$4,$5,$6,$7,0*
20,1,$1+$1,$6,$7,$8,$9,0*
20,1,$1+$1,$8,$9,$2,$3,0*%
G04 Aperture macros list end*
%TA.AperFunction,SMDPad,CuDef*%
%ADD10R,1.700000X1.000000*%
%TD*%
%TA.AperFunction,SMDPad,CuDef*%
%ADD11RoundRect,0.250000X-0.475000X0.337500X-0.475000X-0.337500X0.475000X-0.337500X0.475000X0.337500X0*%
%TD*%
%TA.AperFunction,SMDPad,CuDef*%
%ADD12RoundRect,0.250000X0.337500X0.475000X-0.337500X0.475000X-0.337500X-0.475000X0.337500X-0.475000X0*%
%TD*%
%TA.AperFunction,SMDPad,CuDef*%
%ADD13RoundRect,0.250000X-0.450000X0.350000X-0.450000X-0.350000X0.450000X-0.350000X0.450000X0.350000X0*%
%TD*%
%TA.AperFunction,SMDPad,CuDef*%
%ADD14RoundRect,0.250000X0.450000X-0.325000X0.450000X0.325000X-0.450000X0.325000X-0.450000X-0.325000X0*%
%TD*%
%TA.AperFunction,SMDPad,CuDef*%
%ADD15RoundRect,0.250000X-0.450000X0.325000X-0.450000X-0.325000X0.450000X-0.325000X0.450000X0.325000X0*%
%TD*%
%TA.AperFunction,SMDPad,CuDef*%
%ADD16R,1.500000X0.900000*%
%TD*%
%TA.AperFunction,SMDPad,CuDef*%
%ADD17R,0.900000X1.500000*%
%TD*%
%TA.AperFunction,SMDPad,CuDef*%
%ADD18R,0.900000X0.900000*%
%TD*%
%TA.AperFunction,HeatsinkPad*%
%ADD19C,0.600000*%
%TD*%
%TA.AperFunction,SMDPad,CuDef*%
%ADD20R,3.800000X3.800000*%
%TD*%
%TA.AperFunction,SMDPad,CuDef*%
%ADD21RoundRect,0.150000X0.200000X-0.150000X0.200000X0.150000X-0.200000X0.150000X-0.200000X-0.150000X0*%
%TD*%
%TA.AperFunction,SMDPad,CuDef*%
%ADD22R,1.500000X2.000000*%
%TD*%
%TA.AperFunction,SMDPad,CuDef*%
%ADD23R,3.800000X2.000000*%
%TD*%
%TA.AperFunction,SMDPad,CuDef*%
%ADD24R,0.450000X1.380000*%
%TD*%
%TA.AperFunction,SMDPad,CuDef*%
%ADD25R,1.650000X1.300000*%
%TD*%
%TA.AperFunction,SMDPad,CuDef*%
%ADD26R,1.425000X1.550000*%
%TD*%
%TA.AperFunction,SMDPad,CuDef*%
%ADD27R,1.800000X1.900000*%
%TD*%
%TA.AperFunction,SMDPad,CuDef*%
%ADD28R,1.000000X1.900000*%
%TD*%
%TA.AperFunction,SMDPad,CuDef*%
%ADD29RoundRect,0.250000X0.475000X-0.337500X0.475000X0.337500X-0.475000X0.337500X-0.475000X-0.337500X0*%
%TD*%
%TA.AperFunction,SMDPad,CuDef*%
%ADD30RoundRect,0.250000X0.450000X-0.350000X0.450000X0.350000X-0.450000X0.350000X-0.450000X-0.350000X0*%
%TD*%
%TA.AperFunction,ComponentPad*%
%ADD31R,1.700000X1.700000*%
%TD*%
%TA.AperFunction,ComponentPad*%
%ADD32O,1.700000X1.700000*%
%TD*%
%TA.AperFunction,ViaPad*%
%ADD33C,0.800000*%
%TD*%
%TA.AperFunction,Conductor*%
%ADD34C,1.000000*%
%TD*%
%TA.AperFunction,Conductor*%
%ADD35C,0.500000*%
%TD*%
%TA.AperFunction,Conductor*%
%ADD36C,0.200000*%
%TD*%
%TA.AperFunction,Conductor*%
%ADD37C,0.300000*%
%TD*%
G04 APERTURE END LIST*
D10*
%TO.P,SW1,1,A*%
%TO.N,Net-(SW1-A)*%
X108200000Y-101800000D03*
X114500000Y-101800000D03*
%TO.P,SW1,2,B*%
%TO.N,3.3v*%
X108200000Y-105600000D03*
X114500000Y-105600000D03*
%TD*%
D11*
%TO.P,C4,1*%
%TO.N,3.3v*%
X120000000Y-118800000D03*
%TO.P,C4,2*%
%TO.N,GND*%
X120000000Y-120875000D03*
%TD*%
D12*
%TO.P,C2,1*%
%TO.N,3.3v*%
X108287500Y-108100000D03*
%TO.P,C2,2*%
%TO.N,GND*%
X106212500Y-108100000D03*
%TD*%
D13*
%TO.P,R1,1*%
%TO.N,Net-(D1-A)*%
X106225000Y-96375000D03*
%TO.P,R1,2*%
%TO.N,3.3v*%
X106225000Y-98375000D03*
%TD*%
D14*
%TO.P,D5,1,K*%
%TO.N,Net-(D5-K)*%
X115025000Y-94425000D03*
%TO.P,D5,2,A*%
%TO.N,LED*%
X115025000Y-92375000D03*
%TD*%
D15*
%TO.P,D2,1,K*%
%TO.N,RX_MCU*%
X110625000Y-92375000D03*
%TO.P,D2,2,A*%
%TO.N,Net-(D2-A)*%
X110625000Y-94425000D03*
%TD*%
%TO.P,D1,1,K*%
%TO.N,TX_MCU*%
X106225000Y-92375000D03*
%TO.P,D1,2,A*%
%TO.N,Net-(D1-A)*%
X106225000Y-94425000D03*
%TD*%
D16*
%TO.P,U3,1,GND*%
%TO.N,GND*%
X103385000Y-69895000D03*
%TO.P,U3,2,VDD*%
%TO.N,3.3v*%
X103385000Y-71165000D03*
%TO.P,U3,3,EN*%
X103385000Y-72435000D03*
%TO.P,U3,4,SENSOR_VP*%
%TO.N,SENSRO1*%
X103385000Y-73705000D03*
%TO.P,U3,5,SENSOR_VN*%
%TO.N,SENSRO2*%
X103385000Y-74975000D03*
%TO.P,U3,6,IO34*%
%TO.N,IO34*%
X103385000Y-76245000D03*
%TO.P,U3,7,IO35*%
%TO.N,IO35*%
X103385000Y-77515000D03*
%TO.P,U3,8,IO32*%
%TO.N,IO32*%
X103385000Y-78785000D03*
%TO.P,U3,9,IO33*%
%TO.N,IO33*%
X103385000Y-80055000D03*
%TO.P,U3,10,IO25*%
%TO.N,IO25*%
X103385000Y-81325000D03*
%TO.P,U3,11,IO26*%
%TO.N,IO26*%
X103385000Y-82595000D03*
%TO.P,U3,12,IO27*%
%TO.N,IO27*%
X103385000Y-83865000D03*
%TO.P,U3,13,IO14*%
%TO.N,IO14*%
X103385000Y-85135000D03*
%TO.P,U3,14,IO12*%
%TO.N,IO12*%
X103385000Y-86405000D03*
D17*
%TO.P,U3,15,GND*%
%TO.N,GND*%
X106420000Y-87500000D03*
%TO.P,U3,16,IO13*%
%TO.N,IO13*%
X107690000Y-87500000D03*
%TO.P,U3,17,SHD/SD2*%
%TO.N,SD2*%
X108960000Y-87500000D03*
%TO.P,U3,18,SWP/SD3*%
%TO.N,SD3*%
X110230000Y-87500000D03*
%TO.P,U3,19,SCS/CMD*%
%TO.N,CMD*%
X111500000Y-87500000D03*
%TO.P,U3,20,SCK/CLK*%
%TO.N,CLK*%
X112770000Y-87500000D03*
%TO.P,U3,21,SDO/SD0*%
%TO.N,SDO*%
X114040000Y-87500000D03*
%TO.P,U3,22,SDI/SD1*%
%TO.N,SDI*%
X115310000Y-87500000D03*
%TO.P,U3,23,IO15*%
%TO.N,IO15*%
X116580000Y-87500000D03*
%TO.P,U3,24,IO2*%
%TO.N,IO2*%
X117850000Y-87500000D03*
D16*
%TO.P,U3,25,IO0*%
%TO.N,LED*%
X120885000Y-86405000D03*
%TO.P,U3,26,IO4*%
%TO.N,IO4*%
X120885000Y-85135000D03*
%TO.P,U3,27,IO16*%
%TO.N,IO16*%
X120885000Y-83865000D03*
%TO.P,U3,28,IO17*%
%TO.N,IO17*%
X120885000Y-82595000D03*
%TO.P,U3,29,IO5*%
%TO.N,IO5*%
X120885000Y-81325000D03*
%TO.P,U3,30,IO18*%
%TO.N,IO18*%
X120885000Y-80055000D03*
%TO.P,U3,31,IO19*%
%TO.N,IO19*%
X120885000Y-78785000D03*
%TO.P,U3,32,NC*%
%TO.N,unconnected-(U3-NC-Pad32)*%
X120885000Y-77515000D03*
%TO.P,U3,33,IO21*%
%TO.N,IO21*%
X120885000Y-76245000D03*
%TO.P,U3,34,RXD0/IO3*%
%TO.N,RX_MCU*%
X120885000Y-74975000D03*
%TO.P,U3,35,TXD0/IO1*%
%TO.N,TX_MCU*%
X120885000Y-73705000D03*
%TO.P,U3,36,IO22*%
%TO.N,IO22*%
X120885000Y-72435000D03*
%TO.P,U3,37,IO23*%
%TO.N,IO23*%
X120885000Y-71165000D03*
%TO.P,U3,38,GND*%
%TO.N,GND*%
X120885000Y-69895000D03*
D18*
%TO.P,U3,39,GND*%
X109235000Y-76060000D03*
D19*
X109235000Y-76760000D03*
D18*
X109235000Y-77460000D03*
D19*
X109235000Y-78160000D03*
D18*
X109235000Y-78860000D03*
D19*
X109935000Y-76060000D03*
X109935000Y-77460000D03*
X109935000Y-78860000D03*
D18*
X110635000Y-76060000D03*
D19*
X110635000Y-76760000D03*
D18*
X110635000Y-77460000D03*
D20*
X110635000Y-77460000D03*
D19*
X110635000Y-78160000D03*
D18*
X110635000Y-78860000D03*
D19*
X111335000Y-76060000D03*
X111335000Y-77460000D03*
X111335000Y-78860000D03*
D18*
X112035000Y-76060000D03*
D19*
X112035000Y-76760000D03*
D18*
X112035000Y-77460000D03*
D19*
X112035000Y-78160000D03*
D18*
X112035000Y-78860000D03*
%TD*%
D21*
%TO.P,D4,1,K*%
%TO.N,Net-(D4-K)*%
X113000000Y-113700000D03*
%TO.P,D4,2,A*%
%TO.N,VBUS*%
X113000000Y-115100000D03*
%TD*%
D22*
%TO.P,U2,1,GND*%
%TO.N,unconnected-(U2-GND-Pad1)*%
X120100000Y-109050000D03*
%TO.P,U2,2,VO*%
%TO.N,3.3v*%
X117800000Y-109050000D03*
D23*
X117800000Y-115350000D03*
D22*
%TO.P,U2,3,VI*%
%TO.N,Net-(D4-K)*%
X115500000Y-109050000D03*
%TD*%
D13*
%TO.P,R3,1*%
%TO.N,Net-(D2-A)*%
X110625000Y-96400000D03*
%TO.P,R3,2*%
%TO.N,3.3v*%
X110625000Y-98400000D03*
%TD*%
%TO.P,R4,1*%
%TO.N,Net-(D5-K)*%
X115000000Y-96600000D03*
%TO.P,R4,2*%
%TO.N,GND*%
X115000000Y-98600000D03*
%TD*%
D24*
%TO.P,J3,1,VBUS*%
%TO.N,VBUS*%
X110550000Y-118540000D03*
%TO.P,J3,2,D-*%
%TO.N,USB_M*%
X111200000Y-118540000D03*
%TO.P,J3,3,D+*%
%TO.N,USB_P*%
X111850000Y-118540000D03*
%TO.P,J3,4,ID*%
%TO.N,unconnected-(J3-ID-Pad4)*%
X112500000Y-118540000D03*
%TO.P,J3,5,GND*%
%TO.N,GND*%
X113150000Y-118540000D03*
D25*
%TO.P,J3,6,Shield*%
X108475000Y-121200000D03*
D26*
X109362500Y-118625000D03*
D27*
X110700000Y-121200000D03*
D28*
X113400000Y-121200000D03*
D26*
X114337500Y-118625000D03*
D25*
X115225000Y-121200000D03*
%TD*%
D15*
%TO.P,D6,1,K*%
%TO.N,Net-(D6-K)*%
X119200000Y-96375000D03*
%TO.P,D6,2,A*%
%TO.N,3.3v*%
X119200000Y-98425000D03*
%TD*%
D29*
%TO.P,C1,1*%
%TO.N,3.3v*%
X100000000Y-72237500D03*
%TO.P,C1,2*%
%TO.N,GND*%
X100000000Y-70162500D03*
%TD*%
D30*
%TO.P,R2,1*%
%TO.N,GND*%
X105650000Y-105500000D03*
%TO.P,R2,2*%
%TO.N,Net-(SW1-A)*%
X105650000Y-103500000D03*
%TD*%
D11*
%TO.P,C3,1*%
%TO.N,Net-(D4-K)*%
X112800000Y-109362500D03*
%TO.P,C3,2*%
%TO.N,GND*%
X112800000Y-111437500D03*
%TD*%
D30*
%TO.P,R5,1*%
%TO.N,Net-(D6-K)*%
X119200000Y-94425000D03*
%TO.P,R5,2*%
%TO.N,GND*%
X119200000Y-92425000D03*
%TD*%
D31*
%TO.P,J1,1,Pin_1*%
%TO.N,SENSRO2*%
X98800000Y-78575000D03*
D32*
%TO.P,J1,2,Pin_2*%
%TO.N,SENSRO1*%
X98800000Y-81115000D03*
%TO.P,J1,3,Pin_3*%
%TO.N,IO35*%
X98800000Y-83655000D03*
%TO.P,J1,4,Pin_4*%
%TO.N,IO32*%
X98800000Y-86195000D03*
%TO.P,J1,5,Pin_5*%
%TO.N,IO33*%
X98800000Y-88735000D03*
%TO.P,J1,6,Pin_6*%
%TO.N,IO25*%
X98800000Y-91275000D03*
%TO.P,J1,7,Pin_7*%
%TO.N,IO26*%
X98800000Y-93815000D03*
%TD*%
D31*
%TO.P,J4,1,Pin_1*%
%TO.N,VBUS*%
X98600000Y-117000000D03*
%TD*%
%TO.P,J7,1,Pin_1*%
%TO.N,IO5*%
X124500000Y-105420000D03*
D32*
%TO.P,J7,2,Pin_2*%
%TO.N,IO17*%
X124500000Y-107960000D03*
%TO.P,J7,3,Pin_3*%
%TO.N,IO16*%
X124500000Y-110500000D03*
%TO.P,J7,4,Pin_4*%
%TO.N,IO4*%
X124500000Y-113040000D03*
%TO.P,J7,5,Pin_5*%
%TO.N,IO0*%
X124500000Y-115580000D03*
%TO.P,J7,6,Pin_6*%
%TO.N,IO2*%
X124500000Y-118120000D03*
%TO.P,J7,7,Pin_7*%
%TO.N,IO15*%
X124500000Y-120660000D03*
%TD*%
D31*
%TO.P,J9,1,Pin_1*%
%TO.N,GND*%
X98600000Y-120800000D03*
%TD*%
%TO.P,J8,1,Pin_1*%
%TO.N,SDI*%
X124500000Y-82000000D03*
%TD*%
%TO.P,J2,1,Pin_1*%
%TO.N,CLK*%
X124520000Y-78200000D03*
%TD*%
%TO.P,J6,1,Pin_1*%
%TO.N,IO23*%
X124500000Y-86300000D03*
D32*
%TO.P,J6,2,Pin_2*%
%TO.N,IO22*%
X124500000Y-88840000D03*
%TO.P,J6,3,Pin_3*%
%TO.N,TX_MCU*%
X124500000Y-91380000D03*
%TO.P,J6,4,Pin_4*%
%TO.N,RX_MCU*%
X124500000Y-93920000D03*
%TO.P,J6,5,Pin_5*%
%TO.N,IO21*%
X124500000Y-96460000D03*
%TO.P,J6,6,Pin_6*%
%TO.N,IO19*%
X124500000Y-99000000D03*
%TO.P,J6,7,Pin_7*%
%TO.N,IO18*%
X124500000Y-101540000D03*
%TD*%
D31*
%TO.P,J5,1,Pin_1*%
%TO.N,IO27*%
X98800000Y-97720000D03*
D32*
%TO.P,J5,2,Pin_2*%
%TO.N,IO12*%
X98800000Y-100260000D03*
%TO.P,J5,3,Pin_3*%
%TO.N,IO14*%
X98800000Y-102800000D03*
%TO.P,J5,4,Pin_4*%
%TO.N,IO13*%
X98800000Y-105340000D03*
%TO.P,J5,5,Pin_5*%
%TO.N,SDI*%
X98800000Y-107880000D03*
%TO.P,J5,6,Pin_6*%
%TO.N,SDO*%
X98800000Y-110420000D03*
%TO.P,J5,7,Pin_7*%
%TO.N,CMD*%
X98800000Y-112960000D03*
%TD*%
D33*
%TO.N,3.3v*%
X117800000Y-109000000D03*
X107400000Y-81000000D03*
X107400000Y-84400000D03*
X108200000Y-93800000D03*
X107400000Y-76600000D03*
%TO.N,GND*%
X104000000Y-111400000D03*
X105650000Y-105500000D03*
X112817152Y-111423591D03*
X111600000Y-86000000D03*
X106449500Y-87500000D03*
X114337500Y-118625000D03*
X111415688Y-89615688D03*
X112550000Y-98600000D03*
%TO.N,IO25*%
X103385000Y-81325000D03*
%TO.N,IO26*%
X103385000Y-82595000D03*
%TO.N,CLK*%
X112800000Y-85400000D03*
%TO.N,USB_M*%
X111600688Y-116000688D03*
%TO.N,USB_P*%
X111949500Y-117100000D03*
%TO.N,IO27*%
X103385000Y-83865000D03*
%TO.N,IO12*%
X103385000Y-86405000D03*
%TO.N,IO14*%
X104734502Y-86000000D03*
%TO.N,IO13*%
X102200000Y-101400000D03*
%TO.N,SDI*%
X117600000Y-71200000D03*
%TO.N,SDO*%
X113000000Y-89200000D03*
%TO.N,CMD*%
X105600000Y-100400000D03*
X109400000Y-91000000D03*
%TO.N,IO23*%
X120885000Y-71165000D03*
%TO.N,IO22*%
X120885000Y-72435000D03*
%TO.N,TX_MCU*%
X120010228Y-117371603D03*
X108800000Y-89000000D03*
X120750500Y-73705000D03*
X122200000Y-115600000D03*
X117400000Y-75200000D03*
%TO.N,RX_MCU*%
X117600000Y-76800000D03*
X110600000Y-92400000D03*
X121324500Y-118685875D03*
%TO.N,IO19*%
X119000000Y-79000000D03*
%TO.N,IO18*%
X118600000Y-80200000D03*
%TO.N,IO5*%
X117750500Y-81400000D03*
%TO.N,IO17*%
X116800000Y-82800000D03*
%TO.N,IO16*%
X115950500Y-84000000D03*
%TO.N,IO4*%
X115101000Y-85000000D03*
%TO.N,IO2*%
X114200000Y-90800000D03*
%TO.N,IO15*%
X113306250Y-90352544D03*
%TD*%
D34*
%TO.N,3.3v*%
X117800000Y-108200000D02*
X115900000Y-106300000D01*
D35*
X117400000Y-100200000D02*
X117000000Y-100200000D01*
D34*
X117800000Y-109050000D02*
X117800000Y-115350000D01*
D35*
X117800000Y-116600000D02*
X117800000Y-115350000D01*
D34*
X115200000Y-105600000D02*
X114500000Y-105600000D01*
D35*
X107400000Y-81000000D02*
X107400000Y-84400000D01*
X108200000Y-93800000D02*
X108600000Y-94200000D01*
X120000000Y-118800000D02*
X117800000Y-116600000D01*
D34*
X115900000Y-106300000D02*
X115200000Y-105600000D01*
X108287500Y-108100000D02*
X108287500Y-105687500D01*
D35*
X117000000Y-100200000D02*
X117000000Y-105200000D01*
X119200000Y-98425000D02*
X119175000Y-98425000D01*
X103385000Y-72435000D02*
X104635000Y-72435000D01*
X108600000Y-94200000D02*
X108600000Y-98375000D01*
X100197500Y-72435000D02*
X100000000Y-72237500D01*
D34*
X117800000Y-109000000D02*
X117800000Y-108200000D01*
X110600000Y-98375000D02*
X110625000Y-98400000D01*
D35*
X107400000Y-75200000D02*
X107400000Y-76600000D01*
X117000000Y-105200000D02*
X115900000Y-106300000D01*
X104635000Y-72435000D02*
X107400000Y-75200000D01*
X103385000Y-71165000D02*
X103385000Y-72435000D01*
X112425000Y-100200000D02*
X110625000Y-98400000D01*
X117000000Y-100200000D02*
X112425000Y-100200000D01*
D34*
X108200000Y-105600000D02*
X114500000Y-105600000D01*
X108287500Y-105687500D02*
X108200000Y-105600000D01*
D35*
X103385000Y-72435000D02*
X100197500Y-72435000D01*
D34*
X117800000Y-109050000D02*
X117800000Y-109000000D01*
D35*
X119175000Y-98425000D02*
X117400000Y-100200000D01*
D34*
X106225000Y-98375000D02*
X108600000Y-98375000D01*
X108600000Y-98375000D02*
X110600000Y-98375000D01*
%TO.N,GND*%
X119675000Y-121200000D02*
X120000000Y-120875000D01*
D35*
X112550000Y-98600000D02*
X113400000Y-98600000D01*
D34*
X108475000Y-121200000D02*
X109400000Y-121200000D01*
D35*
X107600000Y-111000000D02*
X108037500Y-111437500D01*
X113400000Y-98600000D02*
X113400000Y-94600000D01*
X115000000Y-98600000D02*
X117200000Y-96400000D01*
D34*
X114400000Y-121200000D02*
X115225000Y-121200000D01*
D35*
X112800000Y-111400000D02*
X112800000Y-111437500D01*
X110800000Y-72200000D02*
X113105000Y-69895000D01*
X110635000Y-77460000D02*
X110635000Y-72365000D01*
X106420000Y-85400000D02*
X106420000Y-79580000D01*
X113105000Y-69895000D02*
X120885000Y-69895000D01*
X117775000Y-92425000D02*
X119200000Y-92425000D01*
X100267500Y-69895000D02*
X100000000Y-70162500D01*
X107634646Y-111434646D02*
X107200000Y-111000000D01*
D34*
X109362500Y-118625000D02*
X109362500Y-121162500D01*
D35*
X110635000Y-72365000D02*
X110800000Y-72200000D01*
X108400000Y-111434646D02*
X112800000Y-111400000D01*
D34*
X114337500Y-118625000D02*
X114337500Y-121137500D01*
D35*
X103385000Y-69895000D02*
X108495000Y-69895000D01*
X106420000Y-87500000D02*
X106420000Y-85400000D01*
X106212500Y-108100000D02*
X106212500Y-109612500D01*
X98600000Y-120800000D02*
X108075000Y-120800000D01*
X108037500Y-111437500D02*
X108400000Y-111434646D01*
X117200000Y-93000000D02*
X117775000Y-92425000D01*
X106212500Y-109612500D02*
X107600000Y-111000000D01*
X112400000Y-91400000D02*
X111600000Y-90600000D01*
X108400000Y-111434646D02*
X107634646Y-111434646D01*
D34*
X109362500Y-121162500D02*
X109400000Y-121200000D01*
D35*
X110849500Y-85600000D02*
X111249500Y-86000000D01*
D34*
X109400000Y-121200000D02*
X114400000Y-121200000D01*
D36*
X113150000Y-118540000D02*
X114252500Y-118540000D01*
D35*
X111249500Y-86000000D02*
X111600000Y-86000000D01*
X106420000Y-79580000D02*
X108540000Y-77460000D01*
X106420000Y-87500000D02*
X106449500Y-87500000D01*
X108540000Y-77460000D02*
X110635000Y-77460000D01*
X108075000Y-120800000D02*
X108475000Y-121200000D01*
X106420000Y-85400000D02*
X110649500Y-85400000D01*
D36*
X114252500Y-118540000D02*
X114337500Y-118625000D01*
D34*
X105650000Y-105500000D02*
X105650000Y-107537500D01*
D35*
X108495000Y-69895000D02*
X110800000Y-72200000D01*
D34*
X115225000Y-121200000D02*
X119675000Y-121200000D01*
D35*
X111600000Y-90600000D02*
X111600000Y-89800000D01*
X113400000Y-98600000D02*
X115000000Y-98600000D01*
D34*
X114337500Y-121137500D02*
X114400000Y-121200000D01*
D35*
X110649500Y-85400000D02*
X110849500Y-85600000D01*
X103385000Y-69895000D02*
X100267500Y-69895000D01*
X104400000Y-111000000D02*
X104000000Y-111400000D01*
X112400000Y-93600000D02*
X112400000Y-91400000D01*
D34*
X105650000Y-107537500D02*
X106212500Y-108100000D01*
D35*
X113400000Y-94600000D02*
X112400000Y-93600000D01*
X117200000Y-96400000D02*
X117200000Y-93000000D01*
X111600000Y-89800000D02*
X111415688Y-89615688D01*
X107600000Y-111000000D02*
X104400000Y-111000000D01*
%TO.N,Net-(D4-K)*%
X115187500Y-109362500D02*
X115500000Y-109050000D01*
X115500000Y-111900000D02*
X113700000Y-113700000D01*
X115500000Y-109050000D02*
X115500000Y-111900000D01*
X112800000Y-109362500D02*
X115187500Y-109362500D01*
X113700000Y-113700000D02*
X113000000Y-113700000D01*
D34*
%TO.N,Net-(D1-A)*%
X106225000Y-94425000D02*
X106225000Y-96375000D01*
%TO.N,Net-(D2-A)*%
X110625000Y-94425000D02*
X110625000Y-96400000D01*
D35*
%TO.N,VBUS*%
X98600000Y-117000000D02*
X99200000Y-116400000D01*
X110525000Y-116925000D02*
X110525000Y-118540000D01*
X113000000Y-115100000D02*
X111300000Y-115100000D01*
X111300000Y-115100000D02*
X110000000Y-116400000D01*
X110000000Y-116400000D02*
X110525000Y-116925000D01*
X99200000Y-116400000D02*
X110000000Y-116400000D01*
D34*
%TO.N,Net-(D5-K)*%
X115025000Y-96575000D02*
X115000000Y-96600000D01*
X115025000Y-94425000D02*
X115025000Y-96575000D01*
D35*
%TO.N,LED*%
X115025000Y-92375000D02*
X116225000Y-92375000D01*
X116225000Y-92375000D02*
X120885000Y-87715000D01*
X120885000Y-87715000D02*
X120885000Y-86405000D01*
D34*
%TO.N,Net-(D6-K)*%
X119200000Y-96375000D02*
X119200000Y-94425000D01*
D35*
%TO.N,SENSRO2*%
X98800000Y-78575000D02*
X98800000Y-77000000D01*
X100825000Y-74975000D02*
X103385000Y-74975000D01*
X98800000Y-77000000D02*
X100825000Y-74975000D01*
%TO.N,SENSRO1*%
X97400000Y-76200000D02*
X99895000Y-73705000D01*
X99895000Y-73705000D02*
X103385000Y-73705000D01*
X97400000Y-79715000D02*
X97400000Y-76200000D01*
X98800000Y-81115000D02*
X97400000Y-79715000D01*
%TO.N,IO35*%
X102135000Y-77515000D02*
X103385000Y-77515000D01*
X100600000Y-79050000D02*
X102135000Y-77515000D01*
X98800000Y-83655000D02*
X100600000Y-81855000D01*
X100600000Y-81855000D02*
X100600000Y-79050000D01*
%TO.N,IO32*%
X101222475Y-82222475D02*
X101300000Y-82144950D01*
X98800000Y-86195000D02*
X101222475Y-83772525D01*
X101300000Y-82144950D02*
X101300000Y-79700000D01*
X101300000Y-79700000D02*
X102215000Y-78785000D01*
X102215000Y-78785000D02*
X103385000Y-78785000D01*
X101222475Y-83772525D02*
X101222475Y-82222475D01*
%TO.N,IO33*%
X98800000Y-88735000D02*
X102185000Y-85350000D01*
X102555000Y-80055000D02*
X103385000Y-80055000D01*
X102185000Y-80425000D02*
X102555000Y-80055000D01*
X102185000Y-85350000D02*
X102185000Y-80425000D01*
%TO.N,CLK*%
X112800000Y-85400000D02*
X112800000Y-87470000D01*
X112800000Y-87470000D02*
X112770000Y-87500000D01*
D37*
%TO.N,USB_M*%
X111200000Y-116401376D02*
X111200000Y-118540000D01*
X111600688Y-116000688D02*
X111200000Y-116401376D01*
%TO.N,USB_P*%
X111850000Y-117199500D02*
X111850000Y-118540000D01*
X111949500Y-117100000D02*
X111850000Y-117199500D01*
D35*
%TO.N,IO14*%
X104734502Y-86000000D02*
X104585000Y-86000000D01*
X104215000Y-85135000D02*
X103385000Y-85135000D01*
X104585000Y-86000000D02*
X104585000Y-85505000D01*
X104585000Y-85505000D02*
X104215000Y-85135000D01*
%TO.N,IO13*%
X107690000Y-89110000D02*
X107690000Y-87500000D01*
X104400000Y-90200000D02*
X106600000Y-90200000D01*
X102200000Y-101400000D02*
X102200000Y-92400000D01*
X106600000Y-90200000D02*
X107690000Y-89110000D01*
X102200000Y-92400000D02*
X104400000Y-90200000D01*
%TO.N,SDI*%
X114000000Y-83000000D02*
X114000000Y-85360000D01*
X116200000Y-80800000D02*
X114000000Y-83000000D01*
X116200000Y-72600000D02*
X116200000Y-80800000D01*
X114000000Y-85360000D02*
X115310000Y-86670000D01*
X115310000Y-86670000D02*
X115310000Y-87500000D01*
X117600000Y-71200000D02*
X116200000Y-72600000D01*
%TO.N,SDO*%
X114040000Y-88750000D02*
X114040000Y-87500000D01*
X113590000Y-89200000D02*
X114040000Y-88750000D01*
X113000000Y-89200000D02*
X113590000Y-89200000D01*
%TO.N,CMD*%
X102200000Y-109560000D02*
X102200000Y-107200000D01*
X109400000Y-91000000D02*
X109400000Y-90430000D01*
X98800000Y-112960000D02*
X102200000Y-109560000D01*
X102200000Y-103800000D02*
X105600000Y-100400000D01*
X111500000Y-88330000D02*
X111500000Y-87500000D01*
X102200000Y-107200000D02*
X102200000Y-103800000D01*
X109400000Y-90430000D02*
X111500000Y-88330000D01*
D37*
%TO.N,TX_MCU*%
X120010228Y-117371603D02*
X120428397Y-117371603D01*
D35*
X106250000Y-92400000D02*
X106225000Y-92375000D01*
X108200000Y-89600000D02*
X108200000Y-91800000D01*
D37*
X120428397Y-117371603D02*
X121400000Y-116400000D01*
X121400000Y-116400000D02*
X122200000Y-115600000D01*
D35*
X108200000Y-91800000D02*
X107600000Y-92400000D01*
X120750500Y-73705000D02*
X118895000Y-73705000D01*
X107600000Y-92400000D02*
X106250000Y-92400000D01*
X108800000Y-89000000D02*
X108200000Y-89600000D01*
X118895000Y-73705000D02*
X117400000Y-75200000D01*
%TO.N,RX_MCU*%
X121975000Y-74975000D02*
X120885000Y-74975000D01*
D37*
X123000000Y-114000000D02*
X121800000Y-112800000D01*
X125800000Y-99397057D02*
X125800000Y-95220000D01*
D35*
X124500000Y-93920000D02*
X122800000Y-92220000D01*
X117600000Y-76800000D02*
X119425000Y-74975000D01*
X122800000Y-92220000D02*
X122800000Y-75800000D01*
D37*
X121800000Y-112800000D02*
X121800000Y-101400000D01*
X124857057Y-100340000D02*
X125800000Y-99397057D01*
X123000000Y-117010375D02*
X123000000Y-114000000D01*
X122860000Y-100340000D02*
X124857057Y-100340000D01*
D35*
X119425000Y-74975000D02*
X120885000Y-74975000D01*
D37*
X125800000Y-95220000D02*
X124500000Y-93920000D01*
X121800000Y-101400000D02*
X122860000Y-100340000D01*
X121324500Y-118685875D02*
X123000000Y-117010375D01*
D35*
X122800000Y-75800000D02*
X121975000Y-74975000D01*
%TO.N,IO21*%
X122085000Y-93085000D02*
X122085000Y-76615000D01*
X121715000Y-76245000D02*
X120885000Y-76245000D01*
X122085000Y-76615000D02*
X121715000Y-76245000D01*
X124500000Y-96460000D02*
X122600000Y-94560000D01*
X122600000Y-94560000D02*
X122600000Y-93600000D01*
X122600000Y-93600000D02*
X122085000Y-93085000D01*
%TO.N,IO19*%
X119000000Y-79000000D02*
X120670000Y-79000000D01*
X120670000Y-79000000D02*
X120885000Y-78785000D01*
%TO.N,IO18*%
X118600000Y-80200000D02*
X120740000Y-80200000D01*
X120740000Y-80200000D02*
X120885000Y-80055000D01*
%TO.N,IO5*%
X117750500Y-81400000D02*
X120810000Y-81400000D01*
X120810000Y-81400000D02*
X120885000Y-81325000D01*
%TO.N,IO17*%
X120680000Y-82800000D02*
X120885000Y-82595000D01*
X116800000Y-82800000D02*
X120680000Y-82800000D01*
%TO.N,IO16*%
X120750000Y-84000000D02*
X120885000Y-83865000D01*
X115950500Y-84000000D02*
X120750000Y-84000000D01*
%TO.N,IO4*%
X115101000Y-85000000D02*
X115236000Y-85135000D01*
X115236000Y-85135000D02*
X120885000Y-85135000D01*
%TO.N,IO2*%
X114200000Y-90800000D02*
X116200000Y-90800000D01*
X117850000Y-89150000D02*
X117850000Y-87500000D01*
X116200000Y-90800000D02*
X117850000Y-89150000D01*
%TO.N,IO15*%
X116580000Y-88750000D02*
X116580000Y-87500000D01*
X115730000Y-89600000D02*
X116580000Y-88750000D01*
X113445374Y-90352544D02*
X114197918Y-89600000D01*
X113306250Y-90352544D02*
X113445374Y-90352544D01*
X114197918Y-89600000D02*
X115730000Y-89600000D01*
D34*
%TO.N,Net-(SW1-A)*%
X105650000Y-102750000D02*
X106600000Y-101800000D01*
X108200000Y-101800000D02*
X114500000Y-101800000D01*
X105650000Y-103500000D02*
X105650000Y-102750000D01*
X106600000Y-101800000D02*
X108200000Y-101800000D01*
%TD*%
%TA.AperFunction,Conductor*%
%TO.N,3.3v*%
G36*
X126942539Y-67020185D02*
G01*
X126988294Y-67072989D01*
X126999500Y-67124500D01*
X126999500Y-122875500D01*
X126979815Y-122942539D01*
X126927011Y-122988294D01*
X126875500Y-122999500D01*
X96624500Y-122999500D01*
X96557461Y-122979815D01*
X96511706Y-122927011D01*
X96500500Y-122875500D01*
X96500500Y-80127330D01*
X96520185Y-80060291D01*
X96572989Y-80014536D01*
X96642147Y-80004592D01*
X96705703Y-80033617D01*
X96728101Y-80059192D01*
X96765979Y-80116784D01*
X96767889Y-80119782D01*
X96807288Y-80183656D01*
X96807952Y-80184732D01*
X96820253Y-80199830D01*
X96821168Y-80200693D01*
X96821170Y-80200696D01*
X96875708Y-80252150D01*
X96878295Y-80254663D01*
X97427130Y-80803498D01*
X97460615Y-80864821D01*
X97462977Y-80901986D01*
X97444340Y-81114999D01*
X97464936Y-81350407D01*
X97502968Y-81492342D01*
X97526097Y-81578663D01*
X97625965Y-81792830D01*
X97761505Y-81986401D01*
X97928599Y-82153495D01*
X98114160Y-82283426D01*
X98157783Y-82338002D01*
X98164976Y-82407501D01*
X98133454Y-82469855D01*
X98114159Y-82486575D01*
X98105729Y-82492478D01*
X97935399Y-82611744D01*
X97928595Y-82616508D01*
X97761505Y-82783598D01*
X97625965Y-82977170D01*
X97526097Y-83191336D01*
X97464936Y-83419592D01*
X97444340Y-83654999D01*
X97464936Y-83890407D01*
X97496716Y-84009011D01*
X97526097Y-84118663D01*
X97625965Y-84332830D01*
X97761505Y-84526401D01*
X97928599Y-84693495D01*
X98114160Y-84823426D01*
X98157783Y-84878002D01*
X98164976Y-84947501D01*
X98133454Y-85009855D01*
X98114159Y-85026575D01*
X98101741Y-85035270D01*
X97953805Y-85138856D01*
X97928595Y-85156508D01*
X97761505Y-85323598D01*
X97625965Y-85517170D01*
X97526097Y-85731336D01*
X97464936Y-85959592D01*
X97444340Y-86195000D01*
X97464936Y-86430407D01*
X97492216Y-86532216D01*
X97526097Y-86658663D01*
X97625965Y-86872830D01*
X97761505Y-87066401D01*
X97928599Y-87233495D01*
X98114160Y-87363426D01*
X98157783Y-87418002D01*
X98164976Y-87487501D01*
X98133454Y-87549855D01*
X98114159Y-87566575D01*
X97928595Y-87696508D01*
X97761505Y-87863598D01*
X97625965Y-88057170D01*
X97526097Y-88271336D01*
X97464936Y-88499592D01*
X97444340Y-88735000D01*
X97464936Y-88970407D01*
X97493071Y-89075407D01*
X97526097Y-89198663D01*
X97625965Y-89412830D01*
X97761505Y-89606401D01*
X97928599Y-89773495D01*
X98114160Y-89903426D01*
X98157783Y-89958002D01*
X98164976Y-90027501D01*
X98133454Y-90089855D01*
X98114158Y-90106575D01*
X97964205Y-90211574D01*
X97928595Y-90236508D01*
X97761505Y-90403598D01*
X97625965Y-90597170D01*
X97526097Y-90811336D01*
X97464936Y-91039592D01*
X97444340Y-91275000D01*
X97464936Y-91510407D01*
X97492362Y-91612760D01*
X97526097Y-91738663D01*
X97625965Y-91952830D01*
X97761505Y-92146401D01*
X97928599Y-92313495D01*
X98114160Y-92443426D01*
X98157783Y-92498002D01*
X98164976Y-92567501D01*
X98133454Y-92629855D01*
X98114158Y-92646575D01*
X97961967Y-92753141D01*
X97928595Y-92776508D01*
X97761505Y-92943598D01*
X97625965Y-93137170D01*
X97526097Y-93351336D01*
X97464936Y-93579592D01*
X97444340Y-93814999D01*
X97464936Y-94050407D01*
X97493071Y-94155408D01*
X97526097Y-94278663D01*
X97625965Y-94492830D01*
X97761505Y-94686401D01*
X97928599Y-94853495D01*
X98122170Y-94989035D01*
X98336337Y-95088903D01*
X98564592Y-95150063D01*
X98800000Y-95170659D01*
X99035408Y-95150063D01*
X99263663Y-95088903D01*
X99477830Y-94989035D01*
X99671401Y-94853495D01*
X99838495Y-94686401D01*
X99974035Y-94492830D01*
X100073903Y-94278663D01*
X100135063Y-94050408D01*
X100155659Y-93815000D01*
X100135063Y-93579592D01*
X100073903Y-93351337D01*
X99974035Y-93137171D01*
X99838495Y-92943599D01*
X99671401Y-92776505D01*
X99485839Y-92646573D01*
X99442216Y-92591998D01*
X99435022Y-92522500D01*
X99466545Y-92460145D01*
X99485837Y-92443428D01*
X99671401Y-92313495D01*
X99838495Y-92146401D01*
X99974035Y-91952830D01*
X100073903Y-91738663D01*
X100135063Y-91510408D01*
X100155659Y-91275000D01*
X100135063Y-91039592D01*
X100073903Y-90811337D01*
X99974035Y-90597171D01*
X99838495Y-90403599D01*
X99671401Y-90236505D01*
X99485839Y-90106573D01*
X99442216Y-90051998D01*
X99435022Y-89982500D01*
X99466545Y-89920145D01*
X99485837Y-89903428D01*
X99671401Y-89773495D01*
X99838495Y-89606401D01*
X99974035Y-89412830D01*
X100073903Y-89198663D01*
X100135063Y-88970408D01*
X100155659Y-88735000D01*
X100137022Y-88521985D01*
X100150788Y-88453486D01*
X100172866Y-88423500D01*
X101922821Y-86673545D01*
X101984142Y-86640062D01*
X102053834Y-86645046D01*
X102109767Y-86686918D01*
X102134184Y-86752382D01*
X102134500Y-86761227D01*
X102134500Y-86899560D01*
X102134501Y-86899574D01*
X102134501Y-86902872D01*
X102134853Y-86906152D01*
X102134854Y-86906159D01*
X102140909Y-86962483D01*
X102191204Y-87097331D01*
X102277454Y-87212546D01*
X102392669Y-87298796D01*
X102527517Y-87349091D01*
X102587127Y-87355500D01*
X104182872Y-87355499D01*
X104242483Y-87349091D01*
X104377331Y-87298796D01*
X104492546Y-87212546D01*
X104578796Y-87097331D01*
X104622122Y-86981166D01*
X104663995Y-86925233D01*
X104729459Y-86900816D01*
X104738305Y-86900500D01*
X104829150Y-86900500D01*
X104959340Y-86872827D01*
X105014305Y-86861144D01*
X105101246Y-86822435D01*
X105187229Y-86784153D01*
X105187232Y-86784151D01*
X105272615Y-86722116D01*
X105338420Y-86698637D01*
X105406474Y-86714462D01*
X105455169Y-86764568D01*
X105469500Y-86822435D01*
X105469500Y-88294560D01*
X105469500Y-88294578D01*
X105469501Y-88297872D01*
X105469853Y-88301152D01*
X105469854Y-88301159D01*
X105475909Y-88357484D01*
X105482941Y-88376337D01*
X105526204Y-88492331D01*
X105612454Y-88607546D01*
X105727669Y-88693796D01*
X105862517Y-88744091D01*
X105922127Y-88750500D01*
X106688770Y-88750499D01*
X106755809Y-88770183D01*
X106801564Y-88822987D01*
X106811508Y-88892146D01*
X106782483Y-88955702D01*
X106776451Y-88962180D01*
X106325451Y-89413181D01*
X106264128Y-89446666D01*
X106237770Y-89449500D01*
X104463706Y-89449500D01*
X104445736Y-89448191D01*
X104431853Y-89446157D01*
X104421977Y-89444711D01*
X104421976Y-89444711D01*
X104372631Y-89449028D01*
X104361824Y-89449500D01*
X104356291Y-89449500D01*
X104352730Y-89449916D01*
X104352715Y-89449917D01*
X104325501Y-89453098D01*
X104321916Y-89453464D01*
X104245961Y-89460109D01*
X104226921Y-89464330D01*
X104155232Y-89490421D01*
X104151831Y-89491603D01*
X104079474Y-89515580D01*
X104061927Y-89524075D01*
X103998221Y-89565975D01*
X103995181Y-89567912D01*
X103930280Y-89607944D01*
X103915164Y-89620257D01*
X103862831Y-89675726D01*
X103860319Y-89678312D01*
X101714358Y-91824272D01*
X101700727Y-91836053D01*
X101681468Y-91850391D01*
X101649635Y-91888328D01*
X101642338Y-91896292D01*
X101640972Y-91897657D01*
X101640950Y-91897681D01*
X101638409Y-91900223D01*
X101636173Y-91903050D01*
X101636171Y-91903053D01*
X101619176Y-91924546D01*
X101616902Y-91927337D01*
X101567894Y-91985744D01*
X101557418Y-92002187D01*
X101525192Y-92071294D01*
X101523622Y-92074536D01*
X101489393Y-92142692D01*
X101482996Y-92161098D01*
X101467573Y-92235788D01*
X101466793Y-92239305D01*
X101449208Y-92313506D01*
X101447229Y-92332879D01*
X101449448Y-92409129D01*
X101449500Y-92412735D01*
X101449500Y-100865677D01*
X101432887Y-100927677D01*
X101372820Y-101031715D01*
X101314326Y-101211742D01*
X101294540Y-101400000D01*
X101314326Y-101588257D01*
X101372820Y-101768284D01*
X101467466Y-101932216D01*
X101594129Y-102072889D01*
X101747269Y-102184151D01*
X101920197Y-102261144D01*
X102105352Y-102300500D01*
X102105354Y-102300500D01*
X102294643Y-102300500D01*
X102294646Y-102300500D01*
X102321381Y-102294817D01*
X102391045Y-102300132D01*
X102446779Y-102342268D01*
X102470886Y-102407847D01*
X102455710Y-102476049D01*
X102434842Y-102503788D01*
X101714358Y-103224272D01*
X101700727Y-103236053D01*
X101681468Y-103250391D01*
X101649635Y-103288328D01*
X101642338Y-103296292D01*
X101640972Y-103297657D01*
X101640950Y-103297681D01*
X101638409Y-103300223D01*
X101636173Y-103303050D01*
X101636171Y-103303053D01*
X101619176Y-103324546D01*
X101616902Y-103327337D01*
X101567894Y-103385744D01*
X101557418Y-103402187D01*
X101525192Y-103471294D01*
X101523622Y-103474536D01*
X101489393Y-103542692D01*
X101482996Y-103561098D01*
X101467573Y-103635788D01*
X101466793Y-103639305D01*
X101449208Y-103713506D01*
X101447229Y-103732879D01*
X101449448Y-103809129D01*
X101449500Y-103812735D01*
X101449500Y-109197769D01*
X101429815Y-109264808D01*
X101413181Y-109285450D01*
X100353585Y-110345046D01*
X100292262Y-110378531D01*
X100222570Y-110373547D01*
X100166637Y-110331675D01*
X100142376Y-110268172D01*
X100135063Y-110184592D01*
X100119844Y-110127795D01*
X100073903Y-109956337D01*
X99974035Y-109742171D01*
X99838495Y-109548599D01*
X99671401Y-109381505D01*
X99485839Y-109251573D01*
X99442217Y-109196998D01*
X99435024Y-109127499D01*
X99466546Y-109065145D01*
X99485837Y-109048428D01*
X99671401Y-108918495D01*
X99838495Y-108751401D01*
X99974035Y-108557830D01*
X100073903Y-108343663D01*
X100135063Y-108115408D01*
X100155659Y-107880000D01*
X100135063Y-107644592D01*
X100073903Y-107416337D01*
X99974035Y-107202171D01*
X99838495Y-107008599D01*
X99671401Y-106841505D01*
X99485839Y-106711573D01*
X99442215Y-106656997D01*
X99435023Y-106587498D01*
X99466545Y-106525144D01*
X99485831Y-106508432D01*
X99671401Y-106378495D01*
X99838495Y-106211401D01*
X99974035Y-106017830D01*
X100073903Y-105803663D01*
X100135063Y-105575408D01*
X100155659Y-105340000D01*
X100135063Y-105104592D01*
X100073903Y-104876337D01*
X99974035Y-104662171D01*
X99838495Y-104468599D01*
X99671401Y-104301505D01*
X99485839Y-104171573D01*
X99442216Y-104116998D01*
X99435022Y-104047500D01*
X99466545Y-103985145D01*
X99485837Y-103968428D01*
X99671401Y-103838495D01*
X99838495Y-103671401D01*
X99974035Y-103477830D01*
X100073903Y-103263663D01*
X100135063Y-103035408D01*
X100155659Y-102800000D01*
X100135063Y-102564592D01*
X100073903Y-102336337D01*
X99974035Y-102122171D01*
X99838495Y-101928599D01*
X99671401Y-101761505D01*
X99485839Y-101631573D01*
X99442215Y-101576997D01*
X99435023Y-101507498D01*
X99466545Y-101445144D01*
X99485831Y-101428432D01*
X99671401Y-101298495D01*
X99838495Y-101131401D01*
X99974035Y-100937830D01*
X100073903Y-100723663D01*
X100135063Y-100495408D01*
X100155659Y-100260000D01*
X100135063Y-100024592D01*
X100073903Y-99796337D01*
X99974035Y-99582171D01*
X99838495Y-99388599D01*
X99716569Y-99266673D01*
X99683084Y-99205350D01*
X99688068Y-99135658D01*
X99729940Y-99079725D01*
X99760915Y-99062810D01*
X99892331Y-99013796D01*
X100007546Y-98927546D01*
X100093796Y-98812331D01*
X100144091Y-98677483D01*
X100150500Y-98617873D01*
X100150499Y-96822128D01*
X100144091Y-96762517D01*
X100093796Y-96627669D01*
X100007546Y-96512454D01*
X99892331Y-96426204D01*
X99757483Y-96375909D01*
X99697873Y-96369500D01*
X99694550Y-96369500D01*
X97905439Y-96369500D01*
X97905420Y-96369500D01*
X97902128Y-96369501D01*
X97898848Y-96369853D01*
X97898840Y-96369854D01*
X97842515Y-96375909D01*
X97707669Y-96426204D01*
X97592454Y-96512454D01*
X97506204Y-96627668D01*
X97455909Y-96762516D01*
X97451377Y-96804673D01*
X97449500Y-96822127D01*
X97449500Y-96825448D01*
X97449500Y-96825449D01*
X97449500Y-98614560D01*
X97449500Y-98614578D01*
X97449501Y-98617872D01*
X97449853Y-98621152D01*
X97449854Y-98621159D01*
X97455642Y-98675000D01*
X97455909Y-98677483D01*
X97506204Y-98812331D01*
X97592454Y-98927546D01*
X97707669Y-99013796D01*
X97819907Y-99055658D01*
X97839082Y-99062810D01*
X97895016Y-99104681D01*
X97919433Y-99170146D01*
X97904581Y-99238419D01*
X97883431Y-99266673D01*
X97761503Y-99388601D01*
X97625965Y-99582170D01*
X97526097Y-99796336D01*
X97464936Y-100024592D01*
X97444340Y-100260000D01*
X97464936Y-100495407D01*
X97507453Y-100654081D01*
X97526097Y-100723663D01*
X97625965Y-100937830D01*
X97761505Y-101131401D01*
X97928599Y-101298495D01*
X98114160Y-101428426D01*
X98157783Y-101483002D01*
X98164976Y-101552501D01*
X98133454Y-101614855D01*
X98114160Y-101631574D01*
X98059387Y-101669927D01*
X97928595Y-101761508D01*
X97761505Y-101928598D01*
X97625965Y-102122170D01*
X97526097Y-102336336D01*
X97464936Y-102564592D01*
X97444340Y-102799999D01*
X97464936Y-103035407D01*
X97509709Y-103202502D01*
X97526097Y-103263663D01*
X97625965Y-103477830D01*
X97761505Y-103671401D01*
X97928599Y-103838495D01*
X98114160Y-103968426D01*
X98157783Y-104023002D01*
X98164976Y-104092501D01*
X98133454Y-104154855D01*
X98114159Y-104171575D01*
X97928595Y-104301508D01*
X97761505Y-104468598D01*
X97625965Y-104662170D01*
X97526097Y-104876336D01*
X97464936Y-105104592D01*
X97444340Y-105340000D01*
X97464936Y-105575407D01*
X97509709Y-105742501D01*
X97526097Y-105803663D01*
X97625965Y-106017830D01*
X97761505Y-106211401D01*
X97928599Y-106378495D01*
X98114160Y-106508426D01*
X98157783Y-106563002D01*
X98164976Y-106632501D01*
X98133454Y-106694855D01*
X98114160Y-106711574D01*
X97936950Y-106835658D01*
X97928595Y-106841508D01*
X97761505Y-107008598D01*
X97625965Y-107202170D01*
X97526097Y-107416336D01*
X97464936Y-107644592D01*
X97444340Y-107879999D01*
X97464936Y-108115407D01*
X97507651Y-108274821D01*
X97526097Y-108343663D01*
X97625965Y-108557830D01*
X97761505Y-108751401D01*
X97928599Y-108918495D01*
X98114160Y-109048426D01*
X98157783Y-109103002D01*
X98164976Y-109172501D01*
X98133454Y-109234855D01*
X98114158Y-109251575D01*
X98023786Y-109314855D01*
X97928595Y-109381508D01*
X97761505Y-109548598D01*
X97625965Y-109742170D01*
X97526097Y-109956336D01*
X97464936Y-110184592D01*
X97444340Y-110420000D01*
X97464936Y-110655407D01*
X97498499Y-110780665D01*
X97526097Y-110883663D01*
X97625965Y-111097830D01*
X97761505Y-111291401D01*
X97928599Y-111458495D01*
X98114160Y-111588426D01*
X98157783Y-111643002D01*
X98164976Y-111712501D01*
X98133454Y-111774855D01*
X98114158Y-111791575D01*
X97930349Y-111920280D01*
X97928595Y-111921508D01*
X97761505Y-112088598D01*
X97625965Y-112282170D01*
X97526097Y-112496336D01*
X97464936Y-112724592D01*
X97444340Y-112960000D01*
X97464936Y-113195407D01*
X97489157Y-113285800D01*
X97526097Y-113423663D01*
X97625965Y-113637830D01*
X97761505Y-113831401D01*
X97928599Y-113998495D01*
X98122170Y-114134035D01*
X98336337Y-114233903D01*
X98564592Y-114295063D01*
X98800000Y-114315659D01*
X99035408Y-114295063D01*
X99263663Y-114233903D01*
X99477830Y-114134035D01*
X99671401Y-113998495D01*
X99838495Y-113831401D01*
X99974035Y-113637830D01*
X100073903Y-113423663D01*
X100135063Y-113195408D01*
X100155659Y-112960000D01*
X100137022Y-112746985D01*
X100150788Y-112678486D01*
X100172866Y-112648500D01*
X102685638Y-110135727D01*
X102699256Y-110123957D01*
X102718530Y-110109610D01*
X102750372Y-110071661D01*
X102757686Y-110063681D01*
X102758267Y-110063099D01*
X102761590Y-110059777D01*
X102780837Y-110035433D01*
X102783031Y-110032738D01*
X102831302Y-109975214D01*
X102831303Y-109975210D01*
X102832118Y-109974240D01*
X102842573Y-109957827D01*
X102843106Y-109956682D01*
X102843111Y-109956677D01*
X102874833Y-109888646D01*
X102876362Y-109885488D01*
X102910040Y-109818433D01*
X102910040Y-109818432D01*
X102910612Y-109817294D01*
X102917000Y-109798914D01*
X102917255Y-109797675D01*
X102917257Y-109797673D01*
X102932433Y-109724168D01*
X102933194Y-109720734D01*
X102950500Y-109647721D01*
X102950500Y-109647716D01*
X102950790Y-109646493D01*
X102952769Y-109627123D01*
X102952732Y-109625859D01*
X102952733Y-109625856D01*
X102950552Y-109550888D01*
X102950500Y-109547283D01*
X102950500Y-104162228D01*
X102970185Y-104095189D01*
X102986814Y-104074552D01*
X104286217Y-102775148D01*
X104347538Y-102741665D01*
X104417230Y-102746649D01*
X104473163Y-102788521D01*
X104497580Y-102853985D01*
X104491602Y-102901834D01*
X104460000Y-102997200D01*
X104449819Y-103096858D01*
X104449817Y-103096878D01*
X104449500Y-103099991D01*
X104449500Y-103103138D01*
X104449500Y-103103139D01*
X104449500Y-103896858D01*
X104449500Y-103896877D01*
X104449501Y-103900008D01*
X104449820Y-103903140D01*
X104449821Y-103903141D01*
X104460000Y-104002796D01*
X104515186Y-104169334D01*
X104607288Y-104318657D01*
X104700950Y-104412319D01*
X104734435Y-104473642D01*
X104729451Y-104543334D01*
X104700950Y-104587681D01*
X104607288Y-104681342D01*
X104515186Y-104830665D01*
X104460000Y-104997202D01*
X104449819Y-105096858D01*
X104449817Y-105096878D01*
X104449500Y-105099991D01*
X104449500Y-105103138D01*
X104449500Y-105103139D01*
X104449500Y-105896858D01*
X104449500Y-105896877D01*
X104449501Y-105900008D01*
X104449820Y-105903140D01*
X104449821Y-105903141D01*
X104460000Y-106002796D01*
X104515186Y-106169334D01*
X104607285Y-106318653D01*
X104607287Y-106318655D01*
X104607288Y-106318656D01*
X104613180Y-106324548D01*
X104646665Y-106385868D01*
X104649500Y-106412230D01*
X104649500Y-107523221D01*
X104649460Y-107526363D01*
X104647242Y-107613862D01*
X104657648Y-107671920D01*
X104658957Y-107681249D01*
X104664926Y-107739938D01*
X104674033Y-107768967D01*
X104677772Y-107784202D01*
X104683141Y-107814152D01*
X104705020Y-107868925D01*
X104708180Y-107877800D01*
X104725841Y-107934088D01*
X104740607Y-107960691D01*
X104747337Y-107974864D01*
X104758622Y-108003117D01*
X104791080Y-108052367D01*
X104795961Y-108060423D01*
X104824590Y-108112001D01*
X104844404Y-108135081D01*
X104853856Y-108147616D01*
X104870599Y-108173020D01*
X104912299Y-108214720D01*
X104918704Y-108221630D01*
X104957137Y-108266398D01*
X104981193Y-108285019D01*
X104992972Y-108295393D01*
X105088181Y-108390602D01*
X105121666Y-108451925D01*
X105124500Y-108478282D01*
X105124500Y-108621858D01*
X105124500Y-108621877D01*
X105124501Y-108625008D01*
X105124820Y-108628139D01*
X105124821Y-108628142D01*
X105135000Y-108727796D01*
X105190186Y-108894334D01*
X105282286Y-109043654D01*
X105282287Y-109043655D01*
X105282288Y-109043656D01*
X105406344Y-109167712D01*
X105406346Y-109167713D01*
X105416593Y-109177960D01*
X105415288Y-109179264D01*
X105449819Y-109217652D01*
X105462000Y-109271247D01*
X105462000Y-109548794D01*
X105460691Y-109566764D01*
X105457211Y-109590523D01*
X105461528Y-109639868D01*
X105462000Y-109650675D01*
X105462000Y-109656209D01*
X105462416Y-109659772D01*
X105462417Y-109659782D01*
X105465598Y-109686996D01*
X105465964Y-109690582D01*
X105472609Y-109766541D01*
X105476829Y-109785571D01*
X105477258Y-109786751D01*
X105477259Y-109786755D01*
X105502913Y-109857242D01*
X105504082Y-109860607D01*
X105528080Y-109933024D01*
X105536575Y-109950572D01*
X105578479Y-110014284D01*
X105580416Y-110017325D01*
X105606987Y-110060403D01*
X105625428Y-110127795D01*
X105604506Y-110194459D01*
X105550864Y-110239228D01*
X105501449Y-110249500D01*
X104463706Y-110249500D01*
X104445736Y-110248191D01*
X104431853Y-110246157D01*
X104421977Y-110244711D01*
X104421976Y-110244711D01*
X104372634Y-110249028D01*
X104361827Y-110249500D01*
X104356291Y-110249500D01*
X104352730Y-110249916D01*
X104352715Y-110249917D01*
X104325484Y-110253100D01*
X104321900Y-110253466D01*
X104245950Y-110260111D01*
X104226922Y-110264329D01*
X104155270Y-110290407D01*
X104151869Y-110291589D01*
X104079480Y-110315578D01*
X104061927Y-110324076D01*
X103998236Y-110365965D01*
X103995198Y-110367901D01*
X103930277Y-110407947D01*
X103915163Y-110420258D01*
X103862821Y-110475737D01*
X103860339Y-110478292D01*
X103847226Y-110491405D01*
X103847226Y-110491406D01*
X103785901Y-110524888D01*
X103785329Y-110525011D01*
X103720197Y-110538855D01*
X103547269Y-110615848D01*
X103394129Y-110727110D01*
X103267466Y-110867783D01*
X103172820Y-111031715D01*
X103114326Y-111211742D01*
X103097546Y-111371401D01*
X103094540Y-111400000D01*
X103100688Y-111458495D01*
X103114326Y-111588257D01*
X103172820Y-111768284D01*
X103267466Y-111932216D01*
X103394129Y-112072889D01*
X103547269Y-112184151D01*
X103720197Y-112261144D01*
X103905352Y-112300500D01*
X103905354Y-112300500D01*
X104094648Y-112300500D01*
X104218083Y-112274262D01*
X104279803Y-112261144D01*
X104452730Y-112184151D01*
X104502923Y-112147684D01*
X104605870Y-112072889D01*
X104701103Y-111967123D01*
X104732533Y-111932216D01*
X104801650Y-111812500D01*
X104852218Y-111764285D01*
X104909038Y-111750500D01*
X106837771Y-111750500D01*
X106904810Y-111770185D01*
X106925452Y-111786819D01*
X107058913Y-111920280D01*
X107070695Y-111933913D01*
X107085036Y-111953176D01*
X107122989Y-111985023D01*
X107130955Y-111992323D01*
X107132320Y-111993688D01*
X107132326Y-111993693D01*
X107134869Y-111996236D01*
X107137688Y-111998465D01*
X107137696Y-111998472D01*
X107159188Y-112015465D01*
X107161944Y-112017709D01*
X107219432Y-112065948D01*
X107219434Y-112065949D01*
X107220403Y-112066762D01*
X107236823Y-112077222D01*
X107237967Y-112077755D01*
X107237969Y-112077757D01*
X107306003Y-112109481D01*
X107309102Y-112110981D01*
X107376213Y-112144686D01*
X107377350Y-112145257D01*
X107395730Y-112151644D01*
X107396967Y-112151899D01*
X107396973Y-112151902D01*
X107470508Y-112167085D01*
X107473855Y-112167827D01*
X107546925Y-112185146D01*
X107546927Y-112185146D01*
X107548151Y-112185436D01*
X107567522Y-112187415D01*
X107568786Y-112187378D01*
X107568790Y-112187379D01*
X107643756Y-112185198D01*
X107647362Y-112185146D01*
X107926296Y-112185146D01*
X107953941Y-112188267D01*
X107955690Y-112188667D01*
X107955690Y-112188666D01*
X107959842Y-112189616D01*
X107967377Y-112190356D01*
X107971639Y-112190231D01*
X107971644Y-112190233D01*
X108050105Y-112187949D01*
X108052660Y-112187902D01*
X108402993Y-112185146D01*
X108443709Y-112185146D01*
X108446538Y-112184815D01*
X108448800Y-112184815D01*
X108449059Y-112184882D01*
X108449594Y-112184783D01*
X108448800Y-112184815D01*
X108446538Y-112184815D01*
X108446649Y-112184802D01*
X108448687Y-112184786D01*
X108448722Y-112184795D01*
X108449112Y-112184782D01*
X108449616Y-112184779D01*
X108449623Y-112184778D01*
X111610438Y-112159889D01*
X111677627Y-112179045D01*
X111716950Y-112218789D01*
X111732288Y-112243657D01*
X111856342Y-112367711D01*
X111903743Y-112396948D01*
X112005666Y-112459814D01*
X112076838Y-112483398D01*
X112172202Y-112514999D01*
X112271858Y-112525180D01*
X112271859Y-112525180D01*
X112274991Y-112525500D01*
X113325008Y-112525499D01*
X113427797Y-112514999D01*
X113523162Y-112483397D01*
X113592988Y-112480996D01*
X113653030Y-112516727D01*
X113684223Y-112579248D01*
X113676663Y-112648707D01*
X113649845Y-112688785D01*
X113457993Y-112880637D01*
X113396670Y-112914122D01*
X113335717Y-112912032D01*
X113302571Y-112902402D01*
X113268128Y-112899691D01*
X113268114Y-112899690D01*
X113265694Y-112899500D01*
X112734306Y-112899500D01*
X112731886Y-112899690D01*
X112731871Y-112899691D01*
X112697427Y-112902402D01*
X112539602Y-112948255D01*
X112398134Y-113031919D01*
X112281919Y-113148134D01*
X112198255Y-113289602D01*
X112152402Y-113447427D01*
X112149691Y-113481871D01*
X112149690Y-113481886D01*
X112149500Y-113484306D01*
X112149500Y-113915694D01*
X112149690Y-113918114D01*
X112149691Y-113918128D01*
X112152402Y-113952572D01*
X112198255Y-114110397D01*
X112228997Y-114162379D01*
X112246180Y-114230103D01*
X112224020Y-114296366D01*
X112169554Y-114340129D01*
X112122265Y-114349500D01*
X111363706Y-114349500D01*
X111345736Y-114348191D01*
X111331853Y-114346157D01*
X111321977Y-114344711D01*
X111321976Y-114344711D01*
X111272631Y-114349028D01*
X111261824Y-114349500D01*
X111256291Y-114349500D01*
X111252730Y-114349916D01*
X111252715Y-114349917D01*
X111225501Y-114353098D01*
X111221916Y-114353464D01*
X111145961Y-114360109D01*
X111126921Y-114364330D01*
X111055232Y-114390421D01*
X111051831Y-114391603D01*
X110979474Y-114415580D01*
X110961927Y-114424075D01*
X110898221Y-114465975D01*
X110895181Y-114467912D01*
X110830280Y-114507944D01*
X110815165Y-114520256D01*
X110762832Y-114575725D01*
X110760320Y-114578311D01*
X109725451Y-115613181D01*
X109664128Y-115646666D01*
X109637770Y-115649500D01*
X99263706Y-115649500D01*
X99245736Y-115648191D01*
X99231853Y-115646157D01*
X99221977Y-115644711D01*
X99221976Y-115644711D01*
X99172634Y-115649028D01*
X99161827Y-115649500D01*
X97705439Y-115649500D01*
X97705420Y-115649500D01*
X97702128Y-115649501D01*
X97698848Y-115649853D01*
X97698840Y-115649854D01*
X97642515Y-115655909D01*
X97507669Y-115706204D01*
X97392454Y-115792454D01*
X97306204Y-115907668D01*
X97306203Y-115907669D01*
X97306204Y-115907669D01*
X97255909Y-116042517D01*
X97249500Y-116102127D01*
X97249500Y-116105448D01*
X97249500Y-116105449D01*
X97249500Y-117894560D01*
X97249500Y-117894578D01*
X97249501Y-117897872D01*
X97249853Y-117901152D01*
X97249854Y-117901159D01*
X97255909Y-117957484D01*
X97261826Y-117973347D01*
X97306204Y-118092331D01*
X97392454Y-118207546D01*
X97507669Y-118293796D01*
X97642517Y-118344091D01*
X97702127Y-118350500D01*
X99497872Y-118350499D01*
X99557483Y-118344091D01*
X99692331Y-118293796D01*
X99807546Y-118207546D01*
X99893796Y-118092331D01*
X99944091Y-117957483D01*
X99950500Y-117897873D01*
X99950500Y-117274500D01*
X99970185Y-117207461D01*
X100022989Y-117161706D01*
X100074500Y-117150500D01*
X108405953Y-117150500D01*
X108472992Y-117170185D01*
X108518747Y-117222989D01*
X108528691Y-117292147D01*
X108499666Y-117355703D01*
X108449288Y-117390680D01*
X108425566Y-117399528D01*
X108407668Y-117406204D01*
X108292454Y-117492454D01*
X108206204Y-117607668D01*
X108155909Y-117742516D01*
X108153418Y-117765690D01*
X108149500Y-117802127D01*
X108149500Y-117805448D01*
X108149500Y-117805449D01*
X108149500Y-119444560D01*
X108149500Y-119444578D01*
X108149501Y-119447872D01*
X108149853Y-119451152D01*
X108149854Y-119451159D01*
X108155909Y-119507483D01*
X108206204Y-119642331D01*
X108292454Y-119757546D01*
X108312309Y-119772409D01*
X108354181Y-119828342D01*
X108362000Y-119871677D01*
X108362000Y-119925500D01*
X108342315Y-119992539D01*
X108289511Y-120038294D01*
X108238000Y-120049500D01*
X108164343Y-120049500D01*
X108142121Y-120047229D01*
X108065869Y-120049448D01*
X108062263Y-120049500D01*
X100074499Y-120049500D01*
X100007460Y-120029815D01*
X99961705Y-119977011D01*
X99950499Y-119925500D01*
X99950499Y-119905439D01*
X99950499Y-119902128D01*
X99944091Y-119842517D01*
X99893796Y-119707669D01*
X99807546Y-119592454D01*
X99692331Y-119506204D01*
X99557483Y-119455909D01*
X99557482Y-119455909D01*
X99501166Y-119449854D01*
X99501165Y-119449853D01*
X99497873Y-119449500D01*
X99494550Y-119449500D01*
X97705439Y-119449500D01*
X97705420Y-119449500D01*
X97702128Y-119449501D01*
X97698848Y-119449853D01*
X97698840Y-119449854D01*
X97642515Y-119455909D01*
X97507669Y-119506204D01*
X97392454Y-119592454D01*
X97306204Y-119707668D01*
X97255909Y-119842516D01*
X97252724Y-119872145D01*
X97249500Y-119902127D01*
X97249500Y-119905448D01*
X97249500Y-119905449D01*
X97249500Y-121694560D01*
X97249500Y-121694578D01*
X97249501Y-121697872D01*
X97255909Y-121757483D01*
X97306204Y-121892331D01*
X97392454Y-122007546D01*
X97507669Y-122093796D01*
X97642517Y-122144091D01*
X97702127Y-122150500D01*
X99497872Y-122150499D01*
X99557483Y-122144091D01*
X99692331Y-122093796D01*
X99807546Y-122007546D01*
X99893796Y-121892331D01*
X99944091Y-121757483D01*
X99950500Y-121697873D01*
X99950500Y-121674500D01*
X99970185Y-121607461D01*
X100022989Y-121561706D01*
X100074500Y-121550500D01*
X107025501Y-121550500D01*
X107092540Y-121570185D01*
X107138295Y-121622989D01*
X107149501Y-121674499D01*
X107149501Y-121897872D01*
X107149853Y-121901152D01*
X107149854Y-121901159D01*
X107155909Y-121957484D01*
X107171942Y-122000469D01*
X107206204Y-122092331D01*
X107292454Y-122207546D01*
X107407669Y-122293796D01*
X107542517Y-122344091D01*
X107602127Y-122350500D01*
X109262818Y-122350499D01*
X109329857Y-122370184D01*
X109362084Y-122400188D01*
X109442451Y-122507543D01*
X109442452Y-122507544D01*
X109442454Y-122507546D01*
X109557669Y-122593796D01*
X109692517Y-122644091D01*
X109752127Y-122650500D01*
X111647872Y-122650499D01*
X111707483Y-122644091D01*
X111842331Y-122593796D01*
X111957546Y-122507546D01*
X112043796Y-122392331D01*
X112085257Y-122281165D01*
X112127128Y-122225233D01*
X112192592Y-122200816D01*
X112201439Y-122200500D01*
X112298561Y-122200500D01*
X112365600Y-122220185D01*
X112411355Y-122272989D01*
X112414738Y-122281156D01*
X112456204Y-122392331D01*
X112542454Y-122507546D01*
X112657669Y-122593796D01*
X112792517Y-122644091D01*
X112852127Y-122650500D01*
X113947872Y-122650499D01*
X114007483Y-122644091D01*
X114142331Y-122593796D01*
X114257546Y-122507546D01*
X114337914Y-122400187D01*
X114393848Y-122358317D01*
X114437181Y-122350499D01*
X116094561Y-122350499D01*
X116097872Y-122350499D01*
X116157483Y-122344091D01*
X116292331Y-122293796D01*
X116383919Y-122225232D01*
X116449384Y-122200816D01*
X116458230Y-122200500D01*
X119660721Y-122200500D01*
X119663862Y-122200539D01*
X119751363Y-122202757D01*
X119809432Y-122192348D01*
X119818736Y-122191043D01*
X119877438Y-122185074D01*
X119906467Y-122175965D01*
X119921700Y-122172226D01*
X119951653Y-122166858D01*
X120006426Y-122144978D01*
X120015301Y-122141819D01*
X120032675Y-122136367D01*
X120071588Y-122124159D01*
X120098194Y-122109390D01*
X120112362Y-122102662D01*
X120140617Y-122091377D01*
X120189879Y-122058909D01*
X120197910Y-122054043D01*
X120249502Y-122025409D01*
X120272587Y-122005589D01*
X120285111Y-121996145D01*
X120304363Y-121983458D01*
X120371172Y-121963007D01*
X120372594Y-121962999D01*
X120521859Y-121962999D01*
X120525008Y-121962999D01*
X120627797Y-121952499D01*
X120794334Y-121897314D01*
X120943656Y-121805212D01*
X121067712Y-121681156D01*
X121159814Y-121531834D01*
X121214999Y-121365297D01*
X121225500Y-121262509D01*
X121225499Y-120487492D01*
X121214999Y-120384703D01*
X121159814Y-120218166D01*
X121067712Y-120068844D01*
X121067711Y-120068842D01*
X120943659Y-119944790D01*
X120940345Y-119942746D01*
X120893620Y-119890799D01*
X120882396Y-119821836D01*
X120910238Y-119757754D01*
X120940348Y-119731664D01*
X120943345Y-119729815D01*
X121064257Y-119608903D01*
X121125580Y-119575418D01*
X121177720Y-119575294D01*
X121229852Y-119586375D01*
X121229854Y-119586375D01*
X121419148Y-119586375D01*
X121542583Y-119560137D01*
X121604303Y-119547019D01*
X121777230Y-119470026D01*
X121795679Y-119456622D01*
X121930370Y-119358764D01*
X121988653Y-119294035D01*
X122057033Y-119218091D01*
X122151679Y-119054159D01*
X122171538Y-118993039D01*
X122210174Y-118874132D01*
X122223668Y-118745731D01*
X122250252Y-118681116D01*
X122259299Y-118671019D01*
X122935465Y-117994853D01*
X122996786Y-117961370D01*
X123066478Y-117966354D01*
X123122411Y-118008226D01*
X123146828Y-118073690D01*
X123146672Y-118093341D01*
X123144340Y-118119997D01*
X123164936Y-118355407D01*
X123179401Y-118409390D01*
X123226097Y-118583663D01*
X123325965Y-118797830D01*
X123461505Y-118991401D01*
X123628599Y-119158495D01*
X123814160Y-119288426D01*
X123857783Y-119343002D01*
X123864976Y-119412501D01*
X123833454Y-119474855D01*
X123814158Y-119491575D01*
X123670089Y-119592454D01*
X123628595Y-119621508D01*
X123461505Y-119788598D01*
X123325965Y-119982170D01*
X123226097Y-120196336D01*
X123164936Y-120424592D01*
X123144340Y-120659999D01*
X123164936Y-120895407D01*
X123209709Y-121062502D01*
X123226097Y-121123663D01*
X123325965Y-121337830D01*
X123461505Y-121531401D01*
X123628599Y-121698495D01*
X123822170Y-121834035D01*
X124036337Y-121933903D01*
X124221285Y-121983459D01*
X124264592Y-121995063D01*
X124499999Y-122015659D01*
X124499999Y-122015658D01*
X124500000Y-122015659D01*
X124735408Y-121995063D01*
X124963663Y-121933903D01*
X125177830Y-121834035D01*
X125371401Y-121698495D01*
X125538495Y-121531401D01*
X125674035Y-121337830D01*
X125773903Y-121123663D01*
X125835063Y-120895408D01*
X125855659Y-120660000D01*
X125835063Y-120424592D01*
X125773903Y-120196337D01*
X125674035Y-119982171D01*
X125538495Y-119788599D01*
X125371401Y-119621505D01*
X125185839Y-119491573D01*
X125142217Y-119436998D01*
X125135024Y-119367499D01*
X125166546Y-119305145D01*
X125185837Y-119288428D01*
X125371401Y-119158495D01*
X125538495Y-118991401D01*
X125674035Y-118797830D01*
X125773903Y-118583663D01*
X125835063Y-118355408D01*
X125855659Y-118120000D01*
X125835063Y-117884592D01*
X125773903Y-117656337D01*
X125674035Y-117442171D01*
X125538495Y-117248599D01*
X125371401Y-117081505D01*
X125185839Y-116951573D01*
X125142216Y-116896998D01*
X125135022Y-116827500D01*
X125166545Y-116765145D01*
X125185837Y-116748428D01*
X125371401Y-116618495D01*
X125538495Y-116451401D01*
X125674035Y-116257830D01*
X125773903Y-116043663D01*
X125835063Y-115815408D01*
X125855659Y-115580000D01*
X125835063Y-115344592D01*
X125773903Y-115116337D01*
X125674035Y-114902171D01*
X125538495Y-114708599D01*
X125371401Y-114541505D01*
X125185839Y-114411573D01*
X125142215Y-114356997D01*
X125135023Y-114287498D01*
X125166545Y-114225144D01*
X125185831Y-114208432D01*
X125371401Y-114078495D01*
X125538495Y-113911401D01*
X125674035Y-113717830D01*
X125773903Y-113503663D01*
X125835063Y-113275408D01*
X125855659Y-113040000D01*
X125835063Y-112804592D01*
X125773903Y-112576337D01*
X125674035Y-112362171D01*
X125538495Y-112168599D01*
X125371401Y-112001505D01*
X125185839Y-111871573D01*
X125142216Y-111816998D01*
X125135022Y-111747500D01*
X125166545Y-111685145D01*
X125185837Y-111668428D01*
X125371401Y-111538495D01*
X125538495Y-111371401D01*
X125674035Y-111177830D01*
X125773903Y-110963663D01*
X125835063Y-110735408D01*
X125855659Y-110500000D01*
X125835063Y-110264592D01*
X125773903Y-110036337D01*
X125674035Y-109822171D01*
X125538495Y-109628599D01*
X125371401Y-109461505D01*
X125185839Y-109331573D01*
X125142215Y-109276997D01*
X125135023Y-109207498D01*
X125166545Y-109145144D01*
X125185831Y-109128432D01*
X125371401Y-108998495D01*
X125538495Y-108831401D01*
X125674035Y-108637830D01*
X125773903Y-108423663D01*
X125835063Y-108195408D01*
X125855659Y-107960000D01*
X125835063Y-107724592D01*
X125773903Y-107496337D01*
X125674035Y-107282171D01*
X125538495Y-107088599D01*
X125416569Y-106966673D01*
X125383084Y-106905350D01*
X125388068Y-106835658D01*
X125429940Y-106779725D01*
X125460915Y-106762810D01*
X125592331Y-106713796D01*
X125707546Y-106627546D01*
X125793796Y-106512331D01*
X125844091Y-106377483D01*
X125850500Y-106317873D01*
X125850499Y-104522128D01*
X125844091Y-104462517D01*
X125793796Y-104327669D01*
X125707546Y-104212454D01*
X125592331Y-104126204D01*
X125457483Y-104075909D01*
X125444815Y-104074547D01*
X125401166Y-104069854D01*
X125401165Y-104069853D01*
X125397873Y-104069500D01*
X125394550Y-104069500D01*
X123605439Y-104069500D01*
X123605420Y-104069500D01*
X123602128Y-104069501D01*
X123598848Y-104069853D01*
X123598840Y-104069854D01*
X123542515Y-104075909D01*
X123407669Y-104126204D01*
X123292454Y-104212454D01*
X123206204Y-104327668D01*
X123155910Y-104462515D01*
X123155909Y-104462517D01*
X123149500Y-104522127D01*
X123149500Y-104525448D01*
X123149500Y-104525449D01*
X123149500Y-106314560D01*
X123149500Y-106314578D01*
X123149501Y-106317872D01*
X123149853Y-106321152D01*
X123149854Y-106321159D01*
X123155909Y-106377484D01*
X123156286Y-106378495D01*
X123206204Y-106512331D01*
X123292454Y-106627546D01*
X123407669Y-106713796D01*
X123519907Y-106755658D01*
X123539082Y-106762810D01*
X123595016Y-106804681D01*
X123619433Y-106870146D01*
X123604581Y-106938419D01*
X123583431Y-106966673D01*
X123461503Y-107088601D01*
X123325965Y-107282170D01*
X123226097Y-107496336D01*
X123164936Y-107724592D01*
X123144340Y-107959999D01*
X123164936Y-108195407D01*
X123203730Y-108340186D01*
X123226097Y-108423663D01*
X123325965Y-108637830D01*
X123461505Y-108831401D01*
X123628599Y-108998495D01*
X123814160Y-109128426D01*
X123857783Y-109183002D01*
X123864976Y-109252501D01*
X123833454Y-109314855D01*
X123814159Y-109331575D01*
X123628595Y-109461508D01*
X123461505Y-109628598D01*
X123325965Y-109822170D01*
X123226097Y-110036336D01*
X123164936Y-110264592D01*
X123144340Y-110499999D01*
X123164936Y-110735407D01*
X123204661Y-110883662D01*
X123226097Y-110963663D01*
X123325965Y-111177830D01*
X123461505Y-111371401D01*
X123628599Y-111538495D01*
X123814160Y-111668426D01*
X123857783Y-111723002D01*
X123864976Y-111792501D01*
X123833454Y-111854855D01*
X123814158Y-111871575D01*
X123641713Y-111992323D01*
X123628595Y-112001508D01*
X123461505Y-112168598D01*
X123325965Y-112362170D01*
X123226097Y-112576336D01*
X123164936Y-112804592D01*
X123152682Y-112944654D01*
X123127229Y-113009722D01*
X123070638Y-113050701D01*
X123000876Y-113054579D01*
X122941473Y-113021527D01*
X122486819Y-112566873D01*
X122453334Y-112505550D01*
X122450500Y-112479192D01*
X122450500Y-101720808D01*
X122470185Y-101653769D01*
X122486819Y-101633127D01*
X122719947Y-101399999D01*
X122965664Y-101154281D01*
X123026985Y-101120798D01*
X123096676Y-101125782D01*
X123152610Y-101167653D01*
X123177027Y-101233118D01*
X123173118Y-101274056D01*
X123164936Y-101304590D01*
X123144340Y-101539999D01*
X123164936Y-101775407D01*
X123205984Y-101928598D01*
X123226097Y-102003663D01*
X123325965Y-102217830D01*
X123461505Y-102411401D01*
X123628599Y-102578495D01*
X123822170Y-102714035D01*
X124036337Y-102813903D01*
X124264592Y-102875063D01*
X124500000Y-102895659D01*
X124735408Y-102875063D01*
X124963663Y-102813903D01*
X125177830Y-102714035D01*
X125371401Y-102578495D01*
X125538495Y-102411401D01*
X125674035Y-102217830D01*
X125773903Y-102003663D01*
X125835063Y-101775408D01*
X125855659Y-101540000D01*
X125835063Y-101304592D01*
X125773903Y-101076337D01*
X125674035Y-100862171D01*
X125561068Y-100700837D01*
X125538743Y-100634636D01*
X125555753Y-100566868D01*
X125574960Y-100542040D01*
X126199510Y-99917490D01*
X126216164Y-99904149D01*
X126217937Y-99902260D01*
X126217940Y-99902259D01*
X126265912Y-99851172D01*
X126268530Y-99848470D01*
X126288911Y-99828091D01*
X126291601Y-99824621D01*
X126299183Y-99815743D01*
X126330448Y-99782450D01*
X126340669Y-99763856D01*
X126351355Y-99747589D01*
X126364361Y-99730822D01*
X126364363Y-99730820D01*
X126382498Y-99688909D01*
X126387633Y-99678431D01*
X126409626Y-99638427D01*
X126414903Y-99617872D01*
X126421208Y-99599456D01*
X126429636Y-99579983D01*
X126436778Y-99534881D01*
X126439143Y-99523462D01*
X126450500Y-99479234D01*
X126450500Y-99458010D01*
X126452027Y-99438611D01*
X126455347Y-99417650D01*
X126452180Y-99384151D01*
X126451049Y-99372196D01*
X126450500Y-99360548D01*
X126450500Y-95305502D01*
X126452841Y-95284297D01*
X126452366Y-95269190D01*
X126450559Y-95211720D01*
X126450499Y-95207824D01*
X126450500Y-95179075D01*
X126449948Y-95174712D01*
X126449031Y-95163064D01*
X126447598Y-95117431D01*
X126441675Y-95097045D01*
X126437731Y-95078004D01*
X126435071Y-95056942D01*
X126418267Y-95014501D01*
X126414484Y-95003452D01*
X126401745Y-94959602D01*
X126398594Y-94954275D01*
X126390937Y-94941326D01*
X126382376Y-94923850D01*
X126374568Y-94904129D01*
X126347731Y-94867191D01*
X126341317Y-94857425D01*
X126318081Y-94818135D01*
X126303074Y-94803128D01*
X126290436Y-94788331D01*
X126277963Y-94771163D01*
X126242779Y-94742056D01*
X126234140Y-94734194D01*
X125847709Y-94347763D01*
X125814224Y-94286440D01*
X125815615Y-94227988D01*
X125835063Y-94155408D01*
X125855659Y-93920000D01*
X125835063Y-93684592D01*
X125773903Y-93456337D01*
X125674035Y-93242171D01*
X125538495Y-93048599D01*
X125371401Y-92881505D01*
X125185839Y-92751573D01*
X125142216Y-92696998D01*
X125135022Y-92627500D01*
X125166545Y-92565145D01*
X125185837Y-92548428D01*
X125371401Y-92418495D01*
X125538495Y-92251401D01*
X125674035Y-92057830D01*
X125773903Y-91843663D01*
X125835063Y-91615408D01*
X125855659Y-91380000D01*
X125835063Y-91144592D01*
X125773903Y-90916337D01*
X125674035Y-90702171D01*
X125538495Y-90508599D01*
X125371401Y-90341505D01*
X125185839Y-90211573D01*
X125142215Y-90156997D01*
X125135023Y-90087498D01*
X125166545Y-90025144D01*
X125185831Y-90008432D01*
X125371401Y-89878495D01*
X125538495Y-89711401D01*
X125674035Y-89517830D01*
X125773903Y-89303663D01*
X125835063Y-89075408D01*
X125855659Y-88840000D01*
X125855441Y-88837514D01*
X125835063Y-88604592D01*
X125826254Y-88571717D01*
X125773903Y-88376337D01*
X125674035Y-88162171D01*
X125538495Y-87968599D01*
X125416568Y-87846673D01*
X125383084Y-87785350D01*
X125388068Y-87715658D01*
X125429940Y-87659725D01*
X125460915Y-87642810D01*
X125592331Y-87593796D01*
X125707546Y-87507546D01*
X125793796Y-87392331D01*
X125844091Y-87257483D01*
X125850500Y-87197873D01*
X125850499Y-85402128D01*
X125844091Y-85342517D01*
X125793796Y-85207669D01*
X125707546Y-85092454D01*
X125592331Y-85006204D01*
X125457483Y-84955909D01*
X125457483Y-84955908D01*
X125401166Y-84949854D01*
X125401165Y-84949853D01*
X125397873Y-84949500D01*
X125394551Y-84949500D01*
X123674500Y-84949500D01*
X123607461Y-84929815D01*
X123561706Y-84877011D01*
X123550500Y-84825500D01*
X123550500Y-83474499D01*
X123570185Y-83407460D01*
X123622989Y-83361705D01*
X123674495Y-83350499D01*
X125397872Y-83350499D01*
X125457483Y-83344091D01*
X125592331Y-83293796D01*
X125707546Y-83207546D01*
X125793796Y-83092331D01*
X125844091Y-82957483D01*
X125850500Y-82897873D01*
X125850499Y-81102128D01*
X125844091Y-81042517D01*
X125793796Y-80907669D01*
X125707546Y-80792454D01*
X125592331Y-80706204D01*
X125457483Y-80655909D01*
X125457483Y-80655908D01*
X125401166Y-80649854D01*
X125401165Y-80649853D01*
X125397873Y-80649500D01*
X125394551Y-80649500D01*
X123674500Y-80649500D01*
X123607461Y-80629815D01*
X123561706Y-80577011D01*
X123550500Y-80525500D01*
X123550500Y-79674499D01*
X123570185Y-79607460D01*
X123622989Y-79561705D01*
X123674495Y-79550499D01*
X125417872Y-79550499D01*
X125477483Y-79544091D01*
X125612331Y-79493796D01*
X125727546Y-79407546D01*
X125813796Y-79292331D01*
X125864091Y-79157483D01*
X125870500Y-79097873D01*
X125870499Y-77302128D01*
X125864091Y-77242517D01*
X125813796Y-77107669D01*
X125727546Y-76992454D01*
X125612331Y-76906204D01*
X125477483Y-76855909D01*
X125417873Y-76849500D01*
X125414551Y-76849500D01*
X123674500Y-76849500D01*
X123607461Y-76829815D01*
X123561706Y-76777011D01*
X123550500Y-76725500D01*
X123550500Y-75863705D01*
X123551809Y-75845735D01*
X123551999Y-75844435D01*
X123555289Y-75821977D01*
X123550971Y-75772633D01*
X123550500Y-75761827D01*
X123550500Y-75759901D01*
X123550500Y-75756291D01*
X123546894Y-75725443D01*
X123546537Y-75721956D01*
X123541822Y-75668061D01*
X123539888Y-75645943D01*
X123535674Y-75626936D01*
X123535241Y-75625745D01*
X123509569Y-75555211D01*
X123508422Y-75551913D01*
X123484814Y-75480665D01*
X123484812Y-75480662D01*
X123484415Y-75479463D01*
X123475929Y-75461936D01*
X123475237Y-75460884D01*
X123475237Y-75460883D01*
X123434025Y-75398224D01*
X123432106Y-75395212D01*
X123392048Y-75330267D01*
X123379750Y-75315172D01*
X123324290Y-75262848D01*
X123321703Y-75260335D01*
X122550728Y-74489360D01*
X122538946Y-74475727D01*
X122524609Y-74456469D01*
X122486666Y-74424631D01*
X122478691Y-74417323D01*
X122477329Y-74415961D01*
X122474777Y-74413409D01*
X122450444Y-74394169D01*
X122447647Y-74391890D01*
X122389251Y-74342890D01*
X122372821Y-74332422D01*
X122303691Y-74300186D01*
X122300447Y-74298615D01*
X122268736Y-74282689D01*
X122233433Y-74264960D01*
X122233431Y-74264959D01*
X122232305Y-74264394D01*
X122211205Y-74257059D01*
X122207094Y-74255142D01*
X122154655Y-74208970D01*
X122135499Y-74142763D01*
X122135499Y-73207128D01*
X122129091Y-73147517D01*
X122116340Y-73113332D01*
X122111357Y-73043642D01*
X122116342Y-73026665D01*
X122127770Y-72996025D01*
X122129091Y-72992483D01*
X122135500Y-72932873D01*
X122135499Y-71937128D01*
X122129091Y-71877517D01*
X122116340Y-71843332D01*
X122111357Y-71773642D01*
X122116342Y-71756665D01*
X122129090Y-71722485D01*
X122129089Y-71722485D01*
X122129091Y-71722483D01*
X122135500Y-71662873D01*
X122135499Y-70667128D01*
X122129091Y-70607517D01*
X122116340Y-70573332D01*
X122111357Y-70503642D01*
X122116342Y-70486665D01*
X122129090Y-70452485D01*
X122129089Y-70452485D01*
X122129091Y-70452483D01*
X122135500Y-70392873D01*
X122135499Y-69397128D01*
X122129091Y-69337517D01*
X122078796Y-69202669D01*
X121992546Y-69087454D01*
X121877331Y-69001204D01*
X121742483Y-68950909D01*
X121682873Y-68944500D01*
X121679550Y-68944500D01*
X120090439Y-68944500D01*
X120090420Y-68944500D01*
X120087128Y-68944501D01*
X120083848Y-68944853D01*
X120083840Y-68944854D01*
X120027515Y-68950909D01*
X119892669Y-69001204D01*
X119780731Y-69085001D01*
X119777454Y-69087454D01*
X119771946Y-69094811D01*
X119716014Y-69136681D01*
X119672680Y-69144500D01*
X113168706Y-69144500D01*
X113150736Y-69143191D01*
X113136853Y-69141157D01*
X113126977Y-69139711D01*
X113126976Y-69139711D01*
X113077634Y-69144028D01*
X113066827Y-69144500D01*
X113061291Y-69144500D01*
X113057717Y-69144917D01*
X113057711Y-69144918D01*
X113030487Y-69148099D01*
X113026906Y-69148465D01*
X112950952Y-69155111D01*
X112931926Y-69159329D01*
X112860245Y-69185417D01*
X112856842Y-69186600D01*
X112784474Y-69210580D01*
X112766927Y-69219076D01*
X112703236Y-69260965D01*
X112700196Y-69262902D01*
X112635280Y-69302943D01*
X112620165Y-69315255D01*
X112567848Y-69370708D01*
X112565336Y-69373294D01*
X110887680Y-71050950D01*
X110826357Y-71084435D01*
X110756665Y-71079451D01*
X110712318Y-71050950D01*
X109070728Y-69409360D01*
X109058946Y-69395727D01*
X109044609Y-69376469D01*
X109006666Y-69344631D01*
X108998691Y-69337323D01*
X108997329Y-69335961D01*
X108994777Y-69333409D01*
X108970444Y-69314169D01*
X108967647Y-69311890D01*
X108909251Y-69262890D01*
X108892821Y-69252422D01*
X108823691Y-69220186D01*
X108820447Y-69218615D01*
X108752306Y-69184394D01*
X108733903Y-69177997D01*
X108659211Y-69162574D01*
X108655692Y-69161794D01*
X108581490Y-69144208D01*
X108562121Y-69142229D01*
X108485869Y-69144448D01*
X108482263Y-69144500D01*
X104597320Y-69144500D01*
X104530281Y-69124815D01*
X104498054Y-69094812D01*
X104492546Y-69087454D01*
X104377331Y-69001204D01*
X104242483Y-68950909D01*
X104182873Y-68944500D01*
X104179550Y-68944500D01*
X102590439Y-68944500D01*
X102590420Y-68944500D01*
X102587128Y-68944501D01*
X102583848Y-68944853D01*
X102583840Y-68944854D01*
X102527515Y-68950909D01*
X102392669Y-69001204D01*
X102280731Y-69085001D01*
X102277454Y-69087454D01*
X102271946Y-69094811D01*
X102216014Y-69136681D01*
X102172680Y-69144500D01*
X100827363Y-69144500D01*
X100788359Y-69138206D01*
X100627797Y-69085000D01*
X100528141Y-69074819D01*
X100528122Y-69074818D01*
X100525009Y-69074500D01*
X100521860Y-69074500D01*
X99478140Y-69074500D01*
X99478120Y-69074500D01*
X99474992Y-69074501D01*
X99471860Y-69074820D01*
X99471858Y-69074821D01*
X99372203Y-69085000D01*
X99205665Y-69140186D01*
X99056342Y-69232288D01*
X98932288Y-69356342D01*
X98840186Y-69505665D01*
X98785000Y-69672202D01*
X98774819Y-69771858D01*
X98774817Y-69771878D01*
X98774500Y-69774991D01*
X98774500Y-69778138D01*
X98774500Y-69778139D01*
X98774500Y-70546858D01*
X98774500Y-70546877D01*
X98774501Y-70550008D01*
X98774820Y-70553140D01*
X98774821Y-70553141D01*
X98785000Y-70652796D01*
X98840186Y-70819334D01*
X98932288Y-70968657D01*
X99056340Y-71092709D01*
X99056342Y-71092710D01*
X99056344Y-71092712D01*
X99059652Y-71094752D01*
X99106379Y-71146698D01*
X99117603Y-71215660D01*
X99089762Y-71279744D01*
X99059659Y-71305830D01*
X99056654Y-71307683D01*
X98932683Y-71431654D01*
X98840642Y-71580877D01*
X98785493Y-71747303D01*
X98775319Y-71846890D01*
X98775000Y-71853168D01*
X98775000Y-71987500D01*
X101224999Y-71987500D01*
X101224999Y-71853170D01*
X101224678Y-71846888D01*
X101214506Y-71747304D01*
X101159357Y-71580877D01*
X101067316Y-71431654D01*
X101050662Y-71415000D01*
X102135000Y-71415000D01*
X102135000Y-71659518D01*
X102135353Y-71666114D01*
X102141402Y-71722378D01*
X102154191Y-71756666D01*
X102159175Y-71826357D01*
X102154192Y-71843330D01*
X102141400Y-71877626D01*
X102135354Y-71933867D01*
X102135000Y-71940481D01*
X102135000Y-72185000D01*
X103135000Y-72185000D01*
X103135000Y-71415000D01*
X103635000Y-71415000D01*
X103635000Y-72185000D01*
X104635000Y-72185000D01*
X104635000Y-71940481D01*
X104634646Y-71933885D01*
X104628597Y-71877623D01*
X104615808Y-71843335D01*
X104610822Y-71773644D01*
X104615809Y-71756661D01*
X104628597Y-71722376D01*
X104634646Y-71666114D01*
X104635000Y-71659518D01*
X104635000Y-71415000D01*
X103635000Y-71415000D01*
X103135000Y-71415000D01*
X102135000Y-71415000D01*
X101050662Y-71415000D01*
X100943344Y-71307682D01*
X100940343Y-71305831D01*
X100893618Y-71253883D01*
X100882397Y-71184921D01*
X100910240Y-71120839D01*
X100940345Y-71094753D01*
X100943656Y-71092712D01*
X101067712Y-70968656D01*
X101159814Y-70819334D01*
X101189252Y-70730495D01*
X101229025Y-70673051D01*
X101293541Y-70646228D01*
X101306958Y-70645500D01*
X102011000Y-70645500D01*
X102078039Y-70665185D01*
X102123794Y-70717989D01*
X102135000Y-70769500D01*
X102135000Y-70915000D01*
X104635000Y-70915000D01*
X104635000Y-70769500D01*
X104654685Y-70702461D01*
X104707489Y-70656706D01*
X104759000Y-70645500D01*
X108132770Y-70645500D01*
X108199809Y-70665185D01*
X108220451Y-70681819D01*
X109848181Y-72309548D01*
X109881666Y-72370871D01*
X109884500Y-72397229D01*
X109884500Y-74935500D01*
X109864815Y-75002539D01*
X109812011Y-75048294D01*
X109760500Y-75059500D01*
X108690439Y-75059500D01*
X108690420Y-75059500D01*
X108687128Y-75059501D01*
X108683848Y-75059853D01*
X108683840Y-75059854D01*
X108627515Y-75065909D01*
X108492669Y-75116204D01*
X108377454Y-75202454D01*
X108291204Y-75317668D01*
X108240909Y-75452516D01*
X108238894Y-75471263D01*
X108234500Y-75512127D01*
X108234500Y-75515430D01*
X108234499Y-75515449D01*
X108234499Y-76695792D01*
X108214814Y-76762832D01*
X108178638Y-76799393D01*
X108138222Y-76825975D01*
X108135181Y-76827912D01*
X108070280Y-76867944D01*
X108055164Y-76880257D01*
X108002831Y-76935726D01*
X108000319Y-76938312D01*
X105934358Y-79004272D01*
X105920727Y-79016053D01*
X105901468Y-79030391D01*
X105869635Y-79068328D01*
X105862338Y-79076292D01*
X105860972Y-79077657D01*
X105860950Y-79077681D01*
X105858409Y-79080223D01*
X105856173Y-79083050D01*
X105856171Y-79083053D01*
X105839176Y-79104546D01*
X105836902Y-79107337D01*
X105787894Y-79165744D01*
X105777418Y-79182187D01*
X105745192Y-79251294D01*
X105743622Y-79254536D01*
X105709393Y-79322692D01*
X105702996Y-79341098D01*
X105687573Y-79415788D01*
X105686793Y-79419305D01*
X105669208Y-79493506D01*
X105667229Y-79512879D01*
X105669448Y-79589129D01*
X105669500Y-79592735D01*
X105669500Y-85369612D01*
X105649815Y-85436651D01*
X105597011Y-85482406D01*
X105527853Y-85492350D01*
X105464297Y-85463325D01*
X105453351Y-85452585D01*
X105331653Y-85317428D01*
X105332781Y-85316411D01*
X105299211Y-85272875D01*
X105298240Y-85270298D01*
X105294585Y-85260256D01*
X105293401Y-85256848D01*
X105269814Y-85185666D01*
X105269812Y-85185663D01*
X105269417Y-85184470D01*
X105260929Y-85166936D01*
X105260237Y-85165884D01*
X105260237Y-85165883D01*
X105218999Y-85103184D01*
X105217087Y-85100181D01*
X105177050Y-85035270D01*
X105164750Y-85020172D01*
X105109290Y-84967848D01*
X105106703Y-84965335D01*
X104790728Y-84649360D01*
X104778946Y-84635727D01*
X104764609Y-84616469D01*
X104726666Y-84584631D01*
X104718691Y-84577323D01*
X104717329Y-84575961D01*
X104714777Y-84573409D01*
X104690444Y-84554169D01*
X104687649Y-84551892D01*
X104671827Y-84538615D01*
X104633125Y-84480446D01*
X104628243Y-84430370D01*
X104635144Y-84366180D01*
X104635500Y-84362873D01*
X104635499Y-83367128D01*
X104629091Y-83307517D01*
X104616340Y-83273332D01*
X104611357Y-83203642D01*
X104616342Y-83186665D01*
X104629090Y-83152485D01*
X104629089Y-83152485D01*
X104629091Y-83152483D01*
X104635500Y-83092873D01*
X104635499Y-82097128D01*
X104629091Y-82037517D01*
X104616340Y-82003332D01*
X104611357Y-81933642D01*
X104616342Y-81916665D01*
X104629090Y-81882485D01*
X104629089Y-81882485D01*
X104629091Y-81882483D01*
X104635500Y-81822873D01*
X104635499Y-80827128D01*
X104629091Y-80767517D01*
X104616340Y-80733332D01*
X104611357Y-80663642D01*
X104616342Y-80646665D01*
X104619223Y-80638939D01*
X104629091Y-80612483D01*
X104635500Y-80552873D01*
X104635499Y-79557128D01*
X104629091Y-79497517D01*
X104616340Y-79463332D01*
X104611357Y-79393642D01*
X104616342Y-79376665D01*
X104629090Y-79342485D01*
X104629089Y-79342485D01*
X104629091Y-79342483D01*
X104635500Y-79282873D01*
X104635499Y-78287128D01*
X104629091Y-78227517D01*
X104616340Y-78193332D01*
X104611357Y-78123642D01*
X104616342Y-78106665D01*
X104629090Y-78072485D01*
X104629089Y-78072485D01*
X104629091Y-78072483D01*
X104635500Y-78012873D01*
X104635499Y-77017128D01*
X104629091Y-76957517D01*
X104616340Y-76923332D01*
X104611357Y-76853642D01*
X104616342Y-76836665D01*
X104629090Y-76802485D01*
X104629089Y-76802485D01*
X104629091Y-76802483D01*
X104635500Y-76742873D01*
X104635499Y-75747128D01*
X104629091Y-75687517D01*
X104616340Y-75653332D01*
X104611357Y-75583642D01*
X104616342Y-75566665D01*
X104629090Y-75532485D01*
X104629089Y-75532485D01*
X104629091Y-75532483D01*
X104635500Y-75472873D01*
X104635499Y-74477128D01*
X104629091Y-74417517D01*
X104616340Y-74383332D01*
X104611357Y-74313642D01*
X104616342Y-74296665D01*
X104629090Y-74262485D01*
X104629089Y-74262485D01*
X104629091Y-74262483D01*
X104635500Y-74202873D01*
X104635499Y-73207128D01*
X104629091Y-73147517D01*
X104616075Y-73112619D01*
X104611090Y-73042928D01*
X104616075Y-73025949D01*
X104628597Y-72992376D01*
X104634646Y-72936114D01*
X104635000Y-72929518D01*
X104635000Y-72685000D01*
X102135000Y-72685000D01*
X102135000Y-72830500D01*
X102115315Y-72897539D01*
X102062511Y-72943294D01*
X102011000Y-72954500D01*
X101311071Y-72954500D01*
X101244032Y-72934815D01*
X101198277Y-72882011D01*
X101188333Y-72812853D01*
X101193365Y-72791496D01*
X101214506Y-72727696D01*
X101224680Y-72628109D01*
X101225000Y-72621831D01*
X101225000Y-72487500D01*
X98775001Y-72487500D01*
X98775001Y-72621829D01*
X98775321Y-72628111D01*
X98785493Y-72727695D01*
X98840642Y-72894122D01*
X98932683Y-73043345D01*
X99056653Y-73167315D01*
X99117797Y-73205029D01*
X99164521Y-73256977D01*
X99175744Y-73325940D01*
X99147900Y-73390022D01*
X99140381Y-73398249D01*
X96914358Y-75624272D01*
X96900727Y-75636053D01*
X96881468Y-75650391D01*
X96849635Y-75688328D01*
X96842338Y-75696292D01*
X96840972Y-75697657D01*
X96840950Y-75697681D01*
X96838409Y-75700223D01*
X96836173Y-75703050D01*
X96836171Y-75703053D01*
X96819176Y-75724546D01*
X96816902Y-75727337D01*
X96767894Y-75785744D01*
X96757416Y-75802189D01*
X96736881Y-75846228D01*
X96690708Y-75898667D01*
X96623515Y-75917818D01*
X96556634Y-75897601D01*
X96511300Y-75844435D01*
X96500500Y-75793822D01*
X96500500Y-67124500D01*
X96520185Y-67057461D01*
X96572989Y-67011706D01*
X96624500Y-67000500D01*
X126875500Y-67000500D01*
X126942539Y-67020185D01*
G37*
%TD.AperFunction*%
%TA.AperFunction,Conductor*%
G36*
X121253834Y-88510047D02*
G01*
X121309767Y-88551919D01*
X121334184Y-88617383D01*
X121334500Y-88626229D01*
X121334500Y-93021294D01*
X121333191Y-93039264D01*
X121329711Y-93063023D01*
X121331582Y-93084415D01*
X121334028Y-93112368D01*
X121334500Y-93123175D01*
X121334500Y-93128709D01*
X121334916Y-93132272D01*
X121334917Y-93132282D01*
X121338098Y-93159496D01*
X121338464Y-93163082D01*
X121345109Y-93239041D01*
X121349329Y-93258071D01*
X121349758Y-93259251D01*
X121349759Y-93259255D01*
X121375413Y-93329742D01*
X121376582Y-93333107D01*
X121400580Y-93405524D01*
X121409075Y-93423072D01*
X121450979Y-93486784D01*
X121452889Y-93489782D01*
X121492288Y-93553656D01*
X121492952Y-93554732D01*
X121505253Y-93569830D01*
X121506168Y-93570693D01*
X121506170Y-93570696D01*
X121543955Y-93606344D01*
X121560708Y-93622150D01*
X121563295Y-93624663D01*
X121813180Y-93874548D01*
X121846665Y-93935871D01*
X121849499Y-93962229D01*
X121849499Y-94496299D01*
X121848190Y-94514267D01*
X121844710Y-94538022D01*
X121849028Y-94587368D01*
X121849500Y-94598175D01*
X121849500Y-94603709D01*
X121849916Y-94607272D01*
X121849917Y-94607282D01*
X121853098Y-94634496D01*
X121853464Y-94638082D01*
X121860109Y-94714041D01*
X121864329Y-94733071D01*
X121864758Y-94734251D01*
X121864759Y-94734255D01*
X121890413Y-94804742D01*
X121891582Y-94808107D01*
X121915580Y-94880524D01*
X121924075Y-94898072D01*
X121965979Y-94961784D01*
X121967889Y-94964782D01*
X122007288Y-95028656D01*
X122007952Y-95029732D01*
X122020253Y-95044830D01*
X122021168Y-95045693D01*
X122021170Y-95045696D01*
X122046225Y-95069334D01*
X122075708Y-95097150D01*
X122078295Y-95099663D01*
X123127130Y-96148498D01*
X123160615Y-96209821D01*
X123162977Y-96246986D01*
X123144340Y-96459999D01*
X123164936Y-96695407D01*
X123198008Y-96818833D01*
X123226097Y-96923663D01*
X123325965Y-97137830D01*
X123461505Y-97331401D01*
X123628599Y-97498495D01*
X123814160Y-97628426D01*
X123857783Y-97683002D01*
X123864976Y-97752501D01*
X123833454Y-97814855D01*
X123814159Y-97831575D01*
X123628595Y-97961508D01*
X123461505Y-98128598D01*
X123325965Y-98322170D01*
X123226097Y-98536336D01*
X123164936Y-98764592D01*
X123144340Y-98999999D01*
X123164936Y-99235407D01*
X123196280Y-99352384D01*
X123226097Y-99463663D01*
X123243924Y-99501893D01*
X123249148Y-99513095D01*
X123259640Y-99582172D01*
X123231121Y-99645956D01*
X123172644Y-99684196D01*
X123136766Y-99689500D01*
X122945504Y-99689500D01*
X122924294Y-99687158D01*
X122851737Y-99689439D01*
X122847842Y-99689500D01*
X122819075Y-99689500D01*
X122815213Y-99689987D01*
X122815192Y-99689989D01*
X122814681Y-99690054D01*
X122803059Y-99690968D01*
X122757430Y-99692402D01*
X122737051Y-99698323D01*
X122718007Y-99702267D01*
X122703639Y-99704082D01*
X122696941Y-99704929D01*
X122654490Y-99721736D01*
X122643443Y-99725518D01*
X122599598Y-99738256D01*
X122581330Y-99749060D01*
X122563864Y-99757617D01*
X122544129Y-99765431D01*
X122507202Y-99792260D01*
X122497442Y-99798671D01*
X122458136Y-99821917D01*
X122443125Y-99836928D01*
X122428336Y-99849558D01*
X122411164Y-99862034D01*
X122382057Y-99897218D01*
X122374196Y-99905856D01*
X121400484Y-100879568D01*
X121383831Y-100892910D01*
X121334133Y-100945833D01*
X121331428Y-100948625D01*
X121311089Y-100968965D01*
X121308713Y-100972027D01*
X121308702Y-100972040D01*
X121308378Y-100972459D01*
X121300806Y-100981323D01*
X121269550Y-101014607D01*
X121259322Y-101033212D01*
X121248645Y-101049467D01*
X121235636Y-101066238D01*
X121217506Y-101108132D01*
X121212370Y-101118616D01*
X121190372Y-101158632D01*
X121185091Y-101179199D01*
X121178791Y-101197600D01*
X121170364Y-101217074D01*
X121163223Y-101262161D01*
X121160855Y-101273593D01*
X121154463Y-101298495D01*
X121149500Y-101317824D01*
X121149500Y-101339045D01*
X121147973Y-101358445D01*
X121144652Y-101379404D01*
X121148949Y-101424857D01*
X121149499Y-101436525D01*
X121149499Y-107448932D01*
X121129814Y-107515971D01*
X121077010Y-107561726D01*
X121007852Y-107571670D01*
X120982168Y-107565115D01*
X120957485Y-107555909D01*
X120901166Y-107549854D01*
X120901165Y-107549853D01*
X120897873Y-107549500D01*
X120894550Y-107549500D01*
X119305439Y-107549500D01*
X119305420Y-107549500D01*
X119302128Y-107549501D01*
X119298848Y-107549853D01*
X119298840Y-107549854D01*
X119242515Y-107555909D01*
X119107667Y-107606204D01*
X119023892Y-107668918D01*
X118958428Y-107693335D01*
X118890155Y-107678483D01*
X118875271Y-107668918D01*
X118792088Y-107606647D01*
X118657371Y-107556400D01*
X118601132Y-107550354D01*
X118594518Y-107550000D01*
X118050000Y-107550000D01*
X118050000Y-110550000D01*
X118594518Y-110550000D01*
X118601132Y-110549645D01*
X118657371Y-110543599D01*
X118792089Y-110493352D01*
X118875270Y-110431082D01*
X118940734Y-110406664D01*
X119009007Y-110421515D01*
X119023890Y-110431079D01*
X119107669Y-110493796D01*
X119242517Y-110544091D01*
X119302127Y-110550500D01*
X120897872Y-110550499D01*
X120957483Y-110544091D01*
X120982165Y-110534884D01*
X121051857Y-110529900D01*
X121113180Y-110563384D01*
X121146666Y-110624707D01*
X121149500Y-110651066D01*
X121149500Y-112714494D01*
X121147158Y-112735702D01*
X121149439Y-112808262D01*
X121149500Y-112812157D01*
X121149500Y-112840925D01*
X121149987Y-112844785D01*
X121149989Y-112844808D01*
X121150054Y-112845320D01*
X121150968Y-112856942D01*
X121152402Y-112902569D01*
X121158323Y-112922950D01*
X121162267Y-112941995D01*
X121164928Y-112963059D01*
X121181737Y-113005515D01*
X121185520Y-113016563D01*
X121198256Y-113060400D01*
X121209061Y-113078670D01*
X121217621Y-113096143D01*
X121225431Y-113115869D01*
X121252267Y-113152808D01*
X121258673Y-113162560D01*
X121281919Y-113201865D01*
X121281921Y-113201867D01*
X121296925Y-113216871D01*
X121309562Y-113231667D01*
X121322037Y-113248837D01*
X121357212Y-113277936D01*
X121365854Y-113285800D01*
X122313181Y-114233127D01*
X122346666Y-114294450D01*
X122349500Y-114320808D01*
X122349500Y-114575500D01*
X122329815Y-114642539D01*
X122277011Y-114688294D01*
X122225500Y-114699500D01*
X122105352Y-114699500D01*
X121920197Y-114738855D01*
X121747269Y-114815848D01*
X121594129Y-114927110D01*
X121467466Y-115067783D01*
X121372820Y-115231715D01*
X121314326Y-115411742D01*
X121300831Y-115540142D01*
X121274246Y-115604757D01*
X121265191Y-115614861D01*
X120980694Y-115899359D01*
X120411681Y-116468372D01*
X120350358Y-116501857D01*
X120280666Y-116496873D01*
X120224733Y-116455001D01*
X120200316Y-116389537D01*
X120200000Y-116380691D01*
X120200000Y-115600000D01*
X118050000Y-115600000D01*
X118050000Y-116850000D01*
X119062194Y-116850000D01*
X119129233Y-116869685D01*
X119174988Y-116922489D01*
X119184932Y-116991647D01*
X119180125Y-117012318D01*
X119124554Y-117183345D01*
X119104768Y-117371603D01*
X119124554Y-117559860D01*
X119167097Y-117690793D01*
X119169092Y-117760634D01*
X119133011Y-117820467D01*
X119114264Y-117834649D01*
X119056654Y-117870183D01*
X118932683Y-117994154D01*
X118840642Y-118143377D01*
X118785493Y-118309803D01*
X118775319Y-118409390D01*
X118775000Y-118415668D01*
X118775000Y-118550000D01*
X120126000Y-118550000D01*
X120193039Y-118569685D01*
X120238794Y-118622489D01*
X120250000Y-118674000D01*
X120250000Y-118926000D01*
X120230315Y-118993039D01*
X120177511Y-119038794D01*
X120126000Y-119050000D01*
X118775001Y-119050000D01*
X118775001Y-119184329D01*
X118775321Y-119190611D01*
X118785493Y-119290195D01*
X118840642Y-119456622D01*
X118932683Y-119605845D01*
X119056654Y-119729816D01*
X119059656Y-119731668D01*
X119106380Y-119783617D01*
X119117601Y-119852579D01*
X119089757Y-119916661D01*
X119059659Y-119942742D01*
X119056344Y-119944786D01*
X118932288Y-120068842D01*
X118888031Y-120140596D01*
X118836083Y-120187321D01*
X118782492Y-120199500D01*
X116458230Y-120199500D01*
X116391191Y-120179815D01*
X116383919Y-120174767D01*
X116320125Y-120127011D01*
X116292331Y-120106204D01*
X116157483Y-120055909D01*
X116097873Y-120049500D01*
X116094551Y-120049500D01*
X115462000Y-120049500D01*
X115394961Y-120029815D01*
X115349206Y-119977011D01*
X115338000Y-119925500D01*
X115338000Y-119871677D01*
X115357685Y-119804638D01*
X115387689Y-119772410D01*
X115407546Y-119757546D01*
X115493796Y-119642331D01*
X115544091Y-119507483D01*
X115550500Y-119447873D01*
X115550499Y-117802128D01*
X115544091Y-117742517D01*
X115493796Y-117607669D01*
X115407546Y-117492454D01*
X115292331Y-117406204D01*
X115157483Y-117355909D01*
X115097873Y-117349500D01*
X115094550Y-117349500D01*
X113580439Y-117349500D01*
X113580420Y-117349500D01*
X113577128Y-117349501D01*
X113573851Y-117349853D01*
X113573837Y-117349854D01*
X113513253Y-117356367D01*
X113486747Y-117356367D01*
X113426168Y-117349854D01*
X113426163Y-117349853D01*
X113422873Y-117349500D01*
X113419551Y-117349500D01*
X112966452Y-117349500D01*
X112899413Y-117329815D01*
X112853658Y-117277011D01*
X112843131Y-117212542D01*
X112854960Y-117100000D01*
X112835174Y-116911744D01*
X112787541Y-116765145D01*
X112776679Y-116731715D01*
X112682033Y-116567783D01*
X112555370Y-116427111D01*
X112509820Y-116394017D01*
X112467154Y-116338688D01*
X112461175Y-116269074D01*
X112464768Y-116255402D01*
X112486362Y-116188944D01*
X112506148Y-116000688D01*
X112506147Y-116000682D01*
X112506827Y-115994216D01*
X112533411Y-115929601D01*
X112590708Y-115889616D01*
X112660527Y-115886956D01*
X112664705Y-115888090D01*
X112697431Y-115897598D01*
X112734306Y-115900500D01*
X112736751Y-115900500D01*
X113263249Y-115900500D01*
X113265694Y-115900500D01*
X113302569Y-115897598D01*
X113460398Y-115851744D01*
X113601865Y-115768081D01*
X113718081Y-115651865D01*
X113748754Y-115600000D01*
X115400000Y-115600000D01*
X115400000Y-116394518D01*
X115400354Y-116401132D01*
X115406400Y-116457371D01*
X115456647Y-116592089D01*
X115542811Y-116707188D01*
X115657910Y-116793352D01*
X115792628Y-116843599D01*
X115848867Y-116849645D01*
X115855482Y-116850000D01*
X117550000Y-116850000D01*
X117550000Y-115600000D01*
X115400000Y-115600000D01*
X113748754Y-115600000D01*
X113801744Y-115510398D01*
X113847598Y-115352569D01*
X113850500Y-115315694D01*
X113850500Y-115100000D01*
X115400000Y-115100000D01*
X117550000Y-115100000D01*
X117550000Y-113850000D01*
X118050000Y-113850000D01*
X118050000Y-115100000D01*
X120200000Y-115100000D01*
X120200000Y-114305481D01*
X120199645Y-114298867D01*
X120193599Y-114242628D01*
X120143352Y-114107910D01*
X120057188Y-113992811D01*
X119942089Y-113906647D01*
X119807371Y-113856400D01*
X119751132Y-113850354D01*
X119744518Y-113850000D01*
X118050000Y-113850000D01*
X117550000Y-113850000D01*
X115855482Y-113850000D01*
X115848867Y-113850354D01*
X115792628Y-113856400D01*
X115657910Y-113906647D01*
X115542811Y-113992811D01*
X115456647Y-114107910D01*
X115406400Y-114242628D01*
X115400354Y-114298867D01*
X115400000Y-114305481D01*
X115400000Y-115100000D01*
X113850500Y-115100000D01*
X113850500Y-114884306D01*
X113847598Y-114847431D01*
X113838422Y-114815849D01*
X113801744Y-114689602D01*
X113764137Y-114626012D01*
X113746954Y-114558288D01*
X113769114Y-114492026D01*
X113823580Y-114448262D01*
X113839797Y-114444306D01*
X113851249Y-114440511D01*
X113873062Y-114435674D01*
X113874250Y-114435241D01*
X113874255Y-114435241D01*
X113944820Y-114409557D01*
X113948095Y-114408419D01*
X114019334Y-114384814D01*
X114019336Y-114384812D01*
X114020536Y-114384415D01*
X114038063Y-114375929D01*
X114039112Y-114375238D01*
X114039117Y-114375237D01*
X114101806Y-114334005D01*
X114104798Y-114332099D01*
X114168656Y-114292712D01*
X114168656Y-114292711D01*
X114169729Y-114292050D01*
X114184824Y-114279753D01*
X114185692Y-114278832D01*
X114185696Y-114278830D01*
X114237185Y-114224253D01*
X114239631Y-114221735D01*
X115985638Y-112475727D01*
X115999256Y-112463957D01*
X116018530Y-112449610D01*
X116050372Y-112411661D01*
X116057686Y-112403681D01*
X116058267Y-112403099D01*
X116061590Y-112399777D01*
X116080832Y-112375438D01*
X116083054Y-112372711D01*
X116131302Y-112315214D01*
X116131302Y-112315212D01*
X116132117Y-112314242D01*
X116142566Y-112297840D01*
X116143105Y-112296682D01*
X116143110Y-112296677D01*
X116174832Y-112228647D01*
X116176348Y-112225516D01*
X116210040Y-112158433D01*
X116210040Y-112158429D01*
X116210610Y-112157296D01*
X116216999Y-112138917D01*
X116217256Y-112137673D01*
X116232431Y-112064171D01*
X116233186Y-112060767D01*
X116250500Y-111987721D01*
X116250500Y-111987717D01*
X116250790Y-111986494D01*
X116252769Y-111967123D01*
X116252732Y-111965859D01*
X116252733Y-111965856D01*
X116250552Y-111890888D01*
X116250500Y-111887283D01*
X116250500Y-110666976D01*
X116270185Y-110599937D01*
X116322989Y-110554182D01*
X116351116Y-110546465D01*
X116357480Y-110544091D01*
X116357483Y-110544091D01*
X116492331Y-110493796D01*
X116576107Y-110431080D01*
X116641568Y-110406664D01*
X116709841Y-110421515D01*
X116724727Y-110431081D01*
X116807911Y-110493352D01*
X116942628Y-110543599D01*
X116998867Y-110549645D01*
X117005482Y-110550000D01*
X117550000Y-110550000D01*
X117550000Y-107550000D01*
X117005482Y-107550000D01*
X116998867Y-107550354D01*
X116942628Y-107556400D01*
X116807908Y-107606648D01*
X116724726Y-107668918D01*
X116659262Y-107693335D01*
X116590989Y-107678483D01*
X116576112Y-107668922D01*
X116492331Y-107606204D01*
X116357483Y-107555909D01*
X116305816Y-107550354D01*
X116301166Y-107549854D01*
X116301165Y-107549853D01*
X116297873Y-107549500D01*
X116294550Y-107549500D01*
X114705439Y-107549500D01*
X114705420Y-107549500D01*
X114702128Y-107549501D01*
X114698848Y-107549853D01*
X114698840Y-107549854D01*
X114642515Y-107555909D01*
X114507669Y-107606204D01*
X114392454Y-107692454D01*
X114306204Y-107807668D01*
X114259053Y-107934088D01*
X114255909Y-107942517D01*
X114249500Y-108002127D01*
X114249500Y-108005430D01*
X114249499Y-108005449D01*
X114249500Y-108488000D01*
X114229815Y-108555039D01*
X114177011Y-108600794D01*
X114125500Y-108612000D01*
X113971248Y-108612000D01*
X113904209Y-108592315D01*
X113878463Y-108566089D01*
X113877961Y-108566592D01*
X113743657Y-108432288D01*
X113594334Y-108340186D01*
X113427797Y-108285000D01*
X113328141Y-108274819D01*
X113328122Y-108274818D01*
X113325009Y-108274500D01*
X113321860Y-108274500D01*
X112278140Y-108274500D01*
X112278120Y-108274500D01*
X112274992Y-108274501D01*
X112271860Y-108274820D01*
X112271858Y-108274821D01*
X112172203Y-108285000D01*
X112005665Y-108340186D01*
X111856342Y-108432288D01*
X111732288Y-108556342D01*
X111640186Y-108705665D01*
X111585000Y-108872202D01*
X111574819Y-108971858D01*
X111574817Y-108971878D01*
X111574500Y-108974991D01*
X111574500Y-108978138D01*
X111574500Y-108978139D01*
X111574500Y-109746858D01*
X111574500Y-109746877D01*
X111574501Y-109750008D01*
X111574820Y-109753140D01*
X111574821Y-109753141D01*
X111585000Y-109852796D01*
X111640186Y-110019334D01*
X111732288Y-110168657D01*
X111856344Y-110292713D01*
X111859181Y-110294463D01*
X111905905Y-110346412D01*
X111917125Y-110415374D01*
X111889280Y-110479456D01*
X111859181Y-110505537D01*
X111856344Y-110507286D01*
X111741452Y-110622179D01*
X111680129Y-110655664D01*
X111654747Y-110658494D01*
X108397849Y-110684139D01*
X108330657Y-110664983D01*
X108309192Y-110647824D01*
X108175728Y-110514360D01*
X108163946Y-110500727D01*
X108158785Y-110493795D01*
X108149610Y-110481470D01*
X108145864Y-110478327D01*
X108111666Y-110449631D01*
X108103691Y-110442323D01*
X108099777Y-110438409D01*
X107011549Y-109350180D01*
X106978064Y-109288857D01*
X106983048Y-109219165D01*
X107011549Y-109174817D01*
X107018650Y-109167715D01*
X107018656Y-109167712D01*
X107142712Y-109043656D01*
X107144752Y-109040347D01*
X107196695Y-108993622D01*
X107265657Y-108982395D01*
X107329741Y-109010235D01*
X107355831Y-109040343D01*
X107357682Y-109043344D01*
X107481654Y-109167316D01*
X107630877Y-109259357D01*
X107797303Y-109314506D01*
X107896890Y-109324680D01*
X107903168Y-109324999D01*
X108037499Y-109324999D01*
X108037500Y-109324998D01*
X108037500Y-108350000D01*
X108537500Y-108350000D01*
X108537500Y-109324999D01*
X108671829Y-109324999D01*
X108678111Y-109324678D01*
X108777695Y-109314506D01*
X108944122Y-109259357D01*
X109093345Y-109167316D01*
X109217316Y-109043345D01*
X109309357Y-108894122D01*
X109364506Y-108727696D01*
X109374680Y-108628109D01*
X109375000Y-108621831D01*
X109375000Y-108350000D01*
X108537500Y-108350000D01*
X108037500Y-108350000D01*
X108037500Y-106875000D01*
X108537500Y-106875000D01*
X108537500Y-107850000D01*
X109374999Y-107850000D01*
X109374999Y-107578170D01*
X109374678Y-107571888D01*
X109364506Y-107472304D01*
X109309357Y-107305877D01*
X109217316Y-107156654D01*
X109093345Y-107032683D01*
X108944122Y-106940642D01*
X108777696Y-106885493D01*
X108678109Y-106875319D01*
X108671832Y-106875000D01*
X108537500Y-106875000D01*
X108037500Y-106875000D01*
X107903171Y-106875000D01*
X107896888Y-106875321D01*
X107797304Y-106885493D01*
X107630877Y-106940642D01*
X107481654Y-107032683D01*
X107357683Y-107156654D01*
X107355830Y-107159659D01*
X107303880Y-107206382D01*
X107234917Y-107217602D01*
X107170836Y-107189757D01*
X107144752Y-107159652D01*
X107142903Y-107156654D01*
X107142712Y-107156344D01*
X107142710Y-107156342D01*
X107142709Y-107156340D01*
X107018657Y-107032288D01*
X106926555Y-106975479D01*
X106869334Y-106940186D01*
X106735495Y-106895836D01*
X106678051Y-106856063D01*
X106651228Y-106791547D01*
X106650500Y-106778130D01*
X106650500Y-106412230D01*
X106670185Y-106345191D01*
X106686816Y-106324551D01*
X106692712Y-106318656D01*
X106692714Y-106318653D01*
X106702963Y-106308405D01*
X106705497Y-106310939D01*
X106739404Y-106280433D01*
X106808365Y-106269201D01*
X106872451Y-106297035D01*
X106894844Y-106328653D01*
X106895963Y-106327816D01*
X106992811Y-106457188D01*
X107107910Y-106543352D01*
X107242628Y-106593599D01*
X107298867Y-106599645D01*
X107305482Y-106600000D01*
X107950000Y-106600000D01*
X107950000Y-105850000D01*
X108450000Y-105850000D01*
X108450000Y-106600000D01*
X109094518Y-106600000D01*
X109101132Y-106599645D01*
X109157371Y-106593599D01*
X109292089Y-106543352D01*
X109407188Y-106457188D01*
X109493352Y-106342089D01*
X109543599Y-106207371D01*
X109549645Y-106151132D01*
X109550000Y-106144518D01*
X109550000Y-105850000D01*
X113150000Y-105850000D01*
X113150000Y-106144518D01*
X113150354Y-106151132D01*
X113156400Y-106207371D01*
X113206647Y-106342089D01*
X113292811Y-106457188D01*
X113407910Y-106543352D01*
X113542628Y-106593599D01*
X113598867Y-106599645D01*
X113605482Y-106600000D01*
X114250000Y-106600000D01*
X114250000Y-105850000D01*
X114750000Y-105850000D01*
X114750000Y-106600000D01*
X115394518Y-106600000D01*
X115401132Y-106599645D01*
X115457371Y-106593599D01*
X115592089Y-106543352D01*
X115707188Y-106457188D01*
X115793352Y-106342089D01*
X115843599Y-106207371D01*
X115849645Y-106151132D01*
X115850000Y-106144518D01*
X115850000Y-105850000D01*
X114750000Y-105850000D01*
X114250000Y-105850000D01*
X113150000Y-105850000D01*
X109550000Y-105850000D01*
X108450000Y-105850000D01*
X107950000Y-105850000D01*
X107950000Y-104600000D01*
X108450000Y-104600000D01*
X108450000Y-105350000D01*
X109550000Y-105350000D01*
X113150000Y-105350000D01*
X114250000Y-105350000D01*
X114250000Y-104600000D01*
X114750000Y-104600000D01*
X114750000Y-105350000D01*
X115850000Y-105350000D01*
X115850000Y-105055481D01*
X115849645Y-105048867D01*
X115843599Y-104992628D01*
X115793352Y-104857910D01*
X115707188Y-104742811D01*
X115592089Y-104656647D01*
X115457371Y-104606400D01*
X115401132Y-104600354D01*
X115394518Y-104600000D01*
X114750000Y-104600000D01*
X114250000Y-104600000D01*
X113605482Y-104600000D01*
X113598867Y-104600354D01*
X113542628Y-104606400D01*
X113407910Y-104656647D01*
X113292811Y-104742811D01*
X113206647Y-104857910D01*
X113156400Y-104992628D01*
X113150354Y-105048867D01*
X113150000Y-105055481D01*
X113150000Y-105350000D01*
X109550000Y-105350000D01*
X109550000Y-105055481D01*
X109549645Y-105048867D01*
X109543599Y-104992628D01*
X109493352Y-104857910D01*
X109407188Y-104742811D01*
X109292089Y-104656647D01*
X109157371Y-104606400D01*
X109101132Y-104600354D01*
X109094518Y-104600000D01*
X108450000Y-104600000D01*
X107950000Y-104600000D01*
X107305482Y-104600000D01*
X107298867Y-104600354D01*
X107242628Y-104606400D01*
X107107910Y-104656647D01*
X106992808Y-104742812D01*
X106958234Y-104788998D01*
X106902300Y-104830869D01*
X106832609Y-104835853D01*
X106771286Y-104802367D01*
X106753429Y-104779783D01*
X106730625Y-104742812D01*
X106692712Y-104681344D01*
X106599047Y-104587679D01*
X106565564Y-104526359D01*
X106570548Y-104456667D01*
X106599047Y-104412320D01*
X106692712Y-104318656D01*
X106784814Y-104169334D01*
X106839999Y-104002797D01*
X106850500Y-103900009D01*
X106850499Y-103099992D01*
X106843921Y-103035601D01*
X106856690Y-102966911D01*
X106879592Y-102935327D01*
X106978103Y-102836816D01*
X107039425Y-102803334D01*
X107065782Y-102800500D01*
X114563015Y-102800500D01*
X114563025Y-102800499D01*
X115394561Y-102800499D01*
X115397872Y-102800499D01*
X115457483Y-102794091D01*
X115592331Y-102743796D01*
X115707546Y-102657546D01*
X115793796Y-102542331D01*
X115844091Y-102407483D01*
X115850500Y-102347873D01*
X115850499Y-101252128D01*
X115844091Y-101192517D01*
X115793796Y-101057669D01*
X115707546Y-100942454D01*
X115592331Y-100856204D01*
X115457483Y-100805909D01*
X115397873Y-100799500D01*
X115394551Y-100799500D01*
X106614279Y-100799500D01*
X106611137Y-100799460D01*
X106584782Y-100798792D01*
X106518263Y-100777415D01*
X106473861Y-100723469D01*
X106465673Y-100654081D01*
X106469989Y-100636528D01*
X106485674Y-100588256D01*
X106505460Y-100400000D01*
X106485674Y-100211744D01*
X106427179Y-100031716D01*
X106427179Y-100031715D01*
X106332533Y-99867783D01*
X106205870Y-99727110D01*
X106052731Y-99615848D01*
X106048563Y-99613993D01*
X105995326Y-99568742D01*
X105975006Y-99501893D01*
X105975000Y-99500714D01*
X105975000Y-98625000D01*
X106475000Y-98625000D01*
X106475000Y-99474999D01*
X106721829Y-99474999D01*
X106728111Y-99474678D01*
X106827695Y-99464506D01*
X106994122Y-99409357D01*
X107143345Y-99317316D01*
X107267316Y-99193345D01*
X107359357Y-99044122D01*
X107414506Y-98877696D01*
X107424680Y-98778109D01*
X107425000Y-98771831D01*
X107425000Y-98650000D01*
X109425001Y-98650000D01*
X109425001Y-98796829D01*
X109425321Y-98803111D01*
X109435493Y-98902695D01*
X109490642Y-99069122D01*
X109582683Y-99218345D01*
X109706654Y-99342316D01*
X109855877Y-99434357D01*
X110022303Y-99489506D01*
X110121890Y-99499680D01*
X110128168Y-99499999D01*
X110374999Y-99499999D01*
X110375000Y-99499998D01*
X110375000Y-98650000D01*
X109425001Y-98650000D01*
X107425000Y-98650000D01*
X107425000Y-98625000D01*
X106475000Y-98625000D01*
X105975000Y-98625000D01*
X105025001Y-98625000D01*
X105025001Y-98771829D01*
X105025321Y-98778111D01*
X105035493Y-98877695D01*
X105090642Y-99044122D01*
X105182683Y-99193345D01*
X105306653Y-99317315D01*
X105321040Y-99326189D01*
X105367764Y-99378137D01*
X105378987Y-99447100D01*
X105351143Y-99511182D01*
X105306379Y-99545007D01*
X105147269Y-99615848D01*
X104994129Y-99727110D01*
X104867466Y-99867783D01*
X104772821Y-100031714D01*
X104717478Y-100202040D01*
X104687228Y-100251402D01*
X103302188Y-101636442D01*
X103240865Y-101669927D01*
X103171173Y-101664943D01*
X103115240Y-101623071D01*
X103090823Y-101557607D01*
X103091185Y-101535813D01*
X103105460Y-101400000D01*
X103085674Y-101211744D01*
X103032947Y-101049467D01*
X103027179Y-101031715D01*
X102967113Y-100927677D01*
X102950500Y-100865677D01*
X102950500Y-92762230D01*
X102970185Y-92695191D01*
X102986819Y-92674549D01*
X104674549Y-90986819D01*
X104735872Y-90953334D01*
X104762230Y-90950500D01*
X106536294Y-90950500D01*
X106554264Y-90951809D01*
X106558320Y-90952402D01*
X106578023Y-90955289D01*
X106627368Y-90950972D01*
X106638176Y-90950500D01*
X106640100Y-90950500D01*
X106643709Y-90950500D01*
X106674550Y-90946894D01*
X106678031Y-90946539D01*
X106752797Y-90939999D01*
X106752797Y-90939998D01*
X106754052Y-90939889D01*
X106773062Y-90935674D01*
X106774250Y-90935241D01*
X106774255Y-90935241D01*
X106844820Y-90909557D01*
X106848095Y-90908419D01*
X106919334Y-90884814D01*
X106919336Y-90884812D01*
X106920536Y-90884415D01*
X106938063Y-90875929D01*
X106939112Y-90875238D01*
X106939117Y-90875237D01*
X107001806Y-90834005D01*
X107004798Y-90832099D01*
X107068656Y-90792712D01*
X107068656Y-90792711D01*
X107069729Y-90792050D01*
X107084824Y-90779753D01*
X107085692Y-90778832D01*
X107085696Y-90778830D01*
X107137184Y-90724254D01*
X107139630Y-90721736D01*
X107237821Y-90623545D01*
X107299142Y-90590062D01*
X107368834Y-90595046D01*
X107424767Y-90636918D01*
X107449184Y-90702382D01*
X107449500Y-90711228D01*
X107449500Y-91437769D01*
X107429815Y-91504808D01*
X107413182Y-91525448D01*
X107400181Y-91538450D01*
X107400177Y-91538454D01*
X107338852Y-91571936D01*
X107269161Y-91566949D01*
X107224819Y-91538451D01*
X107143656Y-91457288D01*
X107143655Y-91457287D01*
X107143654Y-91457286D01*
X106994334Y-91365186D01*
X106827797Y-91310000D01*
X106728141Y-91299819D01*
X106728122Y-91299818D01*
X106725009Y-91299500D01*
X106721860Y-91299500D01*
X105728140Y-91299500D01*
X105728120Y-91299500D01*
X105724992Y-91299501D01*
X105721860Y-91299820D01*
X105721858Y-91299821D01*
X105622203Y-91310000D01*
X105455665Y-91365186D01*
X105306342Y-91457288D01*
X105182288Y-91581342D01*
X105090186Y-91730665D01*
X105035000Y-91897202D01*
X105024819Y-91996858D01*
X105024817Y-91996878D01*
X105024500Y-91999991D01*
X105024500Y-92003138D01*
X105024500Y-92003139D01*
X105024500Y-92746858D01*
X105024500Y-92746877D01*
X105024501Y-92750008D01*
X105024820Y-92753140D01*
X105024821Y-92753141D01*
X105035000Y-92852796D01*
X105090186Y-93019334D01*
X105182288Y-93168657D01*
X105306344Y-93292713D01*
X105309181Y-93294463D01*
X105355905Y-93346412D01*
X105367125Y-93415374D01*
X105339280Y-93479456D01*
X105309181Y-93505537D01*
X105306344Y-93507286D01*
X105182288Y-93631342D01*
X105090186Y-93780665D01*
X105035000Y-93947202D01*
X105024819Y-94046858D01*
X105024817Y-94046878D01*
X105024500Y-94049991D01*
X105024500Y-94053138D01*
X105024500Y-94053139D01*
X105024500Y-94796858D01*
X105024500Y-94796877D01*
X105024501Y-94800008D01*
X105026353Y-94818135D01*
X105035000Y-94902796D01*
X105090186Y-95069334D01*
X105182285Y-95218653D01*
X105182287Y-95218655D01*
X105182288Y-95218656D01*
X105188180Y-95224548D01*
X105221665Y-95285868D01*
X105224500Y-95312230D01*
X105224500Y-95462769D01*
X105204815Y-95529808D01*
X105188181Y-95550450D01*
X105182288Y-95556342D01*
X105090186Y-95705665D01*
X105035000Y-95872202D01*
X105024819Y-95971858D01*
X105024817Y-95971878D01*
X105024500Y-95974991D01*
X105024500Y-95978138D01*
X105024500Y-95978139D01*
X105024500Y-96771858D01*
X105024500Y-96771877D01*
X105024501Y-96775008D01*
X105024820Y-96778140D01*
X105024821Y-96778141D01*
X105035000Y-96877796D01*
X105090186Y-97044334D01*
X105182288Y-97193657D01*
X105276303Y-97287672D01*
X105309788Y-97348995D01*
X105304804Y-97418687D01*
X105276304Y-97463034D01*
X105182681Y-97556656D01*
X105090642Y-97705877D01*
X105035493Y-97872303D01*
X105025319Y-97971890D01*
X105025000Y-97978168D01*
X105024999Y-98124999D01*
X105025000Y-98125000D01*
X107424999Y-98125000D01*
X107424999Y-97978170D01*
X107424678Y-97971888D01*
X107414506Y-97872304D01*
X107359357Y-97705877D01*
X107267316Y-97556654D01*
X107173696Y-97463034D01*
X107140211Y-97401711D01*
X107145195Y-97332019D01*
X107173694Y-97287673D01*
X107267712Y-97193656D01*
X107359814Y-97044334D01*
X107414999Y-96877797D01*
X107425500Y-96775009D01*
X107425499Y-95974992D01*
X107414999Y-95872203D01*
X107359814Y-95705666D01*
X107279497Y-95575450D01*
X107267711Y-95556342D01*
X107261819Y-95550450D01*
X107228334Y-95489127D01*
X107225500Y-95462769D01*
X107225500Y-95312230D01*
X107245185Y-95245191D01*
X107261817Y-95224550D01*
X107267712Y-95218656D01*
X107273186Y-95209782D01*
X107289719Y-95182976D01*
X107359814Y-95069334D01*
X107414999Y-94902797D01*
X107425500Y-94800009D01*
X107425499Y-94049992D01*
X107414999Y-93947203D01*
X107359814Y-93780666D01*
X107267712Y-93631344D01*
X107267711Y-93631342D01*
X107143657Y-93507288D01*
X107140821Y-93505539D01*
X107094096Y-93453592D01*
X107082873Y-93384629D01*
X107110716Y-93320547D01*
X107140821Y-93294461D01*
X107143654Y-93292713D01*
X107143653Y-93292713D01*
X107143656Y-93292712D01*
X107249550Y-93186817D01*
X107310871Y-93153334D01*
X107337230Y-93150500D01*
X107536294Y-93150500D01*
X107554264Y-93151809D01*
X107558320Y-93152402D01*
X107578023Y-93155289D01*
X107627368Y-93150972D01*
X107638176Y-93150500D01*
X107640100Y-93150500D01*
X107643709Y-93150500D01*
X107674550Y-93146894D01*
X107678031Y-93146539D01*
X107752797Y-93139999D01*
X107752797Y-93139998D01*
X107754052Y-93139889D01*
X107773062Y-93135674D01*
X107774250Y-93135241D01*
X107774255Y-93135241D01*
X107844820Y-93109557D01*
X107848095Y-93108419D01*
X107919334Y-93084814D01*
X107919336Y-93084812D01*
X107920536Y-93084415D01*
X107938063Y-93075929D01*
X107939112Y-93075238D01*
X107939117Y-93075237D01*
X108001806Y-93034005D01*
X108004798Y-93032099D01*
X108068656Y-92992712D01*
X108068656Y-92992711D01*
X108069729Y-92992050D01*
X108084824Y-92979753D01*
X108085692Y-92978832D01*
X108085696Y-92978830D01*
X108137186Y-92924252D01*
X108139632Y-92921734D01*
X108685641Y-92375724D01*
X108699260Y-92363954D01*
X108718530Y-92349610D01*
X108750372Y-92311661D01*
X108757686Y-92303681D01*
X108758267Y-92303099D01*
X108761590Y-92299777D01*
X108780837Y-92275433D01*
X108783031Y-92272738D01*
X108831302Y-92215214D01*
X108831303Y-92215210D01*
X108832119Y-92214239D01*
X108842575Y-92197825D01*
X108843109Y-92196679D01*
X108843111Y-92196677D01*
X108874816Y-92128682D01*
X108876369Y-92125475D01*
X108910040Y-92058433D01*
X108910040Y-92058429D01*
X108910610Y-92057296D01*
X108916999Y-92038917D01*
X108924386Y-92003139D01*
X108932431Y-91964172D01*
X108933198Y-91960719D01*
X108935068Y-91952830D01*
X108937909Y-91940840D01*
X108972523Y-91880150D01*
X109034456Y-91847806D01*
X109104043Y-91854079D01*
X109109003Y-91856160D01*
X109120199Y-91861145D01*
X109318102Y-91903210D01*
X109317610Y-91905524D01*
X109367539Y-91920185D01*
X109413294Y-91972989D01*
X109424500Y-92024500D01*
X109424500Y-92746858D01*
X109424500Y-92746877D01*
X109424501Y-92750008D01*
X109424820Y-92753140D01*
X109424821Y-92753141D01*
X109435000Y-92852796D01*
X109490186Y-93019334D01*
X109582288Y-93168657D01*
X109706344Y-93292713D01*
X109709181Y-93294463D01*
X109755905Y-93346412D01*
X109767125Y-93415374D01*
X109739280Y-93479456D01*
X109709181Y-93505537D01*
X109706344Y-93507286D01*
X109582288Y-93631342D01*
X109490186Y-93780665D01*
X109435000Y-93947202D01*
X109424819Y-94046858D01*
X109424817Y-94046878D01*
X109424500Y-94049991D01*
X109424500Y-94053138D01*
X109424500Y-94053139D01*
X109424500Y-94796858D01*
X109424500Y-94796877D01*
X109424501Y-94800008D01*
X109426353Y-94818135D01*
X109435000Y-94902796D01*
X109490186Y-95069334D01*
X109582285Y-95218653D01*
X109582287Y-95218655D01*
X109582288Y-95218656D01*
X109588180Y-95224548D01*
X109621665Y-95285868D01*
X109624500Y-95312230D01*
X109624500Y-95487769D01*
X109604815Y-95554808D01*
X109588181Y-95575450D01*
X109582288Y-95581342D01*
X109490186Y-95730665D01*
X109435000Y-95897202D01*
X109424819Y-95996858D01*
X109424817Y-95996878D01*
X109424500Y-95999991D01*
X109424500Y-96003138D01*
X109424500Y-96003139D01*
X109424500Y-96796858D01*
X109424500Y-96796877D01*
X109424501Y-96800008D01*
X109424820Y-96803140D01*
X109424821Y-96803141D01*
X109435000Y-96902796D01*
X109490186Y-97069334D01*
X109582288Y-97218657D01*
X109676303Y-97312672D01*
X109709788Y-97373995D01*
X109704804Y-97443687D01*
X109676304Y-97488034D01*
X109582681Y-97581656D01*
X109490642Y-97730877D01*
X109435493Y-97897303D01*
X109425319Y-97996890D01*
X109425000Y-98003168D01*
X109424999Y-98149999D01*
X109425000Y-98150000D01*
X110751000Y-98150000D01*
X110818039Y-98169685D01*
X110863794Y-98222489D01*
X110875000Y-98274000D01*
X110875000Y-99499999D01*
X111121829Y-99499999D01*
X111128111Y-99499678D01*
X111227695Y-99489506D01*
X111394122Y-99434357D01*
X111543345Y-99342316D01*
X111667313Y-99218348D01*
X111672972Y-99209174D01*
X111724919Y-99162448D01*
X111793881Y-99151224D01*
X111857964Y-99179066D01*
X111870663Y-99191296D01*
X111944129Y-99272889D01*
X112097269Y-99384151D01*
X112270197Y-99461144D01*
X112455352Y-99500500D01*
X112455354Y-99500500D01*
X112644648Y-99500500D01*
X112768083Y-99474262D01*
X112829803Y-99461144D01*
X113002730Y-99384151D01*
X113016449Y-99374183D01*
X113082256Y-99350702D01*
X113089337Y-99350500D01*
X113312279Y-99350500D01*
X113374554Y-99350500D01*
X113381764Y-99350710D01*
X113443934Y-99354331D01*
X113443934Y-99354330D01*
X113443935Y-99354331D01*
X113454976Y-99352384D01*
X113476510Y-99350500D01*
X113846042Y-99350500D01*
X113913081Y-99370185D01*
X113951581Y-99409404D01*
X113957288Y-99418657D01*
X114081342Y-99542711D01*
X114123546Y-99568742D01*
X114230666Y-99634814D01*
X114342016Y-99671712D01*
X114397202Y-99689999D01*
X114496858Y-99700180D01*
X114496859Y-99700180D01*
X114499991Y-99700500D01*
X115500008Y-99700499D01*
X115602797Y-99689999D01*
X115769334Y-99634814D01*
X115918656Y-99542712D01*
X116042712Y-99418656D01*
X116134814Y-99269334D01*
X116189999Y-99102797D01*
X116200500Y-99000009D01*
X116200499Y-98675000D01*
X118000001Y-98675000D01*
X118000001Y-98796829D01*
X118000321Y-98803111D01*
X118010493Y-98902695D01*
X118065642Y-99069122D01*
X118157683Y-99218345D01*
X118281654Y-99342316D01*
X118430877Y-99434357D01*
X118597303Y-99489506D01*
X118696890Y-99499680D01*
X118703168Y-99499999D01*
X118949999Y-99499999D01*
X118950000Y-99499998D01*
X118950000Y-98675000D01*
X119450000Y-98675000D01*
X119450000Y-99499999D01*
X119696829Y-99499999D01*
X119703111Y-99499678D01*
X119802695Y-99489506D01*
X119969122Y-99434357D01*
X120118345Y-99342316D01*
X120242316Y-99218345D01*
X120334357Y-99069122D01*
X120389506Y-98902696D01*
X120399680Y-98803109D01*
X120400000Y-98796831D01*
X120400000Y-98675000D01*
X119450000Y-98675000D01*
X118950000Y-98675000D01*
X118000001Y-98675000D01*
X116200499Y-98675000D01*
X116200499Y-98512228D01*
X116220183Y-98445190D01*
X116236813Y-98424553D01*
X117685642Y-96975724D01*
X117699260Y-96963954D01*
X117718530Y-96949610D01*
X117750366Y-96911667D01*
X117757680Y-96903688D01*
X117758264Y-96903103D01*
X117761591Y-96899777D01*
X117780833Y-96875439D01*
X117783088Y-96872672D01*
X117799765Y-96852797D01*
X117807671Y-96843374D01*
X117865841Y-96804673D01*
X117935702Y-96803564D01*
X117995072Y-96840401D01*
X118020366Y-96884077D01*
X118065186Y-97019334D01*
X118157288Y-97168657D01*
X118281340Y-97292709D01*
X118281342Y-97292710D01*
X118281344Y-97292712D01*
X118284652Y-97294752D01*
X118331379Y-97346698D01*
X118342603Y-97415660D01*
X118314762Y-97479744D01*
X118284659Y-97505830D01*
X118281654Y-97507683D01*
X118157683Y-97631654D01*
X118065642Y-97780877D01*
X118010493Y-97947303D01*
X118000319Y-98046890D01*
X118000000Y-98053168D01*
X118000000Y-98175000D01*
X120399999Y-98175000D01*
X120399999Y-98053170D01*
X120399678Y-98046888D01*
X120389506Y-97947304D01*
X120334357Y-97780877D01*
X120242316Y-97631654D01*
X120118344Y-97507682D01*
X120115343Y-97505831D01*
X120068618Y-97453883D01*
X120057397Y-97384921D01*
X120085240Y-97320839D01*
X120115345Y-97294753D01*
X120118656Y-97292712D01*
X120242712Y-97168656D01*
X120334814Y-97019334D01*
X120389999Y-96852797D01*
X120400500Y-96750009D01*
X120400499Y-95999992D01*
X120389999Y-95897203D01*
X120334814Y-95730666D01*
X120242712Y-95581344D01*
X120242711Y-95581342D01*
X120236819Y-95575450D01*
X120203334Y-95514127D01*
X120200500Y-95487769D01*
X120200500Y-95337230D01*
X120220185Y-95270191D01*
X120236817Y-95249550D01*
X120242712Y-95243656D01*
X120334814Y-95094334D01*
X120389999Y-94927797D01*
X120400500Y-94825009D01*
X120400499Y-94024992D01*
X120389999Y-93922203D01*
X120334814Y-93755666D01*
X120252461Y-93622150D01*
X120242713Y-93606345D01*
X120197837Y-93561469D01*
X120149047Y-93512679D01*
X120115564Y-93451359D01*
X120120548Y-93381667D01*
X120149047Y-93337320D01*
X120242712Y-93243656D01*
X120334814Y-93094334D01*
X120389999Y-92927797D01*
X120400500Y-92825009D01*
X120400499Y-92024992D01*
X120389999Y-91922203D01*
X120334814Y-91755666D01*
X120248302Y-91615407D01*
X120242711Y-91606342D01*
X120118657Y-91482288D01*
X119969334Y-91390186D01*
X119802797Y-91335000D01*
X119703141Y-91324819D01*
X119703122Y-91324818D01*
X119700009Y-91324500D01*
X119696860Y-91324500D01*
X118703140Y-91324500D01*
X118703120Y-91324500D01*
X118699992Y-91324501D01*
X118696865Y-91324820D01*
X118696853Y-91324821D01*
X118642292Y-91330394D01*
X118573600Y-91317623D01*
X118522716Y-91269742D01*
X118505797Y-91201951D01*
X118528214Y-91135775D01*
X118542007Y-91119360D01*
X121122819Y-88538547D01*
X121184142Y-88505063D01*
X121253834Y-88510047D01*
G37*
%TD.AperFunction*%
%TA.AperFunction,Conductor*%
G36*
X116732597Y-70665185D02*
G01*
X116778352Y-70717989D01*
X116788296Y-70787147D01*
X116772946Y-70831498D01*
X116772821Y-70831713D01*
X116717478Y-71002040D01*
X116687228Y-71051402D01*
X115714358Y-72024272D01*
X115700727Y-72036053D01*
X115681468Y-72050391D01*
X115649635Y-72088328D01*
X115642338Y-72096292D01*
X115640972Y-72097657D01*
X115640950Y-72097681D01*
X115638409Y-72100223D01*
X115636173Y-72103050D01*
X115636171Y-72103053D01*
X115619176Y-72124546D01*
X115616902Y-72127337D01*
X115567894Y-72185744D01*
X115557418Y-72202187D01*
X115525192Y-72271294D01*
X115523622Y-72274536D01*
X115489393Y-72342692D01*
X115482996Y-72361098D01*
X115467573Y-72435788D01*
X115466793Y-72439305D01*
X115449208Y-72513506D01*
X115447229Y-72532879D01*
X115449448Y-72609129D01*
X115449500Y-72612735D01*
X115449500Y-80437769D01*
X115429815Y-80504808D01*
X115413181Y-80525450D01*
X113514358Y-82424272D01*
X113500727Y-82436053D01*
X113481468Y-82450391D01*
X113449635Y-82488328D01*
X113442338Y-82496292D01*
X113440972Y-82497657D01*
X113440950Y-82497681D01*
X113438409Y-82500223D01*
X113436173Y-82503050D01*
X113436171Y-82503053D01*
X113419176Y-82524546D01*
X113416902Y-82527337D01*
X113367894Y-82585744D01*
X113357418Y-82602187D01*
X113325192Y-82671294D01*
X113323622Y-82674536D01*
X113289393Y-82742692D01*
X113282996Y-82761098D01*
X113267573Y-82835788D01*
X113266793Y-82839305D01*
X113249208Y-82913506D01*
X113247229Y-82932879D01*
X113249448Y-83009129D01*
X113249500Y-83012735D01*
X113249500Y-84423466D01*
X113229815Y-84490505D01*
X113177011Y-84536260D01*
X113107853Y-84546204D01*
X113089582Y-84540934D01*
X112894648Y-84499500D01*
X112894646Y-84499500D01*
X112705354Y-84499500D01*
X112705352Y-84499500D01*
X112520197Y-84538855D01*
X112347269Y-84615848D01*
X112194129Y-84727110D01*
X112067465Y-84867785D01*
X111972821Y-85031714D01*
X111968750Y-85044245D01*
X111929311Y-85101919D01*
X111864952Y-85129116D01*
X111825040Y-85127215D01*
X111737638Y-85108638D01*
X111694646Y-85099500D01*
X111505354Y-85099500D01*
X111505352Y-85099500D01*
X111492869Y-85102153D01*
X111423202Y-85096835D01*
X111379410Y-85068542D01*
X111343053Y-85032184D01*
X111343038Y-85032171D01*
X111225231Y-84914364D01*
X111213449Y-84900731D01*
X111199111Y-84881472D01*
X111199110Y-84881470D01*
X111161154Y-84849621D01*
X111153190Y-84842322D01*
X111151829Y-84840961D01*
X111149277Y-84838409D01*
X111132951Y-84825500D01*
X111124944Y-84819169D01*
X111122147Y-84816890D01*
X111063751Y-84767890D01*
X111047321Y-84757422D01*
X110978191Y-84725186D01*
X110974947Y-84723615D01*
X110906806Y-84689394D01*
X110888403Y-84682997D01*
X110813711Y-84667574D01*
X110810192Y-84666794D01*
X110735990Y-84649208D01*
X110716621Y-84647229D01*
X110640369Y-84649448D01*
X110636763Y-84649500D01*
X107294500Y-84649500D01*
X107227461Y-84629815D01*
X107181706Y-84577011D01*
X107170500Y-84525500D01*
X107170500Y-79942229D01*
X107190185Y-79875190D01*
X107206814Y-79854552D01*
X108022821Y-79038545D01*
X108084142Y-79005062D01*
X108153833Y-79010046D01*
X108209767Y-79051918D01*
X108234184Y-79117382D01*
X108234500Y-79126228D01*
X108234500Y-79404560D01*
X108234500Y-79404578D01*
X108234501Y-79407872D01*
X108234853Y-79411152D01*
X108234854Y-79411159D01*
X108240909Y-79467484D01*
X108258312Y-79514144D01*
X108291204Y-79602331D01*
X108377454Y-79717546D01*
X108492669Y-79803796D01*
X108627517Y-79854091D01*
X108687127Y-79860500D01*
X112582872Y-79860499D01*
X112642483Y-79854091D01*
X112777331Y-79803796D01*
X112892546Y-79717546D01*
X112978796Y-79602331D01*
X113029091Y-79467483D01*
X113035500Y-79407873D01*
X113035499Y-75512128D01*
X113029091Y-75452517D01*
X112978796Y-75317669D01*
X112892546Y-75202454D01*
X112777331Y-75116204D01*
X112642483Y-75065909D01*
X112582873Y-75059500D01*
X112579551Y-75059500D01*
X111509500Y-75059500D01*
X111442461Y-75039815D01*
X111396706Y-74987011D01*
X111385500Y-74935500D01*
X111385500Y-72727228D01*
X111405185Y-72660189D01*
X111421814Y-72639552D01*
X113379548Y-70681819D01*
X113440871Y-70648334D01*
X113467229Y-70645500D01*
X116665558Y-70645500D01*
X116732597Y-70665185D01*
G37*
%TD.AperFunction*%
%TD*%
M02*
