M48
; DRILL file {KiCad 7.0.2} date Wed Aug 23 23:39:54 2023
; FORMAT={-:-/ absolute / metric / decimal}
; #@! TF.CreationDate,2023-08-23T23:39:54+05:30
; #@! TF.GenerationSoftware,Kicad,Pcbnew,7.0.2
; #@! TF.FileFunction,Plated,1,2,PTH
FMAT,2
METRIC
; #@! TA.AperFunction,Plated,PTH,ComponentDrill
T1C0.200
; #@! TA.AperFunction,Plated,PTH,ViaDrill
T2C0.400
; #@! TA.AperFunction,Plated,PTH,ComponentDrill
T3C1.000
%
G90
G05
T1
X109.235Y-76.76
X109.235Y-78.16
X109.935Y-76.06
X109.935Y-77.46
X109.935Y-78.86
X110.635Y-76.76
X110.635Y-78.16
X111.335Y-76.06
X111.335Y-77.46
X111.335Y-78.86
X112.035Y-76.76
X112.035Y-78.16
T2
X102.2Y-101.4
X103.385Y-81.325
X103.385Y-82.595
X103.385Y-83.865
X103.385Y-86.405
X104.0Y-111.4
X104.735Y-86.0
X105.6Y-100.4
X105.65Y-105.5
X106.45Y-87.5
X107.4Y-76.6
X107.4Y-81.0
X107.4Y-84.4
X108.2Y-93.8
X108.8Y-89.0
X109.4Y-91.0
X110.6Y-92.4
X111.416Y-89.616
X111.6Y-86.0
X111.601Y-116.001
X111.95Y-117.1
X112.55Y-98.6
X112.8Y-85.4
X112.817Y-111.424
X113.0Y-89.2
X113.306Y-90.353
X114.2Y-90.8
X114.337Y-118.625
X115.101Y-85.0
X115.95Y-84.0
X116.8Y-82.8
X117.4Y-75.2
X117.6Y-71.2
X117.6Y-76.8
X117.75Y-81.4
X117.8Y-109.0
X118.6Y-80.2
X119.0Y-79.0
X120.01Y-117.372
X120.75Y-73.705
X120.885Y-71.165
X120.885Y-72.435
X121.325Y-118.686
X122.2Y-115.6
T3
X98.6Y-117.0
X98.6Y-120.8
X98.8Y-78.575
X98.8Y-81.115
X98.8Y-83.655
X98.8Y-86.195
X98.8Y-88.735
X98.8Y-91.275
X98.8Y-93.815
X98.8Y-97.72
X98.8Y-100.26
X98.8Y-102.8
X98.8Y-105.34
X98.8Y-107.88
X98.8Y-110.42
X98.8Y-112.96
X124.5Y-82.0
X124.5Y-86.3
X124.5Y-88.84
X124.5Y-91.38
X124.5Y-93.92
X124.5Y-96.46
X124.5Y-99.0
X124.5Y-101.54
X124.5Y-105.42
X124.5Y-107.96
X124.5Y-110.5
X124.5Y-113.04
X124.5Y-115.58
X124.5Y-118.12
X124.5Y-120.66
X124.52Y-78.2
T0
M30
