%TF.GenerationSoftware,KiCad,Pcbnew,7.0.2*%
%TF.CreationDate,2023-08-23T23:39:57+05:30*%
%TF.ProjectId,esp32_dev_board,65737033-325f-4646-9576-5f626f617264,rev?*%
%TF.SameCoordinates,Original*%
%TF.FileFunction,Soldermask,Bot*%
%TF.FilePolarity,Negative*%
%FSLAX46Y46*%
G04 Gerber Fmt 4.6, Leading zero omitted, Abs format (unit mm)*
G04 Created by KiCad (PCBNEW 7.0.2) date 2023-08-23 23:39:57*
%MOMM*%
%LPD*%
G01*
G04 APERTURE LIST*
G04 Aperture macros list*
%AMRoundRect*
0 Rectangle with rounded corners*
0 $1 Rounding radius*
0 $2 $3 $4 $5 $6 $7 $8 $9 X,Y pos of 4 corners*
0 Add a 4 corners polygon primitive as box body*
4,1,4,$2,$3,$4,$5,$6,$7,$8,$9,$2,$3,0*
0 Add four circle primitives for the rounded corners*
1,1,$1+$1,$2,$3*
1,1,$1+$1,$4,$5*
1,1,$1+$1,$6,$7*
1,1,$1+$1,$8,$9*
0 Add four rect primitives between the rounded corners*
20,1,$1+$1,$2,$3,$4,$5,0*
20,1,$1+$1,$4,$5,$6,$7,0*
20,1,$1+$1,$6,$7,$8,$9,0*
20,1,$1+$1,$8,$9,$2,$3,0*%
G04 Aperture macros list end*
%ADD10RoundRect,0.250000X0.475000X-0.337500X0.475000X0.337500X-0.475000X0.337500X-0.475000X-0.337500X0*%
%ADD11R,1.700000X1.700000*%
%ADD12O,1.700000X1.700000*%
%ADD13RoundRect,0.150000X0.150000X-0.825000X0.150000X0.825000X-0.150000X0.825000X-0.150000X-0.825000X0*%
G04 APERTURE END LIST*
D10*
%TO.C,C5*%
X103800000Y-113600000D03*
X103800000Y-111525000D03*
%TD*%
D11*
%TO.C,J1*%
X98800000Y-78575000D03*
D12*
X98800000Y-81115000D03*
X98800000Y-83655000D03*
X98800000Y-86195000D03*
X98800000Y-88735000D03*
X98800000Y-91275000D03*
X98800000Y-93815000D03*
%TD*%
D13*
%TO.C,U3*%
X116045000Y-113075000D03*
X114775000Y-113075000D03*
X113505000Y-113075000D03*
X112235000Y-113075000D03*
X110965000Y-113075000D03*
X109695000Y-113075000D03*
X108425000Y-113075000D03*
X107155000Y-113075000D03*
X107155000Y-108125000D03*
X108425000Y-108125000D03*
X109695000Y-108125000D03*
X110965000Y-108125000D03*
X112235000Y-108125000D03*
X113505000Y-108125000D03*
X114775000Y-108125000D03*
X116045000Y-108125000D03*
%TD*%
D11*
%TO.C,J4*%
X98600000Y-117000000D03*
%TD*%
%TO.C,J7*%
X124500000Y-105420000D03*
D12*
X124500000Y-107960000D03*
X124500000Y-110500000D03*
X124500000Y-113040000D03*
X124500000Y-115580000D03*
X124500000Y-118120000D03*
X124500000Y-120660000D03*
%TD*%
D11*
%TO.C,J9*%
X98600000Y-120800000D03*
%TD*%
%TO.C,J8*%
X124500000Y-82000000D03*
%TD*%
%TO.C,J2*%
X124520000Y-78200000D03*
%TD*%
%TO.C,J6*%
X124500000Y-86300000D03*
D12*
X124500000Y-88840000D03*
X124500000Y-91380000D03*
X124500000Y-93920000D03*
X124500000Y-96460000D03*
X124500000Y-99000000D03*
X124500000Y-101540000D03*
%TD*%
D11*
%TO.C,J5*%
X98800000Y-97720000D03*
D12*
X98800000Y-100260000D03*
X98800000Y-102800000D03*
X98800000Y-105340000D03*
X98800000Y-107880000D03*
X98800000Y-110420000D03*
X98800000Y-112960000D03*
%TD*%
M02*
